<?xml version="1.0" encoding="utf-8"?>
<!-- Generator: Adobe Illustrator 19.1.0, SVG Export Plug-In . SVG Version: 6.00 Build 0)  -->
<svg version="1.1" id="Layer_1" xmlns="http://www.w3.org/2000/svg" xmlns:xlink="http://www.w3.org/1999/xlink" x="0px" y="0px"
	 viewBox="-44 797 585 455" style="enable-background:new -44 797 585 455;" xml:space="preserve">
<style type="text/css">
	.st0{fill:#4A89DC;}
	.st1{fill:#5598E0;}
	.st2{fill:#45B39B;}
	.st3{fill:#43A895;}
	.st4{fill:#5C60A5;}
	.st5{fill:#C5C7CB;}
	.st6{fill:#1C2A47;}
	.st7{fill:#E8ECEF;}
	.st8{fill:#C5C9D1;}
	.st9{fill:#21AA8C;}
	.st10{fill:#AAE0DB;}
	.st11{fill:#182947;}
	.st12{fill:#F2BD25;}
	.st13{fill:#F06924;}
	.st14{fill:#EF9535;}
	.st15{fill:#FCFCFD;}
	.st16{fill:#7176AE;}
	.st17{fill:#99A0AD;}
	.st18{fill:#CBCFD6;}
	.st19{fill:#3DAF96;}
	.st20{fill:#B4E2DE;}
	.st21{fill:#38465F;}
	.st22{fill:#F0C34F;}
	.st23{fill:#EEA24D;}
	.st24{fill:#B0CB64;}
	.st25{fill:#EFA653;}
	.st26{fill:#CD9356;}
	.st27{fill:#A6C644;}
	.st28{fill:#9BB464;}
	.st29{fill:#7277AC;}
	.st30{fill:#1F2F50;}
	.st31{fill:#FFFFFF;}
	.st32{fill:#BE8F40;}
	.st33{fill:#5FC4BB;}
	.st34{fill:#411C51;}
	.st35{fill:#AF655D;}
	.st36{fill:#F5C25E;}
	.st37{fill:#90595A;}
	.st38{opacity:0.2;}
	.st39{fill:#17A687;}
	.st40{fill:#865558;}
	.st41{fill:#4E568F;}
	.st42{opacity:0.33;}
	.st43{fill:#E3AA98;}
	.st44{fill:#D19387;}
	.st45{fill:#DDA495;}
	.st46{fill:#435169;}
	.st47{fill:#A08539;}
	.st48{fill:#DADDE1;}
	.st49{fill:#381649;}
	.st50{fill:#BD928A;}
	.st51{fill:#55A5A3;}
	.st52{fill:#FDCDB6;}
	.st53{fill:#FDA582;}
	.st54{fill:#F68C60;}
	.st55{fill:#FBB69B;}
	.st56{opacity:0.58;}
	.st57{fill:#FCC4AD;}
	.st58{fill:none;}
	.st59{fill:#4E5790;}
	.st60{fill:#218C7A;}
	.st61{fill:#FFCCA9;}
	.st62{fill:#F8AB81;}
	.st63{fill:#D0AB97;}
	.st64{fill:#8BA64A;}
	.st65{fill:#5D60A5;}
	.st66{fill:#FED6BB;}
	.st67{fill:#DFD2BA;}
	.st68{fill:#496476;}
	.st69{fill:#299C85;}
	.st70{fill:#8CA74C;}
	.st71{fill:#3D4C67;}
</style>
<title>COM001-illos-vector</title>
<path class="st0" d="M8.5,853.1h176.1c2.3,0,4.2,1.9,4.2,4.2V886l0,0H4.3l0,0v-28.7C4.3,855,6.1,853.1,8.5,853.1L8.5,853.1z"/>
<path class="st1" d="M182.1,853.1H7.4c-1.2,0.3-2.2,1.1-2.8,2.2c-0.1,0.6,0,1.3,0.3,1.8L20.9,886h167.3v-26.7
	C188.3,855.9,185.5,853.1,182.1,853.1C182.1,853.1,182.1,853.1,182.1,853.1z"/>
<path class="st2" d="M184,1010.7v-69.8h-0.2h-0.1l0,0H47l38.9,69.8H184z"/>
<path class="st3" d="M104.3,976.3c1.9,2.8,3.4,5.9,4.6,9.1l1.1-2.4c1.3-2.8,3.7-4.9,6.6-6l0,0l13.2-4.7l0,0v-1.9l0,0
	c-2.8,0.5-5.4-1.7-5.4-1.7l0,0c0,1.3,0.3,2.6,0.9,3.7c-6.8-5.5-1.1-11.8-1.1-11.8c-0.1-0.8,0-1.7,0.3-2.5h-0.7
	c0.8-1.9,1.9-3.6,3.3-5.1c-12.6-1.1-23.6-1.1-28.8-1.1c-12.7,0-24.7,5.4-35,9.8l6.4,11.4C83.3,969,97.3,965.6,104.3,976.3z"/>
<path class="st3" d="M188.5,951.7l-0.3-0.2c-2.9-1.6-13.4-6.2-18.4,10.9c-0.1,0.2-0.1,0.5-0.2,0.7c-1,3.8-3.2,7.1-6.3,9.4
	c0.6,3.1,0.8,9.6-4.6,17.2c0,0-0.2,2-0.5,4.5c-0.2,2.3-0.7,4.5-1.2,6.8l0,0c0,0.1-0.3,1-0.8,2.3c-0.2,0.5-0.5,1.1-0.8,1.8
	c-0.8,1.8-1.7,3.5-2.7,5.2h35.8L188.5,951.7z"/>
<circle class="st4" cx="29.6" cy="912.9" r="12.7"/>
<ellipse class="st5" cx="94.5" cy="1230" rx="109" ry="4.5"/>
<path class="st6" d="M160.4,805.9h-128C10.6,805.9-7,823.6-7,845.3v342.6c0,21.8,17.6,39.4,39.4,39.4c0,0,0,0,0,0h128
	c21.8,0,39.4-17.6,39.4-39.4l0,0V845.3C199.8,823.6,182.2,805.9,160.4,805.9C160.4,805.9,160.4,805.9,160.4,805.9z M184.4,1188.5
	H8.4c-2.3,0-4.2-1.9-4.2-4.2l0,0V857.6c0-2.5,2-4.6,4.6-4.6h175.8c2.2,0,4,1.8,4,4"/>
<path class="st0" d="M188.3,886h0.3v-28.8c0-0.7-0.2-1.4-0.5-1.9c0.2,0.4,0.2,0.8,0.2,1.2V886z"/>
<path class="st0" d="M185.4,853.2c-0.3-0.1-0.7-0.1-1-0.1H8.2c-0.3,0-0.6,0-0.9,0.1h177.5C185.1,853.1,185.2,853.2,185.4,853.2z"/>
<path class="st7" d="M188.3,1183.1c0,0.4-0.3,0.7-0.7,0.7c-0.2,0-0.5-0.1-0.6-0.4l-15-26.9H4.1v28.8c0,2.3,1.9,4.2,4.2,4.2h176.1
	c2.3,0,4.2-1.9,4.2-4.2v-28.8h-0.3L188.3,1183.1z"/>
<path class="st8" d="M18.5,1089.6c-0.8,0-1.5,0.7-1.5,1.5v2.8c0,0.8,0.7,1.5,1.5,1.5h119.4l-3.2-5.8H18.5z"/>
<path class="st8" d="M18.5,1104.4c-0.9,0-1.6,0.7-1.6,1.6c0,0,0,0,0,0v2.6c0,0.9,0.7,1.6,1.6,1.6h127.5l-3.2-5.8H18.5z"/>
<path class="st8" d="M18.3,1133.9h100.6c0.8,0,1.4,0.6,1.4,1.4v3c0,0.8-0.6,1.4-1.4,1.4H18.3c-0.8,0-1.4-0.6-1.4-1.4v-3
	C16.9,1134.5,17.5,1133.9,18.3,1133.9z"/>
<path class="st9" d="M188.3,940.7L188.3,940.7L188.3,940.7L188.3,940.7z"/>
<path class="st9" d="M188.5,940.7l-0.2,0.1L188.5,940.7L188.5,940.7z"/>
<rect x="188.3" y="1003" class="st9" width="0.3" height="0.3"/>
<path class="st10" d="M63.3,1058.5c0.5-0.6,1.4-0.7,2-0.1c0.2,0.2,0.4,0.4,0.4,0.7c2.8-1.9,5.5-3.9,8-6.1c4.7-4.1,8.9-8.6,12.6-13.6
	c-8.7-0.6-17.7-0.3-26.2-2.2c3.2,4.6,6.4,11,4,15.7c-8.2,15.7-31.1,13.8-32.2,19.2c-0.1,0.5,0,1,0.4,1.4h10.8
	C48.7,1071.3,55.8,1066.9,63.3,1058.5z"/>
<path class="st10" d="M44.8,1038.6c-5.8,3.8-10.5,8.4-9.8,11.8c0.7,3.1,11.3-0.8,18.8-15.2c-1.4-0.5-2.7-1.1-4-1.7
	C48.6,1035.5,46.8,1037.3,44.8,1038.6z"/>
<path class="st10" d="M36.9,1010.6l0.4,0.4l0.8-0.4H36.9z"/>
<path class="st10" d="M20.8,1056.9c3.5-2.7-5.2-11.5-11.8-23.9s3.9-16.7,15-18.6c1.1-0.2,2.1-0.4,3-0.5c-0.8-1.1-1.6-2.2-2.4-3.3
	H4.2v29.8C9,1052.3,18.4,1058.8,20.8,1056.9z"/>
<path class="st10" d="M4.2,1066.8v5.3c0.3,0.4,0.6,0.8,0.9,1.2h5.2C10,1071.4,7,1068.8,4.2,1066.8z"/>
<path class="st10" d="M24.3,1034.6c-2.2-3.1-2.8-6.6-5-3.4c-2.2,3.2,4.4,9.9,6.4,7.9S24.3,1034.6,24.3,1034.6z"/>
<path class="st10" d="M94,1025.6h0.3l0.1-0.3L94,1025.6z"/>
<path class="st10" d="M89.9,1010.6H43.4c0.8,2.7,2,5.3,3.6,7.6c3,1.8,6.3,3.3,9.6,4.4c6.7,2.2,13.7,2.9,21.3,2.9h11.5l4.4-9
	l-3.1-5.8h-0.6L89.9,1010.6z"/>
<path class="st10" d="M128.9,1073.3l-18.5-33.1c-1.6,0.1-6.7,0.1-8.3,0.1c-12.9,13.3-24.2,20.2-30.8,23.5c-1.4,0.7-3.1,1-4.7,0.9
	c0.3,2.9,0.3,5.8-0.1,8.6H128.9z"/>
<rect x="4.1" y="1010.3" class="st9" width="0.2" height="0.3"/>
<path class="st11" d="M189.1,1003l-0.1-51c0,0-0.2-0.1-0.5-0.3v51.3H189.1z"/>
<path class="st11" d="M102.1,1040.3c1.6,0,3.3,0,4.9-0.1l-1.8-3.2C104.1,1038.1,103.1,1039.2,102.1,1040.3z"/>
<path class="st11" d="M94,1025.6c-2.2,1.6-4.1,2.8-5.3,3.6c-1,0.7-1.6,1-1.6,1l0.5-1l1.7-3.6H77.9c-7.6,0-14.6-0.7-21.3-2.9
	c-3.3-1.1-6.5-2.6-9.6-4.5c0.4,0.7,0.9,1.3,1.4,2c3.7,4.8,3.6,9.5,1.4,13.2c1.3,0.6,2.6,1.2,4,1.7c0.3-0.6,0.6-1.2,0.9-1.8
	c0.3-0.7,1.2-1,1.9-0.7c0.2,0.1,0.4,0.2,0.5,0.4c0.8,1,1.9,2.4,3,4c8.5,1.9,17.5,1.6,26.2,2.2c2.2-2.9,4.1-5.9,5.8-9.1
	c0.2-0.3,0.3-0.7,0.5-1c0.6-1.2,1.1-2.3,1.7-3.6L94,1025.6z"/>
<path class="st12" d="M188.3,1054l0.3-0.5v-0.3l-0.3,0.5V1054z"/>
<path class="st13" d="M188.3,1031.3l0.3,0.2v-0.3l-0.3-0.2V1031.3z"/>
<path class="st12" d="M4.2,1073.3h0.9c-0.3-0.4-0.6-0.8-0.9-1.2V1073.3z"/>
<path class="st14" d="M66.6,1064.7c-2.2-0.2-4.2-1.1-5.7-2.6c0,0,1.9-1,4.9-3c-0.2-0.8-1-1.2-1.8-1c-0.3,0.1-0.5,0.2-0.7,0.4
	c-7.5,8.4-14.6,12.9-20.2,14.8h23.3C66.8,1070.5,66.9,1067.5,66.6,1064.7z"/>
<path class="st7" d="M188,855.3c-0.4-1.1-1.5-1.9-2.7-2.1C186.5,853.5,187.4,854.2,188,855.3z"/>
<path class="st15" d="M188.3,1073.3h-62.8l9.1,16.3h3.8c0.8,0,1.5,0.7,1.5,1.5v2.8c0,0.8-0.7,1.5-1.5,1.5h-0.5l5,8.9h9.5
	c0.9,0,1.6,0.7,1.6,1.6c0,0,0,0,0,0v2.6c0,0.9-0.7,1.6-1.6,1.6h-6.3l25.9,46.4h16.3L188.3,1073.3z M169.8,1144.2
	c-2.5,0-4.5-2-4.5-4.5s2-4.5,4.5-4.5c2.5,0,4.5,2,4.5,4.5S172.3,1144.2,169.8,1144.2L169.8,1144.2L169.8,1144.2z"/>
<path class="st15" d="M188.3,886H20.9l8,14.3c0.2,0,0.5,0,0.7,0c7,0,12.6,5.7,12.6,12.7c0,2.6-0.8,5.1-2.3,7.2l11.5,20.6h136.8V886z
	 M49.5,904.4c0-0.8,0.7-1.4,1.5-1.4c0,0,0,0,0,0h41c0.8,0,1.4,0.6,1.4,1.4c0,0,0,0,0,0v6.3c0,0.8-0.6,1.4-1.4,1.4l0,0H51
	c-0.8,0-1.4-0.6-1.4-1.4c0,0,0,0,0,0L49.5,904.4z M157.2,921.7H51c-0.8,0-1.4-0.6-1.4-1.4c0,0,0,0,0,0v-3c0-0.8,0.7-1.4,1.4-1.4
	h106.2c0.8,0,1.4,0.6,1.4,1.4c0,0,0,0,0,0v3C158.6,921,158,921.7,157.2,921.7z"/>
<path class="st7" d="M188.3,1183.1v-26.5h-16.3l15,26.9c0.2,0.3,0.6,0.5,1,0.3C188.1,1183.6,188.3,1183.4,188.3,1183.1z"/>
<path class="st16" d="M29.6,900.2c-0.2,0-0.5,0-0.7,0L40,920.2c4-5.7,2.6-13.6-3.1-17.6C34.7,901,32.2,900.2,29.6,900.2L29.6,900.2z
	"/>
<path class="st17" d="M51,903H92c0.8,0,1.4,0.6,1.4,1.4v6.3c0,0.8-0.6,1.4-1.4,1.4H51c-0.8,0-1.4-0.6-1.4-1.4v-6.3
	C49.5,903.6,50.2,903,51,903z"/>
<path class="st18" d="M51,915.8h106.2c0.8,0,1.4,0.6,1.4,1.4v2.9c0,0.8-0.6,1.4-1.4,1.4H51c-0.8,0-1.4-0.6-1.4-1.4v-2.9
	C49.5,916.5,50.2,915.8,51,915.8z"/>
<path class="st18" d="M139.9,1093.9v-2.8c0-0.8-0.7-1.5-1.5-1.5h-3.8l3.2,5.8h0.5C139.2,1095.5,139.9,1094.8,139.9,1093.9z"/>
<path class="st18" d="M154,1108.6v-2.6c0-0.9-0.7-1.6-1.6-1.6h-9.6l3.2,5.8h6.3C153.2,1110.2,154,1109.5,154,1108.6
	C154,1108.6,154,1108.6,154,1108.6z"/>
<path class="st19" d="M169.8,1135.2c-2.5,0-4.5,2-4.5,4.5s2,4.5,4.5,4.5c2.5,0,4.5-2,4.5-4.5S172.3,1135.2,169.8,1135.2
	L169.8,1135.2z M171.6,1138.4l-2.2,2.9l-1.4-1.4l0,0c0.3-0.2,0.7-0.2,0.9,0l0.4,0.4c0.2-0.2,0.9-1.2,1.4-1.8
	c0.1-0.1,0.3-0.2,0.4-0.2C171.3,1138.1,171.4,1138.2,171.6,1138.4L171.6,1138.4L171.6,1138.4z"/>
<path class="st7" d="M171.1,1138.2c-0.2,0-0.3,0.1-0.4,0.2c-0.5,0.6-1.2,1.6-1.4,1.8l-0.4-0.4c-0.3-0.2-0.7-0.2-0.9,0l0,0l1.4,1.4
	l2.2-2.9l0,0l0,0C171.5,1138.2,171.3,1138.1,171.1,1138.2z"/>
<rect x="188.1" y="1003" class="st7" width="0.1" height="0.3"/>
<polygon class="st20" points="90.4,1010.7 93.7,1016.7 96.6,1010.7 "/>
<path class="st20" d="M149.8,1062.4c-0.8-3.8-19.4-1-16.1-10.2c1.4-3.8,2.5-7.8,3.3-11.8c-6.1-1.5-12.4-2-18.6-1.2
	c-0.9,0.1-1.8,0.2-2.7,0.3c-2.9,0.3-5.8,0.5-8.7,0.6l8.7,15.7l5.5,9.8l4.2,7.6h9.4c-1.1-2.1-1.3-5.1-1.3-7.6c0-1.5,0.1-2.8,0.3-3.8
	c0.1-0.5,0.5-0.8,0.9-0.7c0.1,0,0.2,0.1,0.3,0.1C139.4,1063.9,150.5,1065.9,149.8,1062.4z"/>
<path class="st20" d="M150.1,1019.5c-0.3-1.5-0.6-3-0.7-4.5c-3.8,4.7-9,8.1-14.8,9.7c-1.5,0.4-2.9,0.6-4.4,0.8l1,0.3
	c1.1,0,2.3,0.1,3.5,0.2c6.6,0.5,13.2,1.7,19.7,3.5C152.3,1026.4,150.9,1023,150.1,1019.5z"/>
<path class="st7" d="M123.3,1025.1c-0.2,0.2-0.4,0.3-0.6,0.5h0.7C123.3,1025.4,123.3,1025.3,123.3,1025.1z"/>
<path class="st21" d="M188.3,1054c-2.7,5-5.7,9.2-5.9,11.6c0,0,0,0,0,0.1c0,0.4,0.2,0.8,0.5,1.1c0.7,0.6,1.8,0.1,3.2-1.1
	c0.8-0.8,1.5-1.6,2.2-2.5l0.3-0.4v-9.2L188.3,1054z"/>
<path class="st21" d="M171.2,1034.1c0.1,1,0.2,2,0.1,3c0,4.2-0.8,9.4-0.8,13.2c0,2.6,0.3,4.5,1.5,4.9c2.4,0.9,5.8-8.1,6.2-16.5
	c-0.6-0.4-1.2-0.7-1.8-0.9c-0.6-0.3-1.3-0.7-1.9-1.1C173.4,1036,172.3,1035.1,171.2,1034.1z"/>
<path class="st7" d="M176.5,1028c-0.1-0.1-0.1-0.2-0.1-0.3c0,0.2,0,0.4,0.1,0.6c1.4,2.1,1.9,5.3,1.9,8.7
	C178.4,1033.5,177.9,1030.2,176.5,1028z"/>
<path class="st7" d="M182.4,1065.8C182.4,1065.8,182.4,1065.8,182.4,1065.8L182.4,1065.8C182.4,1065.7,182.4,1065.7,182.4,1065.8z"
	/>
<path class="st7" d="M171.4,1037.2c0,4.2-0.8,9.5-0.8,13.2C170.6,1046.5,171.4,1041.3,171.4,1037.2z"/>
<path class="st22" d="M165.6,1065.7l-17.7-21.4l-9.2-11.1c-0.3,0.1-0.5,0.4-0.6,0.7c-0.2,1.2-0.6,3.6-1.2,6.7
	c-0.8,4-1.9,7.9-3.3,11.8c-3.4,9.2,15.3,6.4,16.1,10.2c0.7,3.5-10.4,1.4-14.7-1.1c-0.4-0.2-0.9-0.1-1.2,0.3
	c-0.1,0.1-0.1,0.2-0.1,0.3c-0.1,0.9-0.2,2.3-0.3,3.8c0,2.6,0.2,5.5,1.3,7.6h37L165.6,1065.7z"/>
<path class="st7" d="M178.4,1037c0,0.6,0,1.2-0.1,1.8l0,0C178.4,1038.2,178.4,1037.6,178.4,1037z"/>
<path class="st20" d="M188.5,1010.3h-32.2c0.7,3.1,1.9,6.1,3.3,9c1.6,3.2,3.6,6.2,5.9,8.9l0.3,0.3c2,0.2,3.8,1.3,4.7,3.1
	c0.4,0.8,0.6,1.6,0.7,2.4l0,0c1.2,1.1,2.4,2.1,3.7,3c1.1,0.5,9.7,5,10.8,5.5C185.8,1042,188.5,1010.3,188.5,1010.3z"/>
<path class="st7" d="M171.4,1037.2c0-1,0-2-0.1-3l0,0C171.4,1035.1,171.4,1036.1,171.4,1037.2z"/>
<path class="st21" d="M165.6,1028.2c-2.3-2.7-4.3-5.7-5.9-8.9c-1.4-2.8-2.5-5.7-3.2-8.8c-0.2-3.1,0-6.3,0.6-9.3l-7.7,12.5l0.1,1.1
	l-0.1,0.2c0.1,1.5,0.4,3,0.7,4.5c0.8,3.5,2.2,6.9,4.1,9.9c-6.4-1.8-13-3-19.7-3.5c-1.2-0.1-2.3-0.2-3.5-0.2l3.5,0.9l1,0.3v1.7h-9.8
	c-2.1,0-2.4-2-2.5-3h-0.7c-0.8,0.6-1.7,1.1-2.6,1.4c-0.3,0.1-0.6,0.2-1,0.3l0,0c-0.9,0.3-1.9,0.4-2.9,0.4h-0.5
	c-0.8,0-1.5-0.1-2.3-0.3l-0.2,0.1l-1.2,1.6c-2.3,2.8-4.5,5.4-6.8,7.8l1.8,3.2c2.9-0.1,5.8-0.3,8.7-0.6c0.9-0.1,1.8-0.2,2.7-0.3
	c6.2-0.8,12.5-0.3,18.6,1.2c0.6-3,1-5.5,1.2-6.7c0-0.3,0.3-0.6,0.6-0.7c0.1,0,0.3,0,0.4,0c2.3,0.3,9,0.9,14.7-1.5
	c4.3-1.9,8.7-3.4,12-3L165.6,1028.2z"/>
<path class="st23" d="M188.3,1031.3c-3.5-2.8-8.3-3.9-11-4.3c-0.5-0.1-0.9,0.2-1,0.7c0,0.1,0,0.3,0,0.4c1.3,2.8,1.9,5.8,2,8.8
	c0,0.6,0,1.2,0,1.8l0,0c-0.5,8.4-3.9,17.4-6.2,16.5c-1.2-0.5-1.5-2.3-1.5-4.9c0-3.8,0.8-9,0.8-13.2c0-1,0-2.1-0.2-3.1
	c-0.1-0.8-0.3-1.7-0.7-2.4c-0.9-1.8-2.7-3-4.7-3.1c-3.3-0.4-7.7,1.2-12,3c-5.6,2.4-12.4,1.8-14.7,1.5c-0.1,0-0.3,0-0.4,0l9.2,11.1
	l17.7,21.4l6.3,7.6h16.6v-10.4l-0.3,0.4c-0.7,0.9-1.4,1.7-2.2,2.5c-1.3,1.3-2.5,1.8-3.2,1.1c-0.3-0.3-0.5-0.7-0.5-1.1c0,0,0,0,0-0.1
	l0,0c0.1-2.4,3.1-6.7,5.9-11.6v-0.3l0.3-0.5v-21.7L188.3,1031.3z"/>
<path class="st24" d="M123.8,977.4c1.5,0.7,2.7,1.9,3.5,3.3c-1.9-4.1,2.3-8.1,2.5-8.3l-13.2,4.7l0,0
	C118.9,976.1,121.5,976.3,123.8,977.4z"/>
<path class="st24" d="M164.3,968.1c-1-1.2-1.9-2.5-2.6-3.9c-0.6-1.1-1-2.2-1.3-3.4c-0.2-0.7-0.4-1.3-0.6-2c-1.2-3.2-3.3-6-6-8.1
	c-2.3,1-4,3-4.5,5.5c-1.2,4.9,0.2,10.2,3.9,13.7c0.7,0.7,1.6,1.2,2.5,1.6c0.5,0.3,1.1,0.4,1.7,0.6c1.9,0.4,3.9-0.2,5.3-1.5
	c0.7-0.6,1.3-1.5,1.8-2.3L164.3,968.1z"/>
<path class="st7" d="M155.5,1005.1c0.3-0.7,0.6-1.3,0.8-1.8h-0.9C155.4,1003.9,155.4,1004.5,155.5,1005.1z"/>
<path class="st25" d="M129.8,963.5c0-0.7-0.2-1.3-0.4-2h-4c-0.6,0.1-1.2-0.3-1.3-0.9c0,0-5.6,6.3,1.1,11.8c-0.6-1.2-0.8-2.4-0.9-3.7
	c0-0.4,0.2-0.8,0.4-1.1C126.1,966.4,128.4,967.6,129.8,963.5z"/>
<path class="st26" d="M129.8,963.5c-1.4,4.1-3.7,2.9-4.9,4.2c-0.3,0.3-0.4,0.7-0.4,1.1l0,0c0,0,2.5,2.1,5.4,1.7l0,0v-6.1
	C129.8,964,129.8,963.8,129.8,963.5z"/>
<path class="st7" d="M110.1,1012.9L110.1,1012.9L110.1,1012.9L110.1,1012.9z"/>
<path class="st27" d="M120.3,1018.3c-1.1-1.5-2.6-2.7-4.1-3.6c-1.8-1.1-3.9-1.7-6-1.8c0,0-4.6,10.4-11.5,12.4
	c-1.4,0.4-2.8,0.4-4.2,0.1l-0.1,0.3c-0.5,1.2-1.1,2.4-1.7,3.6c-0.2,0.3-0.3,0.7-0.5,1c-1.7,3.2-3.6,6.2-5.8,9.1
	c-3.7,5-7.9,9.5-12.6,13.6c-2.5,2.2-5.2,4.2-8,6.1c-3,2-4.9,3-4.9,3c2.7,2.7,6.9,3.4,10.4,1.7c6.6-3.3,17.9-10.2,30.8-23.5
	c1-1.1,2.1-2.2,3.1-3.3c2.2-2.4,4.5-5,6.8-7.8l1.3-1.6l0.2-0.1c0.7,0.2,1.5,0.3,2.3,0.3h0.5c1,0,2-0.1,2.9-0.4l0,0
	c0.3-0.1,0.6-0.2,1-0.3c0.9-0.4,1.8-0.8,2.6-1.4c0.2-0.2,0.4-0.3,0.6-0.5C122.9,1022.6,121.8,1020.2,120.3,1018.3z"/>
<path class="st28" d="M110.1,1012.9L97.4,1023l0.1,0.2l1.2,2.1C105.5,1023.2,110.1,1012.9,110.1,1012.9L110.1,1012.9z"/>
<path class="st29" d="M149.4,963.4c-0.7-2.4-0.7-4.9-0.1-7.3c0.5-2.5,2.2-4.5,4.5-5.5c-3.5-2.6-7.8-4-12.2-4
	c-5.6,0-10.9,2.3-14.7,6.3c-1.4,1.5-2.5,3.2-3.2,5.1h0.7h0.5c4.9-0.1,4.7,6.1,4.7,6.4l0,7.9c2.5,0.9,5.1,1.5,7.7,1.9
	c1.1,0.2,2.3,0.3,3.5,0.3c0.8,0,1.6,0.1,2.4,0.1c3.9-0.1,7.5-1.8,9.9-4.8C151.4,968.2,150.1,965.9,149.4,963.4z"/>
<path class="st8" d="M18.5,1119.1h125.9c0.9,0,1.6,0.7,1.6,1.6v2.7c0,0.9-0.7,1.6-1.6,1.6H18.5c-0.9,0-1.6-0.7-1.6-1.6v-2.7
	C16.9,1119.8,17.6,1119.1,18.5,1119.1z"/>
<path class="st30" d="M157,1001.1c-0.2,0.8-7.2,24.6-30,24.6c-2.2-0.4-3.8-0.5-3.8-0.5c-0.4-2.5-1.4-4.8-3-6.8
	c-2.6-3.3-6.5-5.3-10.8-5.6c4.2-3.7,8-7.7,11.5-12.1c2.3,1.1,4.6,2.1,7,2.9C140.4,1007.7,152.3,1006.4,157,1001.1z"/>
<path class="st23" d="M123.3,1025.2c0,0-0.2,3.5,2.5,3.5h9.8v-1.7l-6.5-1.7C129.1,1025.2,123.4,1025.1,123.3,1025.2z"/>
<path class="st31" d="M470.6,1117.3H258l-21.7,20.5v-20.5H188c-1.7,0-3-1.3-3-3V831.7c0-1.7,1.3-3,3-3h282.6c1.7,0,3,1.3,3,3v282.6
	C473.6,1115.9,472.2,1117.3,470.6,1117.3z"/>
<path class="st11" d="M470.1,828.1H187.4c-1.9,0-3.5,1.6-3.5,3.5v282.6c0,1.9,1.6,3.5,3.5,3.5h47.8v21.2l22.4-21.2h212.4
	c1.9,0,3.5-1.6,3.5-3.5V831.6C473.6,829.6,472,828.1,470.1,828.1L470.1,828.1z M470.1,1116.7H330.4c0-0.1,0-0.1,0-0.2v-0.2
	c0-0.3-0.2-0.5-0.5-0.5s-0.5,0.2-0.5,0.5v0.2c0,0.1,0,0.1,0,0.2h-72.1l-21,19.9v-19.9h-48.8c-1.4,0-2.5-1.1-2.5-2.5V974h0.3
	c0.3,0,0.5-0.2,0.5-0.5s-0.2-0.5-0.5-0.5H185V831.6c0-1.4,1.1-2.5,2.5-2.5h142c0,0.1,0,0.1,0,0.2v0.2c0,0.3,0.2,0.5,0.5,0.5
	s0.5-0.2,0.5-0.5v-0.2c0-0.1,0-0.1,0-0.2h139.6c1.4,0,2.5,1.1,2.5,2.5V973h-0.1c-0.3,0-0.5,0.2-0.5,0.5s0.2,0.5,0.5,0.5h0.1v140.2
	C472.5,1115.6,471.4,1116.7,470.1,1116.7L470.1,1116.7z"/>
<path class="st11" d="M282.6,973h-0.2c-0.3,0-0.5,0.2-0.5,0.5s0.2,0.5,0.5,0.5h0.2c0.3,0,0.5-0.2,0.5-0.5S282.9,973,282.6,973z"/>
<path class="st11" d="M280.3,973h-0.2c-0.3,0-0.5,0.2-0.5,0.5s0.2,0.5,0.5,0.5h0.2c0.3,0,0.5-0.2,0.5-0.5S280.6,973,280.3,973z"/>
<path class="st11" d="M293.9,973h-0.2c-0.3,0-0.5,0.2-0.5,0.5s0.2,0.5,0.5,0.5h0.2c0.3,0,0.5-0.2,0.5-0.5S294.2,973,293.9,973z"/>
<path class="st11" d="M284.8,973h-0.2c-0.3,0-0.5,0.2-0.5,0.5s0.2,0.5,0.5,0.5h0.2c0.3,0,0.5-0.2,0.5-0.5S285.1,973,284.8,973z"/>
<path class="st11" d="M291.6,973h-0.2c-0.3,0-0.5,0.2-0.5,0.5s0.2,0.5,0.5,0.5h0.2c0.3,0,0.5-0.2,0.5-0.5S291.9,973,291.6,973z"/>
<path class="st11" d="M287.1,973h-0.2c-0.3,0-0.5,0.2-0.5,0.5s0.2,0.5,0.5,0.5h0.2c0.3,0,0.5-0.2,0.5-0.5S287.4,973,287.1,973z"/>
<path class="st11" d="M289.4,973h-0.2c-0.3,0-0.5,0.2-0.5,0.5s0.2,0.5,0.5,0.5h0.2c0.3,0,0.5-0.2,0.5-0.5S289.6,973,289.4,973z"/>
<path class="st11" d="M257.7,973h-0.2c-0.3,0-0.5,0.2-0.5,0.5s0.2,0.5,0.5,0.5h0.2c0.3,0,0.5-0.2,0.5-0.5S258,973,257.7,973z"/>
<path class="st11" d="M264.5,973h-0.2c-0.3,0-0.5,0.2-0.5,0.5s0.2,0.5,0.5,0.5h0.2c0.3,0,0.5-0.2,0.5-0.5S264.7,973,264.5,973z"/>
<path class="st11" d="M262.2,973H262c-0.3,0-0.5,0.2-0.5,0.5s0.2,0.5,0.5,0.5h0.2c0.3,0,0.5-0.2,0.5-0.5S262.5,973,262.2,973
	L262.2,973z"/>
<path class="st11" d="M259.9,973h-0.2c-0.3,0-0.5,0.2-0.5,0.5s0.2,0.5,0.5,0.5h0.2c0.3,0,0.5-0.2,0.5-0.5S260.2,973,259.9,973z"/>
<path class="st11" d="M269,973h-0.2c-0.3,0-0.5,0.2-0.5,0.5s0.2,0.5,0.5,0.5h0.2c0.3,0,0.5-0.2,0.5-0.5S269.3,973,269,973z"/>
<path class="st11" d="M271.3,973H271c-0.3,0-0.5,0.2-0.5,0.5s0.2,0.5,0.5,0.5h0.2c0.3,0,0.5-0.2,0.5-0.5S271.5,973,271.3,973
	L271.3,973z"/>
<path class="st11" d="M266.7,973h-0.2c-0.3,0-0.5,0.2-0.5,0.5s0.2,0.5,0.5,0.5h0.2c0.3,0,0.5-0.2,0.5-0.5S267,973,266.7,973z"/>
<path class="st11" d="M273.5,973h-0.2c-0.3,0-0.5,0.2-0.5,0.5s0.2,0.5,0.5,0.5h0.2c0.3,0,0.5-0.2,0.5-0.5S273.8,973,273.5,973z"/>
<path class="st11" d="M278,973h-0.2c-0.3,0-0.5,0.2-0.5,0.5s0.2,0.5,0.5,0.5h0.2c0.3,0,0.5-0.2,0.5-0.5S278.3,973,278,973z"/>
<path class="st11" d="M318.8,973h-0.2c-0.3,0-0.5,0.2-0.5,0.5s0.2,0.5,0.5,0.5h0.2c0.3,0,0.5-0.2,0.5-0.5S319.1,973,318.8,973z"/>
<path class="st11" d="M316.5,973h-0.2c-0.3,0-0.5,0.2-0.5,0.5s0.2,0.5,0.5,0.5h0.2c0.3,0,0.5-0.2,0.5-0.5S316.8,973,316.5,973z"/>
<path class="st11" d="M296.2,973h-0.2c-0.3,0-0.5,0.2-0.5,0.5s0.2,0.5,0.5,0.5h0.2c0.3,0,0.5-0.2,0.5-0.5S296.4,973,296.2,973z"/>
<path class="st11" d="M314.3,973H314c-0.3,0-0.5,0.2-0.5,0.5s0.2,0.5,0.5,0.5h0.2c0.3,0,0.5-0.2,0.5-0.5S314.5,973,314.3,973
	L314.3,973z"/>
<path class="st11" d="M327.9,973h-0.2c-0.3,0-0.5,0.2-0.5,0.5s0.2,0.5,0.5,0.5h0.2c0.3,0,0.5-0.2,0.5-0.5S328.1,973,327.9,973z"/>
<path class="st11" d="M325.6,973h-0.2c-0.3,0-0.5,0.2-0.5,0.5s0.2,0.5,0.5,0.5h0.2c0.3,0,0.5-0.2,0.5-0.5S325.9,973,325.6,973z"/>
<path class="st11" d="M323.3,973h-0.2c-0.3,0-0.5,0.2-0.5,0.5s0.2,0.5,0.5,0.5h0.2c0.3,0,0.5-0.2,0.5-0.5S323.6,973,323.3,973z"/>
<path class="st11" d="M321.1,973h-0.2c-0.3,0-0.5,0.2-0.5,0.5s0.2,0.5,0.5,0.5h0.2c0.3,0,0.5-0.2,0.5-0.5S321.3,973,321.1,973z"/>
<path class="st11" d="M300.7,973h-0.2c-0.3,0-0.5,0.2-0.5,0.5s0.2,0.5,0.5,0.5h0.2c0.3,0,0.5-0.2,0.5-0.5S301,973,300.7,973z"/>
<path class="st11" d="M303,973h-0.2c-0.3,0-0.5,0.2-0.5,0.5s0.2,0.5,0.5,0.5h0.2c0.3,0,0.5-0.2,0.5-0.5S303.3,973,303,973z"/>
<path class="st11" d="M298.4,973h-0.2c-0.3,0-0.5,0.2-0.5,0.5s0.2,0.5,0.5,0.5h0.2c0.3,0,0.5-0.2,0.5-0.5S298.7,973,298.4,973z"/>
<path class="st11" d="M305.2,973H305c-0.3,0-0.5,0.2-0.5,0.5s0.2,0.5,0.5,0.5h0.2c0.3,0,0.5-0.2,0.5-0.5S305.5,973,305.2,973
	L305.2,973z"/>
<path class="st11" d="M312,973h-0.2c-0.3,0-0.5,0.2-0.5,0.5s0.2,0.5,0.5,0.5h0.2c0.3,0,0.5-0.2,0.5-0.5S312.3,973,312,973z"/>
<path class="st11" d="M309.7,973h-0.2c-0.3,0-0.5,0.2-0.5,0.5s0.2,0.5,0.5,0.5h0.2c0.3,0,0.5-0.2,0.5-0.5S310,973,309.7,973z"/>
<path class="st11" d="M307.5,973h-0.2c-0.3,0-0.5,0.2-0.5,0.5s0.2,0.5,0.5,0.5h0.2c0.3,0,0.5-0.2,0.5-0.5S307.8,973,307.5,973z"/>
<path class="st11" d="M275.8,973h-0.2c-0.3,0-0.5,0.2-0.5,0.5s0.2,0.5,0.5,0.5h0.2c0.3,0,0.5-0.2,0.5-0.5S276.1,973,275.8,973z"/>
<path class="st11" d="M201.1,973h-0.2c-0.3,0-0.5,0.2-0.5,0.5s0.2,0.5,0.5,0.5h0.2c0.3,0,0.5-0.2,0.5-0.5S201.4,973,201.1,973z"/>
<path class="st11" d="M207.9,973h-0.2c-0.3,0-0.5,0.2-0.5,0.5s0.2,0.5,0.5,0.5h0.2c0.3,0,0.5-0.2,0.5-0.5S208.1,973,207.9,973z"/>
<path class="st11" d="M210.1,973h-0.2c-0.3,0-0.5,0.2-0.5,0.5s0.2,0.5,0.5,0.5h0.2c0.3,0,0.5-0.2,0.5-0.5S210.4,973,210.1,973z"/>
<path class="st11" d="M203.4,973h-0.2c-0.3,0-0.5,0.2-0.5,0.5s0.2,0.5,0.5,0.5h0.2c0.3,0,0.5-0.2,0.5-0.5S203.6,973,203.4,973z"/>
<path class="st11" d="M205.6,973h-0.2c-0.3,0-0.5,0.2-0.5,0.5s0.2,0.5,0.5,0.5h0.2c0.3,0,0.5-0.2,0.5-0.5S205.9,973,205.6,973z"/>
<path class="st11" d="M212.4,973h-0.2c-0.3,0-0.5,0.2-0.5,0.5s0.2,0.5,0.5,0.5h0.2c0.3,0,0.5-0.2,0.5-0.5S212.7,973,212.4,973z"/>
<path class="st11" d="M216.9,973h-0.2c-0.3,0-0.5,0.2-0.5,0.5s0.2,0.5,0.5,0.5h0.2c0.3,0,0.5-0.2,0.5-0.5S217.2,973,216.9,973z"/>
<path class="st11" d="M214.7,973h-0.2c-0.3,0-0.5,0.2-0.5,0.5s0.2,0.5,0.5,0.5h0.2c0.3,0,0.5-0.2,0.5-0.5S214.9,973,214.7,973z"/>
<path class="st11" d="M194.3,973H194c-0.3,0-0.5,0.2-0.5,0.5s0.2,0.5,0.5,0.5h0.2c0.3,0,0.5-0.2,0.5-0.5S194.5,973,194.3,973
	L194.3,973z"/>
<path class="st11" d="M187.5,973h-0.2c-0.3,0-0.5,0.2-0.5,0.5s0.2,0.5,0.5,0.5h0.2c0.3,0,0.5-0.2,0.5-0.5S187.8,973,187.5,973z"/>
<path class="st11" d="M189.8,973h-0.2c-0.3,0-0.5,0.2-0.5,0.5s0.2,0.5,0.5,0.5h0.2c0.3,0,0.5-0.2,0.5-0.5S190,973,189.8,973z"/>
<path class="st11" d="M198.8,973h-0.2c-0.3,0-0.5,0.2-0.5,0.5s0.2,0.5,0.5,0.5h0.2c0.3,0,0.5-0.2,0.5-0.5S199.1,973,198.8,973z"/>
<path class="st11" d="M196.6,973h-0.2c-0.3,0-0.5,0.2-0.5,0.5s0.2,0.5,0.5,0.5h0.2c0.3,0,0.5-0.2,0.5-0.5S196.8,973,196.6,973z"/>
<path class="st11" d="M192,973h-0.2c-0.3,0-0.5,0.2-0.5,0.5s0.2,0.5,0.5,0.5h0.2c0.3,0,0.5-0.2,0.5-0.5S192.3,973,192,973z"/>
<path class="st11" d="M219.2,973h-0.2c-0.3,0-0.5,0.2-0.5,0.5s0.2,0.5,0.5,0.5h0.2c0.3,0,0.5-0.2,0.5-0.5S219.5,973,219.2,973z"/>
<path class="st11" d="M223.7,973h-0.2c-0.3,0-0.5,0.2-0.5,0.5s0.2,0.5,0.5,0.5h0.2c0.3,0,0.5-0.2,0.5-0.5S224,973,223.7,973z"/>
<path class="st11" d="M246.4,973h-0.2c-0.3,0-0.5,0.2-0.5,0.5s0.2,0.5,0.5,0.5h0.2c0.3,0,0.5-0.2,0.5-0.5S246.6,973,246.4,973z"/>
<path class="st11" d="M244.1,973h-0.2c-0.3,0-0.5,0.2-0.5,0.5s0.2,0.5,0.5,0.5h0.2c0.3,0,0.5-0.2,0.5-0.5S244.4,973,244.1,973z"/>
<path class="st11" d="M241.8,973h-0.2c-0.3,0-0.5,0.2-0.5,0.5s0.2,0.5,0.5,0.5h0.2c0.3,0,0.5-0.2,0.5-0.5S242.1,973,241.8,973z"/>
<path class="st11" d="M248.6,973h-0.2c-0.3,0-0.5,0.2-0.5,0.5s0.2,0.5,0.5,0.5h0.2c0.3,0,0.5-0.2,0.5-0.5S248.9,973,248.6,973z"/>
<path class="st11" d="M239.6,973h-0.2c-0.3,0-0.5,0.2-0.5,0.5s0.2,0.5,0.5,0.5h0.2c0.3,0,0.5-0.2,0.5-0.5S239.8,973,239.6,973z"/>
<path class="st11" d="M253.1,973h-0.2c-0.3,0-0.5,0.2-0.5,0.5s0.2,0.5,0.5,0.5h0.2c0.3,0,0.5-0.2,0.5-0.5S253.4,973,253.1,973z"/>
<path class="st11" d="M250.9,973h-0.2c-0.3,0-0.5,0.2-0.5,0.5s0.2,0.5,0.5,0.5h0.2c0.3,0,0.5-0.2,0.5-0.5S251.2,973,250.9,973z"/>
<path class="st11" d="M221.5,973h-0.2c-0.3,0-0.5,0.2-0.5,0.5s0.2,0.5,0.5,0.5h0.2c0.3,0,0.5-0.2,0.5-0.5S221.7,973,221.5,973z"/>
<path class="st11" d="M226,973h-0.2c-0.3,0-0.5,0.2-0.5,0.5s0.2,0.5,0.5,0.5h0.2c0.3,0,0.5-0.2,0.5-0.5S226.3,973,226,973z"/>
<path class="st11" d="M228.2,973H228c-0.3,0-0.5,0.2-0.5,0.5s0.2,0.5,0.5,0.5h0.2c0.3,0,0.5-0.2,0.5-0.5S228.5,973,228.2,973z"/>
<path class="st11" d="M255.4,973h-0.2c-0.3,0-0.5,0.2-0.5,0.5s0.2,0.5,0.5,0.5h0.2c0.3,0,0.5-0.2,0.5-0.5S255.7,973,255.4,973z"/>
<path class="st11" d="M232.8,973h-0.2c-0.3,0-0.5,0.2-0.5,0.5s0.2,0.5,0.5,0.5h0.2c0.3,0,0.5-0.2,0.5-0.5S233.1,973,232.8,973z"/>
<path class="st11" d="M230.5,973h-0.2c-0.3,0-0.5,0.2-0.5,0.5s0.2,0.5,0.5,0.5h0.2c0.3,0,0.5-0.2,0.5-0.5S230.8,973,230.5,973z"/>
<path class="st11" d="M235,973h-0.2c-0.3,0-0.5,0.2-0.5,0.5s0.2,0.5,0.5,0.5h0.2c0.3,0,0.5-0.2,0.5-0.5S235.3,973,235,973z"/>
<path class="st11" d="M237.3,973H237c-0.3,0-0.5,0.2-0.5,0.5s0.2,0.5,0.5,0.5h0.2c0.3,0,0.5-0.2,0.5-0.5S237.6,973,237.3,973z"/>
<path class="st11" d="M441,973h-0.2c-0.3,0-0.5,0.2-0.5,0.5s0.2,0.5,0.5,0.5h0.2c0.3,0,0.5-0.2,0.5-0.5S441.3,973,441,973z"/>
<path class="st11" d="M379.9,973h-0.2c-0.3,0-0.5,0.2-0.5,0.5s0.2,0.5,0.5,0.5h0.2c0.3,0,0.5-0.2,0.5-0.5S380.2,973,379.9,973z"/>
<path class="st11" d="M377.6,973h-0.2c-0.3,0-0.5,0.2-0.5,0.5s0.2,0.5,0.5,0.5h0.2c0.3,0,0.5-0.2,0.5-0.5S377.9,973,377.6,973z"/>
<path class="st11" d="M384.5,973h-0.2c-0.3,0-0.5,0.2-0.5,0.5s0.2,0.5,0.5,0.5h0.2c0.3,0,0.5-0.2,0.5-0.5S384.7,973,384.5,973z"/>
<path class="st11" d="M366.3,973h-0.2c-0.3,0-0.5,0.2-0.5,0.5s0.2,0.5,0.5,0.5h0.2c0.3,0,0.5-0.2,0.5-0.5S366.6,973,366.3,973z"/>
<path class="st11" d="M368.6,973h-0.2c-0.3,0-0.5,0.2-0.5,0.5s0.2,0.5,0.5,0.5h0.2c0.3,0,0.5-0.2,0.5-0.5S368.9,973,368.6,973z"/>
<path class="st11" d="M373.1,973h-0.2c-0.3,0-0.5,0.2-0.5,0.5s0.2,0.5,0.5,0.5h0.2c0.3,0,0.5-0.2,0.5-0.5S373.4,973,373.1,973z"/>
<path class="st11" d="M375.4,973h-0.2c-0.3,0-0.5,0.2-0.5,0.5s0.2,0.5,0.5,0.5h0.2c0.3,0,0.5-0.2,0.5-0.5S375.7,973,375.4,973z"/>
<path class="st11" d="M382.2,973h-0.2c-0.3,0-0.5,0.2-0.5,0.5s0.2,0.5,0.5,0.5h0.2c0.3,0,0.5-0.2,0.5-0.5S382.5,973,382.2,973z"/>
<path class="st11" d="M398,973h-0.2c-0.3,0-0.5,0.2-0.5,0.5s0.2,0.5,0.5,0.5h0.2c0.3,0,0.5-0.2,0.5-0.5S398.3,973,398,973z"/>
<path class="st11" d="M386.7,973h-0.2c-0.3,0-0.5,0.2-0.5,0.5s0.2,0.5,0.5,0.5h0.2c0.3,0,0.5-0.2,0.5-0.5S387,973,386.7,973z"/>
<path class="st11" d="M400.3,973H400c-0.3,0-0.5,0.2-0.5,0.5s0.2,0.5,0.5,0.5h0.2c0.3,0,0.5-0.2,0.5-0.5S400.5,973,400.3,973
	L400.3,973z"/>
<path class="st11" d="M395.8,973h-0.2c-0.3,0-0.5,0.2-0.5,0.5s0.2,0.5,0.5,0.5h0.2c0.3,0,0.5-0.2,0.5-0.5S396,973,395.8,973z"/>
<path class="st11" d="M402.5,973h-0.2c-0.3,0-0.5,0.2-0.5,0.5s0.2,0.5,0.5,0.5h0.2c0.3,0,0.5-0.2,0.5-0.5S402.8,973,402.5,973z"/>
<path class="st11" d="M389,973h-0.2c-0.3,0-0.5,0.2-0.5,0.5s0.2,0.5,0.5,0.5h0.2c0.3,0,0.5-0.2,0.5-0.5S389.3,973,389,973z"/>
<path class="st11" d="M391.2,973H391c-0.3,0-0.5,0.2-0.5,0.5s0.2,0.5,0.5,0.5h0.2c0.3,0,0.5-0.2,0.5-0.5S391.5,973,391.2,973
	L391.2,973z"/>
<path class="st11" d="M393.5,973h-0.2c-0.3,0-0.5,0.2-0.5,0.5s0.2,0.5,0.5,0.5h0.2c0.3,0,0.5-0.2,0.5-0.5S393.8,973,393.5,973z"/>
<path class="st11" d="M364.1,973h-0.2c-0.3,0-0.5,0.2-0.5,0.5s0.2,0.5,0.5,0.5h0.2c0.3,0,0.5-0.2,0.5-0.5S364.3,973,364.1,973z"/>
<path class="st11" d="M346,973h-0.2c-0.3,0-0.5,0.2-0.5,0.5s0.2,0.5,0.5,0.5h0.2c0.3,0,0.5-0.2,0.5-0.5S346.3,973,346,973z"/>
<path class="st11" d="M341.4,973h-0.2c-0.3,0-0.5,0.2-0.5,0.5s0.2,0.5,0.5,0.5h0.2c0.3,0,0.5-0.2,0.5-0.5S341.7,973,341.4,973z"/>
<path class="st11" d="M334.6,973h-0.2c-0.3,0-0.5,0.2-0.5,0.5s0.2,0.5,0.5,0.5h0.2c0.3,0,0.5-0.2,0.5-0.5S334.9,973,334.6,973z"/>
<path class="st11" d="M339.2,973h-0.2c-0.3,0-0.5,0.2-0.5,0.5s0.2,0.5,0.5,0.5h0.2c0.3,0,0.5-0.2,0.5-0.5S339.4,973,339.2,973z"/>
<path class="st11" d="M348.2,973H348c-0.3,0-0.5,0.2-0.5,0.5s0.2,0.5,0.5,0.5h0.2c0.3,0,0.5-0.2,0.5-0.5S348.5,973,348.2,973
	L348.2,973z"/>
<path class="st11" d="M336.9,973h-0.2c-0.3,0-0.5,0.2-0.5,0.5s0.2,0.5,0.5,0.5h0.2c0.3,0,0.5-0.2,0.5-0.5S337.2,973,336.9,973z"/>
<path class="st11" d="M343.7,973h-0.2c-0.3,0-0.5,0.2-0.5,0.5s0.2,0.5,0.5,0.5h0.2c0.3,0,0.5-0.2,0.5-0.5S344,973,343.7,973z"/>
<path class="st11" d="M359.5,973h-0.2c-0.3,0-0.5,0.2-0.5,0.5s0.2,0.5,0.5,0.5h0.2c0.3,0,0.5-0.2,0.5-0.5S359.8,973,359.5,973z"/>
<path class="st11" d="M332.4,973h-0.2c-0.3,0-0.5,0.2-0.5,0.5s0.2,0.5,0.5,0.5h0.2c0.3,0,0.5-0.2,0.5-0.5S332.7,973,332.4,973z"/>
<path class="st11" d="M361.8,973h-0.2c-0.3,0-0.5,0.2-0.5,0.5s0.2,0.5,0.5,0.5h0.2c0.3,0,0.5-0.2,0.5-0.5S362.1,973,361.8,973z"/>
<path class="st11" d="M350.5,973h-0.2c-0.3,0-0.5,0.2-0.5,0.5s0.2,0.5,0.5,0.5h0.2c0.3,0,0.5-0.2,0.5-0.5S350.8,973,350.5,973z"/>
<path class="st11" d="M352.8,973h-0.2c-0.3,0-0.5,0.2-0.5,0.5s0.2,0.5,0.5,0.5h0.2c0.3,0,0.5-0.2,0.5-0.5S353,973,352.8,973z"/>
<path class="st11" d="M355,973h-0.2c-0.3,0-0.5,0.2-0.5,0.5s0.2,0.5,0.5,0.5h0.2c0.3,0,0.5-0.2,0.5-0.5S355.3,973,355,973z"/>
<path class="st11" d="M357.3,973H357c-0.3,0-0.5,0.2-0.5,0.5s0.2,0.5,0.5,0.5h0.2c0.3,0,0.5-0.2,0.5-0.5S357.5,973,357.3,973
	L357.3,973z"/>
<path class="st11" d="M452.4,973h-0.2c-0.3,0-0.5,0.2-0.5,0.5s0.2,0.5,0.5,0.5h0.2c0.3,0,0.5-0.2,0.5-0.5S452.6,973,452.4,973z"/>
<path class="st11" d="M450.1,973h-0.2c-0.3,0-0.5,0.2-0.5,0.5s0.2,0.5,0.5,0.5h0.2c0.3,0,0.5-0.2,0.5-0.5S450.4,973,450.1,973z"/>
<path class="st11" d="M456.9,973h-0.2c-0.3,0-0.5,0.2-0.5,0.5s0.2,0.5,0.5,0.5h0.2c0.3,0,0.5-0.2,0.5-0.5S457.2,973,456.9,973z"/>
<path class="st11" d="M454.6,973h-0.2c-0.3,0-0.5,0.2-0.5,0.5s0.2,0.5,0.5,0.5h0.2c0.3,0,0.5-0.2,0.5-0.5S454.9,973,454.6,973z"/>
<path class="st11" d="M447.8,973h-0.2c-0.3,0-0.5,0.2-0.5,0.5s0.2,0.5,0.5,0.5h0.2c0.3,0,0.5-0.2,0.5-0.5S448.1,973,447.8,973z"/>
<path class="st11" d="M443.3,973H443c-0.3,0-0.5,0.2-0.5,0.5s0.2,0.5,0.5,0.5h0.2c0.3,0,0.5-0.2,0.5-0.5S443.6,973,443.3,973z"/>
<path class="st11" d="M438.8,973h-0.2c-0.3,0-0.5,0.2-0.5,0.5s0.2,0.5,0.5,0.5h0.2c0.3,0,0.5-0.2,0.5-0.5S439,973,438.8,973z"/>
<path class="st11" d="M445.6,973h-0.2c-0.3,0-0.5,0.2-0.5,0.5s0.2,0.5,0.5,0.5h0.2c0.3,0,0.5-0.2,0.5-0.5S445.8,973,445.6,973z"/>
<path class="st11" d="M404.8,973h-0.2c-0.3,0-0.5,0.2-0.5,0.5s0.2,0.5,0.5,0.5h0.2c0.3,0,0.5-0.2,0.5-0.5S405.1,973,404.8,973z"/>
<path class="st11" d="M459.1,973h-0.2c-0.3,0-0.5,0.2-0.5,0.5s0.2,0.5,0.5,0.5h0.2c0.3,0,0.5-0.2,0.5-0.5S459.4,973,459.1,973z"/>
<path class="st11" d="M468.2,973H468c-0.3,0-0.5,0.2-0.5,0.5s0.2,0.5,0.5,0.5h0.2c0.3,0,0.5-0.2,0.5-0.5S468.5,973,468.2,973
	L468.2,973z"/>
<path class="st11" d="M461.4,973h-0.2c-0.3,0-0.5,0.2-0.5,0.5s0.2,0.5,0.5,0.5h0.2c0.3,0,0.5-0.2,0.5-0.5S461.7,973,461.4,973z"/>
<path class="st11" d="M463.7,973h-0.2c-0.3,0-0.5,0.2-0.5,0.5s0.2,0.5,0.5,0.5h0.2c0.3,0,0.5-0.2,0.5-0.5S464,973,463.7,973z"/>
<path class="st11" d="M465.9,973h-0.2c-0.3,0-0.5,0.2-0.5,0.5s0.2,0.5,0.5,0.5h0.2c0.3,0,0.5-0.2,0.5-0.5S466.2,973,465.9,973z"/>
<path class="st11" d="M470.5,973h-0.2c-0.3,0-0.5,0.2-0.5,0.5s0.2,0.5,0.5,0.5h0.2c0.3,0,0.5-0.2,0.5-0.5S470.7,973,470.5,973z"/>
<path class="st11" d="M416.1,973h-0.2c-0.3,0-0.5,0.2-0.5,0.5s0.2,0.5,0.5,0.5h0.2c0.3,0,0.5-0.2,0.5-0.5S416.4,973,416.1,973z"/>
<path class="st11" d="M418.4,973h-0.2c-0.3,0-0.5,0.2-0.5,0.5s0.2,0.5,0.5,0.5h0.2c0.3,0,0.5-0.2,0.5-0.5S418.7,973,418.4,973z"/>
<path class="st11" d="M413.9,973h-0.2c-0.3,0-0.5,0.2-0.5,0.5s0.2,0.5,0.5,0.5h0.2c0.3,0,0.5-0.2,0.5-0.5S414.1,973,413.9,973z"/>
<path class="st11" d="M407.1,973h-0.2c-0.3,0-0.5,0.2-0.5,0.5s0.2,0.5,0.5,0.5h0.2c0.3,0,0.5-0.2,0.5-0.5S407.4,973,407.1,973z"/>
<path class="st11" d="M420.7,973h-0.2c-0.3,0-0.5,0.2-0.5,0.5s0.2,0.5,0.5,0.5h0.2c0.3,0,0.5-0.2,0.5-0.5S420.9,973,420.7,973z"/>
<path class="st11" d="M411.6,973h-0.2c-0.3,0-0.5,0.2-0.5,0.5s0.2,0.5,0.5,0.5h0.2c0.3,0,0.5-0.2,0.5-0.5S411.9,973,411.6,973z"/>
<path class="st11" d="M409.4,973h-0.2c-0.3,0-0.5,0.2-0.5,0.5s0.2,0.5,0.5,0.5h0.2c0.3,0,0.5-0.2,0.5-0.5S409.6,973,409.4,973z"/>
<path class="st11" d="M425.2,973h-0.2c-0.3,0-0.5,0.2-0.5,0.5s0.2,0.5,0.5,0.5h0.2c0.3,0,0.5-0.2,0.5-0.5S425.5,973,425.2,973z"/>
<path class="st11" d="M429.7,973h-0.2c-0.3,0-0.5,0.2-0.5,0.5s0.2,0.5,0.5,0.5h0.2c0.3,0,0.5-0.2,0.5-0.5S430,973,429.7,973z"/>
<path class="st11" d="M432,973h-0.2c-0.3,0-0.5,0.2-0.5,0.5s0.2,0.5,0.5,0.5h0.2c0.3,0,0.5-0.2,0.5-0.5S432.3,973,432,973z"/>
<path class="st11" d="M422.9,973h-0.2c-0.3,0-0.5,0.2-0.5,0.5s0.2,0.5,0.5,0.5h0.2c0.3,0,0.5-0.2,0.5-0.5S423.2,973,422.9,973z"/>
<path class="st11" d="M434.2,973H434c-0.3,0-0.5,0.2-0.5,0.5s0.2,0.5,0.5,0.5h0.2c0.3,0,0.5-0.2,0.5-0.5S434.5,973,434.2,973z"/>
<path class="st11" d="M427.5,973h-0.2c-0.3,0-0.5,0.2-0.5,0.5s0.2,0.5,0.5,0.5h0.2c0.3,0,0.5-0.2,0.5-0.5S427.7,973,427.5,973z"/>
<path class="st11" d="M436.5,973h-0.2c-0.3,0-0.5,0.2-0.5,0.5s0.2,0.5,0.5,0.5h0.2c0.3,0,0.5-0.2,0.5-0.5S436.8,973,436.5,973z"/>
<path class="st11" d="M370.9,973h-0.2c-0.3,0-0.5,0.2-0.5,0.5s0.2,0.5,0.5,0.5h0.2c0.3,0,0.5-0.2,0.5-0.5S371.1,973,370.9,973z"/>
<path class="st11" d="M329.9,878.4c-0.3,0-0.5,0.2-0.5,0.5v0.2c0,0.3,0.2,0.5,0.5,0.5s0.5-0.2,0.5-0.5v-0.2
	C330.4,878.7,330.2,878.4,329.9,878.4z"/>
<path class="st11" d="M329.9,880.7c-0.3,0-0.5,0.2-0.5,0.5v0.2c0,0.3,0.2,0.5,0.5,0.5s0.5-0.2,0.5-0.5v-0.2
	C330.4,880.9,330.2,880.7,329.9,880.7C329.9,880.7,329.9,880.7,329.9,880.7z"/>
<path class="st11" d="M329.9,876.2c-0.3,0-0.5,0.2-0.5,0.5v0.2c0,0.3,0.2,0.5,0.5,0.5s0.5-0.2,0.5-0.5v-0.2
	C330.4,876.4,330.2,876.2,329.9,876.2z"/>
<path class="st11" d="M329.9,883c-0.3,0-0.5,0.2-0.5,0.5v0.2c0,0.3,0.2,0.5,0.5,0.5s0.5-0.2,0.5-0.5v-0.2
	C330.4,883.2,330.2,883,329.9,883z"/>
<path class="st11" d="M329.9,871.7c-0.3,0-0.5,0.2-0.5,0.5v0.2c0,0.3,0.2,0.5,0.5,0.5s0.5-0.2,0.5-0.5v-0.2
	C330.4,871.9,330.2,871.7,329.9,871.7z"/>
<path class="st11" d="M329.9,869.4c-0.3,0-0.5,0.2-0.5,0.5v0.2c0,0.3,0.2,0.5,0.5,0.5s0.5-0.2,0.5-0.5v-0.2
	C330.4,869.6,330.2,869.4,329.9,869.4C329.9,869.4,329.9,869.4,329.9,869.4z"/>
<path class="st11" d="M329.9,873.9c-0.3,0-0.5,0.2-0.5,0.5v0.2c0,0.3,0.2,0.5,0.5,0.5s0.5-0.2,0.5-0.5v-0.2
	C330.4,874.1,330.2,873.9,329.9,873.9z"/>
<path class="st11" d="M329.9,885.2c-0.3,0-0.5,0.2-0.5,0.5v0.3c0,0.3,0.2,0.5,0.5,0.5s0.5-0.2,0.5-0.5v-0.2
	C330.4,885.5,330.2,885.2,329.9,885.2C329.9,885.2,329.9,885.2,329.9,885.2z"/>
<path class="st11" d="M329.9,894.2c-0.3,0-0.5,0.2-0.5,0.5v0.2c0,0.3,0.2,0.5,0.5,0.5s0.5-0.2,0.5-0.5v-0.2
	C330.4,894.5,330.2,894.2,329.9,894.2z"/>
<path class="st11" d="M329.9,896.5c-0.3,0-0.5,0.2-0.5,0.5v0.2c0,0.3,0.2,0.5,0.5,0.5s0.5-0.2,0.5-0.5V897
	C330.4,896.7,330.2,896.5,329.9,896.5z"/>
<path class="st11" d="M329.9,898.8c-0.3,0-0.5,0.2-0.5,0.5v0.2c0,0.3,0.2,0.5,0.5,0.5s0.5-0.2,0.5-0.5v-0.2
	C330.4,899,330.2,898.8,329.9,898.8z"/>
<path class="st11" d="M329.9,903.3c-0.3,0-0.5,0.2-0.5,0.5v0.2c0,0.3,0.2,0.5,0.5,0.5s0.5-0.2,0.5-0.5v-0.2
	C330.4,903.5,330.2,903.3,329.9,903.3z"/>
<path class="st11" d="M329.9,887.5c-0.3,0-0.5,0.2-0.5,0.5v0.2c0,0.3,0.2,0.5,0.5,0.5s0.5-0.2,0.5-0.5V888
	C330.4,887.7,330.2,887.5,329.9,887.5C329.9,887.5,329.9,887.5,329.9,887.5z"/>
<path class="st11" d="M329.9,867.1c-0.3,0-0.5,0.2-0.5,0.5v0.2c0,0.3,0.2,0.5,0.5,0.5s0.5-0.2,0.5-0.5v-0.2
	C330.4,867.4,330.2,867.1,329.9,867.1z"/>
<path class="st11" d="M329.9,889.7c-0.3,0-0.5,0.2-0.5,0.5v0.2c0,0.3,0.2,0.5,0.5,0.5s0.5-0.2,0.5-0.5v-0.2
	C330.4,890,330.2,889.7,329.9,889.7z"/>
<path class="st11" d="M329.9,892c-0.3,0-0.5,0.2-0.5,0.5v0.2c0,0.3,0.2,0.5,0.5,0.5s0.5-0.2,0.5-0.5v-0.2
	C330.4,892.2,330.2,892,329.9,892z"/>
<path class="st11" d="M329.9,844.5c-0.3,0-0.5,0.2-0.5,0.5v0.2c0,0.3,0.2,0.5,0.5,0.5s0.5-0.2,0.5-0.5V845
	C330.4,844.7,330.2,844.5,329.9,844.5z"/>
<path class="st11" d="M329.9,842.3c-0.3,0-0.5,0.2-0.5,0.5v0.2c0,0.3,0.2,0.5,0.5,0.5s0.5-0.2,0.5-0.5v-0.2
	C330.4,842.5,330.2,842.3,329.9,842.3z"/>
<path class="st11" d="M329.9,846.8c-0.3,0-0.5,0.2-0.5,0.5v0.2c0,0.3,0.2,0.5,0.5,0.5s0.5-0.2,0.5-0.5v-0.2
	C330.4,847,330.2,846.8,329.9,846.8z"/>
<path class="st11" d="M329.9,837.8c-0.3,0-0.5,0.2-0.5,0.5v0.2c0,0.3,0.2,0.5,0.5,0.5s0.5-0.2,0.5-0.5v-0.2
	C330.4,838,330.2,837.8,329.9,837.8z"/>
<path class="st11" d="M329.9,835.5c-0.3,0-0.5,0.2-0.5,0.5v0.2c0,0.3,0.2,0.5,0.5,0.5s0.5-0.2,0.5-0.5V836
	C330.4,835.7,330.2,835.5,329.9,835.5z"/>
<path class="st11" d="M329.9,849.1c-0.3,0-0.5,0.2-0.5,0.5v0.2c0,0.3,0.2,0.5,0.5,0.5s0.5-0.2,0.5-0.5v-0.2
	C330.4,849.3,330.2,849.1,329.9,849.1z"/>
<path class="st11" d="M329.9,971.1c-0.3,0-0.5,0.2-0.5,0.5v0.2c0,0.3,0.2,0.5,0.5,0.5s0.5-0.2,0.5-0.5v-0.2
	C330.4,971.3,330.2,971.1,329.9,971.1z"/>
<path class="st11" d="M329.9,840c-0.3,0-0.5,0.2-0.5,0.5v0.2c0,0.3,0.2,0.5,0.5,0.5s0.5-0.2,0.5-0.5v-0.2
	C330.4,840.2,330.2,840,329.9,840z"/>
<path class="st11" d="M329.9,862.6c-0.3,0-0.5,0.2-0.5,0.5v0.2c0,0.3,0.2,0.5,0.5,0.5s0.5-0.2,0.5-0.5v-0.2
	C330.4,862.8,330.2,862.6,329.9,862.6z"/>
<path class="st11" d="M329.9,864.9c-0.3,0-0.5,0.2-0.5,0.5v0.2c0,0.3,0.2,0.5,0.5,0.5s0.5-0.2,0.5-0.5v-0.2
	C330.4,865.1,330.2,864.9,329.9,864.9z"/>
<path class="st11" d="M329.9,860.3c-0.3,0-0.5,0.2-0.5,0.5v0.2c0,0.3,0.2,0.5,0.5,0.5s0.5-0.2,0.5-0.5v-0.2
	C330.4,860.6,330.2,860.3,329.9,860.3z"/>
<path class="st11" d="M329.9,858.1c-0.3,0-0.5,0.2-0.5,0.5v0.2c0,0.3,0.2,0.5,0.5,0.5s0.5-0.2,0.5-0.5v-0.2
	C330.4,858.3,330.2,858.1,329.9,858.1z"/>
<path class="st11" d="M329.9,853.6c-0.3,0-0.5,0.2-0.5,0.5v0.2c0,0.3,0.2,0.5,0.5,0.5s0.5-0.2,0.5-0.5v-0.2
	C330.4,853.8,330.2,853.6,329.9,853.6z"/>
<path class="st11" d="M329.9,851.3c-0.3,0-0.5,0.2-0.5,0.5v0.2c0,0.3,0.2,0.5,0.5,0.5s0.5-0.2,0.5-0.5v-0.2
	C330.4,851.5,330.2,851.3,329.9,851.3z"/>
<path class="st11" d="M329.9,855.8c-0.3,0-0.5,0.2-0.5,0.5v0.2c0,0.3,0.2,0.5,0.5,0.5s0.5-0.2,0.5-0.5v-0.2
	C330.4,856.1,330.2,855.8,329.9,855.8z"/>
<path class="st11" d="M329.9,901c-0.3,0-0.5,0.2-0.5,0.5v0.2c0,0.3,0.2,0.5,0.5,0.5s0.5-0.2,0.5-0.5v-0.2
	C330.4,901.2,330.2,901,329.9,901z"/>
<path class="st11" d="M329.9,946.2c-0.3,0-0.5,0.2-0.5,0.5v0.3c0,0.3,0.2,0.5,0.5,0.5s0.5-0.2,0.5-0.5v-0.2
	C330.4,946.5,330.2,946.2,329.9,946.2C329.9,946.2,329.9,946.2,329.9,946.2z"/>
<path class="st11" d="M329.9,948.5c-0.3,0-0.5,0.2-0.5,0.5v0.2c0,0.3,0.2,0.5,0.5,0.5s0.5-0.2,0.5-0.5V949
	C330.4,948.7,330.2,948.5,329.9,948.5C329.9,948.5,329.9,948.5,329.9,948.5z"/>
<path class="st11" d="M329.9,950.8c-0.3,0-0.5,0.2-0.5,0.5v0.2c0,0.3,0.2,0.5,0.5,0.5s0.5-0.2,0.5-0.5v-0.2
	C330.4,951,330.2,950.8,329.9,950.8z"/>
<path class="st11" d="M329.9,831c-0.3,0-0.5,0.2-0.5,0.5v0.2c0,0.3,0.2,0.5,0.5,0.5s0.5-0.2,0.5-0.5v-0.2
	C330.4,831.2,330.2,831,329.9,831z"/>
<path class="st11" d="M329.9,953c-0.3,0-0.5,0.2-0.5,0.5v0.2c0,0.3,0.2,0.5,0.5,0.5s0.5-0.2,0.5-0.5v-0.2
	C330.4,953.2,330.2,953,329.9,953z"/>
<path class="st11" d="M329.9,941.7c-0.3,0-0.5,0.2-0.5,0.5v0.2c0,0.3,0.2,0.5,0.5,0.5s0.5-0.2,0.5-0.5v-0.2
	C330.4,941.9,330.2,941.7,329.9,941.7z"/>
<path class="st11" d="M329.9,944c-0.3,0-0.5,0.2-0.5,0.5v0.2c0,0.3,0.2,0.5,0.5,0.5s0.5-0.2,0.5-0.5v-0.2
	C330.4,944.2,330.2,944,329.9,944z"/>
<path class="st11" d="M329.9,962c-0.3,0-0.5,0.2-0.5,0.5v0.2c0,0.3,0.2,0.5,0.5,0.5s0.5-0.2,0.5-0.5v-0.2
	C330.4,962.2,330.2,962,329.9,962z"/>
<path class="st11" d="M329.9,966.6c-0.3,0-0.5,0.2-0.5,0.5v0.2c0,0.3,0.2,0.5,0.5,0.5s0.5-0.2,0.5-0.5v-0.2
	C330.4,966.8,330.2,966.6,329.9,966.6z"/>
<path class="st11" d="M329.9,964.3c-0.3,0-0.5,0.2-0.5,0.5v0.2c0,0.3,0.2,0.5,0.5,0.5s0.5-0.2,0.5-0.5v-0.2
	C330.4,964.5,330.2,964.3,329.9,964.3z"/>
<path class="st11" d="M329.9,955.3c-0.3,0-0.5,0.2-0.5,0.5v0.2c0,0.3,0.2,0.5,0.5,0.5s0.5-0.2,0.5-0.5v-0.2
	C330.4,955.5,330.2,955.3,329.9,955.3z"/>
<path class="st11" d="M329.9,968.8c-0.3,0-0.5,0.2-0.5,0.5v0.2c0,0.3,0.2,0.5,0.5,0.5s0.5-0.2,0.5-0.5v-0.2
	C330.4,969.1,330.2,968.8,329.9,968.8z"/>
<path class="st11" d="M329.9,957.5c-0.3,0-0.5,0.2-0.5,0.5v0.2c0,0.3,0.2,0.5,0.5,0.5s0.5-0.2,0.5-0.5V958
	C330.4,957.7,330.2,957.5,329.9,957.5z"/>
<path class="st11" d="M329.9,939.5c-0.3,0-0.5,0.2-0.5,0.5v0.2c0,0.3,0.2,0.5,0.5,0.5s0.5-0.2,0.5-0.5V940
	C330.4,939.7,330.2,939.5,329.9,939.5C329.9,939.5,329.9,939.4,329.9,939.5z"/>
<path class="st11" d="M329.9,959.8c-0.3,0-0.5,0.2-0.5,0.5v0.2c0,0.3,0.2,0.5,0.5,0.5s0.5-0.2,0.5-0.5v-0.2
	C330.4,960,330.2,959.8,329.9,959.8z"/>
<path class="st11" d="M329.9,914.6c-0.3,0-0.5,0.2-0.5,0.5v0.2c0,0.3,0.2,0.5,0.5,0.5s0.5-0.2,0.5-0.5v-0.2
	C330.4,914.8,330.2,914.6,329.9,914.6z"/>
<path class="st11" d="M329.9,916.8c-0.3,0-0.5,0.2-0.5,0.5v0.2c0,0.3,0.2,0.5,0.5,0.5s0.5-0.2,0.5-0.5v-0.2
	C330.4,917.1,330.2,916.8,329.9,916.8z"/>
<path class="st11" d="M329.9,919.1c-0.3,0-0.5,0.2-0.5,0.5v0.2c0,0.3,0.2,0.5,0.5,0.5s0.5-0.2,0.5-0.5v-0.2
	C330.4,919.3,330.2,919.1,329.9,919.1z"/>
<path class="st11" d="M329.9,905.5c-0.3,0-0.5,0.2-0.5,0.5v0.2c0,0.3,0.2,0.5,0.5,0.5s0.5-0.2,0.5-0.5V906
	C330.4,905.8,330.2,905.5,329.9,905.5z"/>
<path class="st11" d="M329.9,912.3c-0.3,0-0.5,0.2-0.5,0.5v0.2c0,0.3,0.2,0.5,0.5,0.5s0.5-0.2,0.5-0.5v-0.2
	C330.4,912.6,330.2,912.3,329.9,912.3z"/>
<path class="st11" d="M329.9,907.8c-0.3,0-0.5,0.2-0.5,0.5v0.2c0,0.3,0.2,0.5,0.5,0.5s0.5-0.2,0.5-0.5v-0.2
	C330.4,908,330.2,907.8,329.9,907.8z"/>
<path class="st11" d="M329.9,910.1c-0.3,0-0.5,0.2-0.5,0.5v0.2c0,0.3,0.2,0.5,0.5,0.5s0.5-0.2,0.5-0.5v-0.2
	C330.4,910.3,330.2,910.1,329.9,910.1z"/>
<path class="st11" d="M329.9,921.4c-0.3,0-0.5,0.2-0.5,0.5v0.2c0,0.3,0.2,0.5,0.5,0.5s0.5-0.2,0.5-0.5v-0.2
	C330.4,921.6,330.2,921.4,329.9,921.4z"/>
<path class="st11" d="M329.9,930.4c-0.3,0-0.5,0.2-0.5,0.5v0.2c0,0.3,0.2,0.5,0.5,0.5s0.5-0.2,0.5-0.5v-0.2
	C330.4,930.6,330.2,930.4,329.9,930.4z"/>
<path class="st11" d="M329.9,923.6c-0.3,0-0.5,0.2-0.5,0.5v0.2c0,0.3,0.2,0.5,0.5,0.5s0.5-0.2,0.5-0.5v-0.2
	C330.4,923.9,330.2,923.6,329.9,923.6z"/>
<path class="st11" d="M329.9,833.2c-0.3,0-0.5,0.2-0.5,0.5v0.3c0,0.3,0.2,0.5,0.5,0.5s0.5-0.2,0.5-0.5v-0.2
	C330.4,833.5,330.2,833.2,329.9,833.2C329.9,833.2,329.9,833.2,329.9,833.2z"/>
<path class="st11" d="M329.9,934.9c-0.3,0-0.5,0.2-0.5,0.5v0.2c0,0.3,0.2,0.5,0.5,0.5s0.5-0.2,0.5-0.5v-0.2
	C330.4,935.2,330.2,934.9,329.9,934.9z"/>
<path class="st11" d="M329.9,932.7c-0.3,0-0.5,0.2-0.5,0.5v0.2c0,0.3,0.2,0.5,0.5,0.5s0.5-0.2,0.5-0.5v-0.2
	C330.4,932.9,330.2,932.7,329.9,932.7z"/>
<path class="st11" d="M329.9,937.2c-0.3,0-0.5,0.2-0.5,0.5v0.2c0,0.3,0.2,0.5,0.5,0.5s0.5-0.2,0.5-0.5v-0.2
	C330.4,937.4,330.2,937.2,329.9,937.2z"/>
<path class="st11" d="M329.9,925.9c-0.3,0-0.5,0.2-0.5,0.5v0.2c0,0.3,0.2,0.5,0.5,0.5s0.5-0.2,0.5-0.5v-0.2
	C330.4,926.1,330.2,925.9,329.9,925.9z"/>
<path class="st11" d="M329.9,928.2c-0.3,0-0.5,0.2-0.5,0.5v0.2c0,0.3,0.2,0.5,0.5,0.5s0.5-0.2,0.5-0.5v-0.2
	C330.4,928.4,330.2,928.2,329.9,928.2z"/>
<path class="st11" d="M329.9,1086.3c-0.3,0-0.5,0.2-0.5,0.5v0.2c0,0.3,0.2,0.5,0.5,0.5s0.5-0.2,0.5-0.5v-0.2
	C330.4,1086.6,330.2,1086.3,329.9,1086.3z"/>
<path class="st11" d="M329.9,1016.3c-0.3,0-0.5,0.2-0.5,0.5v0.2c0,0.3,0.2,0.5,0.5,0.5s0.5-0.2,0.5-0.5v-0.2
	C330.4,1016.5,330.2,1016.3,329.9,1016.3z"/>
<path class="st11" d="M329.9,1018.5c-0.3,0-0.5,0.2-0.5,0.5v0.2c0,0.3,0.2,0.5,0.5,0.5s0.5-0.2,0.5-0.5v-0.3
	C330.4,1018.7,330.2,1018.5,329.9,1018.5z"/>
<path class="st11" d="M329.9,1020.8c-0.3,0-0.5,0.2-0.5,0.5v0.2c0,0.3,0.2,0.5,0.5,0.5s0.5-0.2,0.5-0.5v-0.2
	C330.4,1021,330.2,1020.8,329.9,1020.8z"/>
<path class="st11" d="M329.9,1011.8c-0.3,0-0.5,0.2-0.5,0.5v0.2c0,0.3,0.2,0.5,0.5,0.5s0.5-0.2,0.5-0.5v-0.2
	C330.4,1012,330.2,1011.8,329.9,1011.8z"/>
<path class="st11" d="M329.9,1014c-0.3,0-0.5,0.2-0.5,0.5v0.2c0,0.3,0.2,0.5,0.5,0.5s0.5-0.2,0.5-0.5v-0.2
	C330.4,1014.2,330.2,1014,329.9,1014z"/>
<path class="st11" d="M329.9,1041.1c-0.3,0-0.5,0.2-0.5,0.5v0.2c0,0.3,0.2,0.5,0.5,0.5s0.5-0.2,0.5-0.5v-0.2
	C330.4,1041.4,330.2,1041.1,329.9,1041.1z"/>
<path class="st11" d="M329.9,1023.1c-0.3,0-0.5,0.2-0.5,0.5v0.2c0,0.3,0.2,0.5,0.5,0.5s0.5-0.2,0.5-0.5v-0.2
	C330.4,1023.3,330.2,1023.1,329.9,1023.1z"/>
<path class="st11" d="M329.9,1009.5c-0.3,0-0.5,0.2-0.5,0.5v0.2c0,0.3,0.2,0.5,0.5,0.5s0.5-0.2,0.5-0.5v-0.2
	C330.4,1009.7,330.2,1009.5,329.9,1009.5z"/>
<path class="st11" d="M329.9,1036.6c-0.3,0-0.5,0.2-0.5,0.5v0.2c0,0.3,0.2,0.5,0.5,0.5s0.5-0.2,0.5-0.5v-0.2
	C330.4,1036.8,330.2,1036.6,329.9,1036.6z"/>
<path class="st11" d="M329.9,1034.4c-0.3,0-0.5,0.2-0.5,0.5v0.2c0,0.3,0.2,0.5,0.5,0.5s0.5-0.2,0.5-0.5v-0.2
	C330.4,1034.6,330.2,1034.4,329.9,1034.4z"/>
<path class="st11" d="M329.9,1038.9c-0.3,0-0.5,0.2-0.5,0.5v0.2c0,0.3,0.2,0.5,0.5,0.5s0.5-0.2,0.5-0.5v-0.2
	C330.4,1039.1,330.2,1038.9,329.9,1038.9z"/>
<path class="st11" d="M329.9,1025.3c-0.3,0-0.5,0.2-0.5,0.5v0.2c0,0.3,0.2,0.5,0.5,0.5s0.5-0.2,0.5-0.5v-0.2
	C330.4,1025.5,330.2,1025.3,329.9,1025.3z"/>
<path class="st11" d="M329.9,1032.1c-0.3,0-0.5,0.2-0.5,0.5v0.2c0,0.3,0.2,0.5,0.5,0.5s0.5-0.2,0.5-0.5v-0.2
	C330.4,1032.3,330.2,1032.1,329.9,1032.1z"/>
<path class="st11" d="M329.9,1029.8c-0.3,0-0.5,0.2-0.5,0.5v0.2c0,0.3,0.2,0.5,0.5,0.5s0.5-0.2,0.5-0.5v-0.2
	C330.4,1030.1,330.2,1029.8,329.9,1029.8z"/>
<path class="st11" d="M329.9,1007.2c-0.3,0-0.5,0.2-0.5,0.5v0.3c0,0.3,0.2,0.5,0.5,0.5s0.5-0.2,0.5-0.5v-0.2
	C330.4,1007.5,330.2,1007.2,329.9,1007.2C329.9,1007.2,329.9,1007.2,329.9,1007.2z"/>
<path class="st11" d="M329.9,982.4c-0.3,0-0.5,0.2-0.5,0.5v0.2c0,0.3,0.2,0.5,0.5,0.5s0.5-0.2,0.5-0.5v-0.2
	C330.4,982.6,330.2,982.4,329.9,982.4z"/>
<path class="st11" d="M329.9,980.1c-0.3,0-0.5,0.2-0.5,0.5v0.2c0,0.3,0.2,0.5,0.5,0.5s0.5-0.2,0.5-0.5v-0.2
	C330.4,980.3,330.2,980.1,329.9,980.1z"/>
<path class="st11" d="M329.9,984.6c-0.3,0-0.5,0.2-0.5,0.5v0.2c0,0.3,0.2,0.5,0.5,0.5s0.5-0.2,0.5-0.5v-0.2
	C330.4,984.9,330.2,984.6,329.9,984.6z"/>
<path class="st11" d="M329.9,977.9c-0.3,0-0.5,0.2-0.5,0.5v0.2c0,0.3,0.2,0.5,0.5,0.5s0.5-0.2,0.5-0.5v-0.2
	C330.4,978.1,330.2,977.9,329.9,977.9z"/>
<path class="st11" d="M329.9,973.3c-0.3,0-0.5,0.2-0.5,0.5v0.2c0,0.3,0.2,0.5,0.5,0.5s0.5-0.2,0.5-0.5v-0.2
	C330.4,973.6,330.2,973.3,329.9,973.3z"/>
<path class="st11" d="M329.9,986.9c-0.3,0-0.5,0.2-0.5,0.5v0.2c0,0.3,0.2,0.5,0.5,0.5s0.5-0.2,0.5-0.5v-0.2
	C330.4,987.1,330.2,986.9,329.9,986.9z"/>
<path class="st11" d="M329.9,975.6c-0.3,0-0.5,0.2-0.5,0.5v0.2c0,0.3,0.2,0.5,0.5,0.5s0.5-0.2,0.5-0.5v-0.2
	C330.4,975.8,330.2,975.6,329.9,975.6z"/>
<path class="st11" d="M329.9,991.4c-0.3,0-0.5,0.2-0.5,0.5v0.2c0,0.3,0.2,0.5,0.5,0.5s0.5-0.2,0.5-0.5v-0.2
	C330.4,991.6,330.2,991.4,329.9,991.4z"/>
<path class="st11" d="M329.9,1000.5c-0.3,0-0.5,0.2-0.5,0.5v0.2c0,0.3,0.2,0.5,0.5,0.5s0.5-0.2,0.5-0.5v-0.2
	C330.4,1000.7,330.2,1000.5,329.9,1000.5C329.9,1000.5,329.9,1000.5,329.9,1000.5z"/>
<path class="st11" d="M329.9,1002.7c-0.3,0-0.5,0.2-0.5,0.5v0.2c0,0.3,0.2,0.5,0.5,0.5s0.5-0.2,0.5-0.5v-0.2
	C330.4,1002.9,330.2,1002.7,329.9,1002.7z"/>
<path class="st11" d="M329.9,989.2c-0.3,0-0.5,0.2-0.5,0.5v0.2c0,0.3,0.2,0.5,0.5,0.5s0.5-0.2,0.5-0.5v-0.2
	C330.4,989.4,330.2,989.2,329.9,989.2z"/>
<path class="st11" d="M329.9,998.2c-0.3,0-0.5,0.2-0.5,0.5v0.3c0,0.3,0.2,0.5,0.5,0.5s0.5-0.2,0.5-0.5v-0.2
	C330.4,998.5,330.2,998.2,329.9,998.2C329.9,998.2,329.9,998.2,329.9,998.2z"/>
<path class="st11" d="M329.9,1005c-0.3,0-0.5,0.2-0.5,0.5v0.2c0,0.3,0.2,0.5,0.5,0.5s0.5-0.2,0.5-0.5v-0.2
	C330.4,1005.2,330.2,1005,329.9,1005z"/>
<path class="st11" d="M329.9,995.9c-0.3,0-0.5,0.2-0.5,0.5v0.2c0,0.3,0.2,0.5,0.5,0.5s0.5-0.2,0.5-0.5v-0.2
	C330.4,996.2,330.2,995.9,329.9,995.9z"/>
<path class="st11" d="M329.9,993.7c-0.3,0-0.5,0.2-0.5,0.5v0.2c0,0.3,0.2,0.5,0.5,0.5s0.5-0.2,0.5-0.5v-0.2
	C330.4,993.9,330.2,993.7,329.9,993.7z"/>
<path class="st11" d="M329.9,1027.6c-0.3,0-0.5,0.2-0.5,0.5v0.2c0,0.3,0.2,0.5,0.5,0.5s0.5-0.2,0.5-0.5v-0.2
	C330.4,1027.8,330.2,1027.6,329.9,1027.6z"/>
<path class="st11" d="M329.9,1093.1c-0.3,0-0.5,0.2-0.5,0.5v0.2c0,0.3,0.2,0.5,0.5,0.5s0.5-0.2,0.5-0.5v-0.2
	C330.4,1093.3,330.2,1093.1,329.9,1093.1z"/>
<path class="st11" d="M329.9,1095.4c-0.3,0-0.5,0.2-0.5,0.5v0.2c0,0.3,0.2,0.5,0.5,0.5s0.5-0.2,0.5-0.5v-0.2
	C330.4,1095.6,330.2,1095.4,329.9,1095.4z"/>
<path class="st11" d="M329.9,1079.6c-0.3,0-0.5,0.2-0.5,0.5v0.2c0,0.3,0.2,0.5,0.5,0.5s0.5-0.2,0.5-0.5v-0.2
	C330.4,1079.8,330.2,1079.6,329.9,1079.6z"/>
<path class="st11" d="M329.9,1088.6c-0.3,0-0.5,0.2-0.5,0.5v0.2c0,0.3,0.2,0.5,0.5,0.5s0.5-0.2,0.5-0.5v-0.2
	C330.4,1088.8,330.2,1088.6,329.9,1088.6z"/>
<path class="st11" d="M329.9,1081.8c-0.3,0-0.5,0.2-0.5,0.5v0.2c0,0.3,0.2,0.5,0.5,0.5s0.5-0.2,0.5-0.5v-0.2
	C330.4,1082,330.2,1081.8,329.9,1081.8z"/>
<path class="st11" d="M329.9,1043.4c-0.3,0-0.5,0.2-0.5,0.5v0.2c0,0.3,0.2,0.5,0.5,0.5s0.5-0.2,0.5-0.5v-0.2
	C330.4,1043.6,330.2,1043.4,329.9,1043.4z"/>
<path class="st11" d="M329.9,1097.6c-0.3,0-0.5,0.2-0.5,0.5v0.2c0,0.3,0.2,0.5,0.5,0.5s0.5-0.2,0.5-0.5v-0.2
	C330.4,1097.9,330.2,1097.6,329.9,1097.6z"/>
<path class="st11" d="M329.9,1090.8c-0.3,0-0.5,0.2-0.5,0.5v0.2c0,0.3,0.2,0.5,0.5,0.5s0.5-0.2,0.5-0.5v-0.2
	C330.4,1091.1,330.2,1090.8,329.9,1090.8z"/>
<path class="st11" d="M329.9,1108.9c-0.3,0-0.5,0.2-0.5,0.5v0.2c0,0.3,0.2,0.5,0.5,0.5s0.5-0.2,0.5-0.5v-0.2
	C330.4,1109.2,330.2,1108.9,329.9,1108.9z"/>
<path class="st11" d="M329.9,1111.2c-0.3,0-0.5,0.2-0.5,0.5v0.2c0,0.3,0.2,0.5,0.5,0.5s0.5-0.2,0.5-0.5v-0.2
	C330.4,1111.4,330.2,1111.2,329.9,1111.2z"/>
<path class="st11" d="M329.9,1099.9c-0.3,0-0.5,0.2-0.5,0.5v0.2c0,0.3,0.2,0.5,0.5,0.5s0.5-0.2,0.5-0.5v-0.2
	C330.4,1100.1,330.2,1099.9,329.9,1099.9z"/>
<path class="st11" d="M329.9,1113.4c-0.3,0-0.5,0.2-0.5,0.5v0.2c0,0.3,0.2,0.5,0.5,0.5s0.5-0.2,0.5-0.5v-0.2
	C330.4,1113.7,330.2,1113.5,329.9,1113.4C329.9,1113.5,329.9,1113.4,329.9,1113.4z"/>
<path class="st11" d="M329.9,1102.2c-0.3,0-0.5,0.2-0.5,0.5v0.2c0,0.3,0.2,0.5,0.5,0.5s0.5-0.2,0.5-0.5v-0.2
	C330.4,1102.4,330.2,1102.2,329.9,1102.2z"/>
<path class="st11" d="M329.9,1106.7c-0.3,0-0.5,0.2-0.5,0.5v0.2c0,0.3,0.2,0.5,0.5,0.5s0.5-0.2,0.5-0.5v-0.2
	C330.4,1106.9,330.2,1106.7,329.9,1106.7z"/>
<path class="st11" d="M329.9,1104.4c-0.3,0-0.5,0.2-0.5,0.5v0.2c0,0.3,0.2,0.5,0.5,0.5s0.5-0.2,0.5-0.5v-0.2
	C330.4,1104.6,330.2,1104.4,329.9,1104.4z"/>
<path class="st11" d="M329.9,1084.1c-0.3,0-0.5,0.2-0.5,0.5v0.2c0,0.3,0.2,0.5,0.5,0.5s0.5-0.2,0.5-0.5v-0.2
	C330.4,1084.3,330.2,1084.1,329.9,1084.1z"/>
<path class="st11" d="M329.9,1054.7c-0.3,0-0.5,0.2-0.5,0.5v0.2c0,0.3,0.2,0.5,0.5,0.5s0.5-0.2,0.5-0.5v-0.2
	C330.4,1054.9,330.2,1054.7,329.9,1054.7z"/>
<path class="st11" d="M329.9,1059.2c-0.3,0-0.5,0.2-0.5,0.5v0.3c0,0.3,0.2,0.5,0.5,0.5s0.5-0.2,0.5-0.5v-0.2
	C330.4,1059.5,330.2,1059.2,329.9,1059.2C329.9,1059.2,329.9,1059.2,329.9,1059.2z"/>
<path class="st11" d="M329.9,1057c-0.3,0-0.5,0.2-0.5,0.5v0.2c0,0.3,0.2,0.5,0.5,0.5s0.5-0.2,0.5-0.5v-0.2
	C330.4,1057.2,330.2,1057,329.9,1057z"/>
<path class="st11" d="M329.9,1052.4c-0.3,0-0.5,0.2-0.5,0.5v0.2c0,0.3,0.2,0.5,0.5,0.5s0.5-0.2,0.5-0.5v-0.2
	C330.4,1052.7,330.2,1052.4,329.9,1052.4z"/>
<path class="st11" d="M329.9,1045.7c-0.3,0-0.5,0.2-0.5,0.5v0.2c0,0.3,0.2,0.5,0.5,0.5s0.5-0.2,0.5-0.5v-0.2
	C330.4,1045.9,330.2,1045.7,329.9,1045.7z"/>
<path class="st11" d="M329.9,1050.2c-0.3,0-0.5,0.2-0.5,0.5v0.2c0,0.3,0.2,0.5,0.5,0.5s0.5-0.2,0.5-0.5v-0.2
	C330.4,1050.4,330.2,1050.2,329.9,1050.2z"/>
<path class="st11" d="M329.9,1047.9c-0.3,0-0.5,0.2-0.5,0.5v0.2c0,0.3,0.2,0.5,0.5,0.5s0.5-0.2,0.5-0.5v-0.2
	C330.4,1048.1,330.2,1047.9,329.9,1047.9z"/>
<path class="st11" d="M329.9,1066c-0.3,0-0.5,0.2-0.5,0.5v0.2c0,0.3,0.2,0.5,0.5,0.5s0.5-0.2,0.5-0.5v-0.2
	C330.4,1066.2,330.2,1066,329.9,1066z"/>
<path class="st11" d="M329.9,1072.8c-0.3,0-0.5,0.2-0.5,0.5v0.2c0,0.3,0.2,0.5,0.5,0.5s0.5-0.2,0.5-0.5v-0.2
	C330.4,1073,330.2,1072.8,329.9,1072.8z"/>
<path class="st11" d="M329.9,1061.5c-0.3,0-0.5,0.2-0.5,0.5v0.2c0,0.3,0.2,0.5,0.5,0.5s0.5-0.2,0.5-0.5v-0.2
	C330.4,1061.7,330.2,1061.5,329.9,1061.5C329.9,1061.5,329.9,1061.5,329.9,1061.5z"/>
<path class="st11" d="M329.9,1070.5c-0.3,0-0.5,0.2-0.5,0.5v0.2c0,0.3,0.2,0.5,0.5,0.5s0.5-0.2,0.5-0.5v-0.3
	C330.4,1070.7,330.2,1070.5,329.9,1070.5z"/>
<path class="st11" d="M329.9,1075c-0.3,0-0.5,0.2-0.5,0.5v0.2c0,0.3,0.2,0.5,0.5,0.5s0.5-0.2,0.5-0.5v-0.2
	C330.4,1075.2,330.2,1075,329.9,1075z"/>
<path class="st11" d="M329.9,1063.7c-0.3,0-0.5,0.2-0.5,0.5v0.2c0,0.3,0.2,0.5,0.5,0.5s0.5-0.2,0.5-0.5v-0.2
	C330.4,1064,330.2,1063.7,329.9,1063.7z"/>
<path class="st11" d="M329.9,1077.3c-0.3,0-0.5,0.2-0.5,0.5v0.2c0,0.3,0.2,0.5,0.5,0.5s0.5-0.2,0.5-0.5v-0.2
	C330.4,1077.5,330.2,1077.3,329.9,1077.3z"/>
<path class="st11" d="M329.9,1068.3c-0.3,0-0.5,0.2-0.5,0.5v0.2c0,0.3,0.2,0.5,0.5,0.5s0.5-0.2,0.5-0.5v-0.2
	C330.4,1068.5,330.2,1068.3,329.9,1068.3z"/>
<circle class="st12" cx="258.8" cy="1049.3" r="44.8"/>
<path class="st32" d="M258.8,1094.1c13,0,25.3-5.6,33.8-15.4c-6.8-2.2-13.8-3.6-20.8-4.2c0-0.1,0.1-0.2,0.1-0.4
	c-0.6-1-1-2.1-1.2-3.2l-2.1-0.2c-0.1-0.2-0.3-0.4-0.4-0.6H268c-0.1-0.7-0.2-1.4-0.2-2.2l0,0c-0.2-2.8-0.2-5.8-0.2-6.7l0,0
	c0-0.2,0-0.3,0-0.3l-0.1-0.2c-2.6,1-5.2,1.7-7.9,2.3h-0.1c1.2-0.2,12.7-2.5,18.6-8.8c1.1-1.4,1.9-3,2.4-4.7c1.3-2,2.3-5.2,2.9-9.1
	c4.5,0.2,5.5-10.2,4.1-12.9c-0.5-0.9-1.9-1.8-2.9-1.1c0.2-5,0.2-9.9,0.1-13.9c-15.3-10.8-35.6-10.9-51.1-0.4
	c-0.1,4.1-0.1,9.1,0,14.3c-1-0.6-2.3,0.2-2.8,1.1c-1.3,2.7-0.3,12.9,4.1,12.9c0.7,3.9,1.6,7.1,2.9,9.1c0.4,1.7,1.2,3.3,2.4,4.7
	c2.9,3.1,7.2,5.2,11,6.6v0.1c0,0,0,0.1,0,0.3l0,0c0,0.8,0,3.2-0.1,5.7c0,1.1-0.1,2.2-0.3,3.2h-0.1c-0.1,0.1-0.2,0.3-0.3,0.4
	c-0.9,0-1.8,0.1-2.7,0.2c-0.2,1.2-0.7,2.3-1.3,3.3c0,0.1,0,0.2,0.1,0.4c-7.3,0.6-14.5,2-21.5,4.2
	C233.5,1088.5,245.8,1094.1,258.8,1094.1z"/>
<path class="st33" d="M258,1071.8c-13.6,0-25.9,1.9-34.5,5c15.2,19.5,43.4,23,62.9,7.8c2.8-2.1,5.3-4.6,7.4-7.3
	C285.1,1074,272.3,1071.8,258,1071.8z"/>
<path class="st31" d="M247,1068.6c-0.2,1.2-0.7,2.3-1.3,3.3c0.6,4.2,13,16.6,13,16.6s11.9-12.3,12.5-16.5c-0.6-1-1-2.1-1.2-3.2
	c-4-0.4-8.2-0.6-12.6-0.6C253.8,1068.2,250.3,1068.4,247,1068.6z"/>
<path class="st34" d="M258.7,1059c0,0,13.7-2.7,20.5-10.9c5.2-6.2,5-29.6,4.7-40.7c0-3.6-2.1-6.9-5.4-8.4c-6.3-2.7-13-4-19.8-4h-0.5
	c-6.8,0-13.5,1.3-19.8,4c-3.3,1.5-5.4,4.8-5.4,8.4c-0.4,11.1-0.5,34.6,4.7,40.7c6.8,8.2,20.5,10.9,20.5,10.9H258.7z"/>
<path class="st35" d="M258.7,1061c0,0,12.5-2.2,18.7-8.8c6.2-6.6,4-37.7,4-37.7c-3.5-0.8-6.5-2.9-8.5-5.8c-2.5,2.9-8.8,0.5-14.2,0.6
	h-0.5c-7.9,0-15.6,1.8-22.7,5.3c0,0-2.2,31.1,4,37.7c6.2,6.6,18.7,8.8,18.7,8.8H258.7z"/>
<path class="st36" d="M267.5,1068.1L267.5,1068.1c0.1,1.2,0.5,2.4,1,3.4C268.7,1070.3,268.4,1069,267.5,1068.1z"/>
<path class="st36" d="M250,1068.1c-0.8,0.9-1.2,2.1-1.1,3.3C249.5,1070.4,249.9,1069.3,250,1068.1L250,1068.1z"/>
<path class="st35" d="M267.4,1068.1c-0.1-0.7-0.2-1.4-0.2-2.2l0,0c-0.3-3.4-0.2-7-0.2-7l-0.1-0.2c-2.6,1-5.2,1.8-7.9,2.3h-0.5
	c-2.7-0.5-5.4-1.3-7.9-2.3l-0.1,0.2c0,0,0.1,2.9-0.1,6c0,1.1-0.1,2.2-0.3,3.2c-0.2,1.2-0.5,2.3-1.1,3.3c0.5,3.2,10,12.8,10,12.8
	s9.1-9.5,9.6-12.7C268,1070.5,267.6,1069.3,267.4,1068.1z"/>
<path class="st37" d="M266.9,1059c-2.6,1-5.2,1.7-7.9,2.3h-0.5c-2.7-0.5-5.4-1.3-7.9-2.3l-0.1,0.2l6,3c0.7,0.3,1.4,0.5,2.1,0.6l0,0
	c1.4,0.2,2.8-0.2,4-0.9l4.4-2.7L266.9,1059z"/>
<g class="st38">
	<path class="st11" d="M255.6,1051l7.4-0.5C263.1,1050.5,259.1,1054.5,255.6,1051z"/>
</g>
<path class="st31" d="M264.6,1048.3c0.1,4.2-11.8,4.2-11.9,0H264.6z"/>
<path class="st34" d="M251.8,1022c-0.8,0-1.6,0-2.3,0c-0.9,0-1.9,0.1-2.8,0.2c-1,0.1-1.9,0.4-2.8,0.8c-0.9,0.4-1.8,0.9-2.5,1.5
	c-0.9,0.8-1.6,1.7-2,2.8c-0.1,0.3-0.2,0.6-0.3,0.9c0,0-0.1,0.3,0,0.4c0.1,0,1.1-1.3,2-2.1c3.2-2.5,7.6-2.4,10.5-2.1
	c0.6,0,1.2-0.4,1.2-1.1C252.9,1022.6,252.4,1022.1,251.8,1022L251.8,1022z"/>
<path class="st34" d="M265.5,1022c0.8,0,1.6,0,2.3,0c0.9,0,1.9,0.1,2.8,0.2c1,0.1,1.9,0.4,2.8,0.8c0.9,0.4,1.8,0.9,2.5,1.5
	c0.9,0.8,1.6,1.7,2,2.8c0.1,0.3,0.2,0.6,0.3,0.9c0,0,0.1,0.3,0,0.4c-0.1,0-1.1-1.3-2-2.1c-3.2-2.5-7.6-2.4-10.5-2.1
	c-0.6,0-1.2-0.4-1.2-1.1C264.5,1022.6,264.9,1022.1,265.5,1022L265.5,1022z"/>
<path class="st11" d="M251.4,1030c-0.1,0-0.3-0.1-0.4-0.2c-0.9-1.1-2.3-1.8-3.7-1.8c-1.3,0.1-2.5,0.7-3.3,1.6
	c-0.2,0.2-0.5,0.3-0.8,0.1c-0.2-0.2-0.3-0.5-0.1-0.8c0,0,0,0,0,0c1.1-1.2,2.6-1.9,4.1-2c1.7,0,3.4,0.8,4.5,2.2
	c0.2,0.2,0.2,0.6,0,0.8C251.7,1029.9,251.5,1030,251.4,1030L251.4,1030z"/>
<path class="st11" d="M265.9,1030c-0.3,0-0.5-0.3-0.5-0.6c0-0.1,0.1-0.3,0.2-0.4c1.1-1.3,2.8-2.1,4.5-2.1c1.6,0.1,3.1,0.8,4.1,2
	c0.2,0.2,0.1,0.6-0.1,0.8c-0.2,0.2-0.5,0.2-0.7-0.1c-0.9-0.9-2.1-1.5-3.4-1.6c-1.4,0-2.8,0.7-3.7,1.8
	C266.2,1030,266,1030,265.9,1030z"/>
<ellipse class="st34" cx="264.3" cy="997.8" rx="8.2" ry="4.2"/>
<ellipse class="st34" cx="253" cy="998.1" rx="8.2" ry="4.2"/>
<ellipse class="st34" cx="258" cy="996.3" rx="3.6" ry="2.9"/>
<ellipse class="st34" cx="243.4" cy="998.3" rx="3.6" ry="2.9"/>
<ellipse transform="matrix(-0.4258 -0.9048 0.9048 -0.4258 -565.2808 1642.2418)" class="st34" cx="238.5" cy="1000.5" rx="2.9" ry="3.6"/>
<path class="st35" d="M234.3,1028.4c0-5.7-3.3-4.4-4.1-2.9c-1.4,2.7-0.3,13.4,4.4,12.9L234.3,1028.4z"/>
<path class="st35" d="M282.7,1028.4c0-5.7,3.3-4.4,4.1-2.9c1.4,2.7,0.3,13.4-4.4,12.9L282.7,1028.4z"/>
<circle class="st39" cx="224.1" cy="1079.6" r="14.6"/>
<path class="st31" d="M222.3,1084.8l-3.6-3.8c-0.2-0.2-0.2-0.5,0-0.7s0.5-0.2,0.7,0c0,0,0,0,0.1,0.1l2.8,2.9l6.6-8.8
	c0.1-0.2,0.4-0.3,0.7-0.2c0.2,0.1,0.3,0.4,0.2,0.7c0,0,0,0.1-0.1,0.1L222.3,1084.8z"/>
<path class="st40" d="M258.4,1041c-1.1,0-2.3-0.3-3.3-0.8c-0.6-0.3-0.8-1-0.6-1.6l0.8-1.8l0.9,0.4l-0.8,1.8c-0.1,0.1,0,0.3,0.1,0.3
	c0,0,0,0,0,0c1.9,1,4.2,0.9,6-0.2c0.1,0,0.1-0.1,0.1-0.2c0-0.1,0-0.1,0-0.2l-0.9-1.5l0.9-0.5l0.9,1.5c0.2,0.3,0.2,0.7,0.1,1
	c-0.1,0.3-0.3,0.6-0.6,0.8C261.1,1040.6,259.8,1041,258.4,1041z"/>
<path class="st32" d="M401.5,1079c6.6,0.1,12.3-5.9,8.8-9.8l14.2,3.5c-0.2,0.5-0.4,1-0.6,1.5c-3.2,6.8-12.6,14-21.8,6.4
	c-0.2-0.2-0.5-0.3-0.8-0.3v-1.2H401.5z"/>
<circle class="st31" cx="401.3" cy="1084.4" r="1.8"/>
<circle class="st31" cx="401.3" cy="1089.9" r="1.8"/>
<path class="st31" d="M401.5,1077.8c6.6,0.1,12.1-5.7,8.6-9.6l14.5,3.3c-0.2,0.5-0.4,1-0.6,1.5c-3.2,6.8-12.6,14-21.8,6.4
	c-0.2-0.2-0.5-0.3-0.8-0.3v-1.2H401.5z"/>
<circle class="st4" cx="401.2" cy="1049.2" r="44.9"/>
<path class="st41" d="M436.5,1076l-3.1-0.7c-1-9.3-0.8-31.6-0.6-47.6c0.1-4.7-1-9.4-3.2-13.5c-15-12.5-36.4-13.7-52.8-3.2
	c-0.5,0.7-1,1.5-1.5,2.3c-6.7,11.2-9.1,26-8.5,32.7c1.1,11.7-4,19.7-1.8,26.9c0.2,0.6,0.5,1.3,0.8,1.8l0.9,1.8l0,0l0.1,0.2
	c0.6,1.2,1.3,2.3,2.1,3.4c0.5,0.5,1.1,1.1,1.6,1.6c0.5,0.4,1,0.7,1.6,1c18.4,16.1,46.4,14.2,62.4-4.2
	C435.2,1077.6,435.8,1076.8,436.5,1076z M394.3,1063.6c0,0.4,0,0.8,0,1.2s0,0.9-0.1,1.3c0,1.1-0.1,2.2-0.3,3.2
	c0,0.2-0.1,0.4-0.1,0.6c-0.2,0.9-0.5,1.8-1,2.6c0-0.1-0.1-0.3-0.1-0.4c0.1-0.8,0.5-1.5,1-2.2l-0.9,0.2c0.2-0.5,0.5-1,0.9-1.4
	l-1.8,0.4c-0.5-3.1-1.4-6.2-2.5-9.2C390.9,1061.2,392.5,1062.5,394.3,1063.6L394.3,1063.6z"/>
<path class="st13" d="M393.7,1053c1.3,1.5,4.3,2.5,7.8,2.5s6.5-1,7.8-2.5H393.7z"/>
<g class="st42">
	<circle class="st13" cx="397.8" cy="1046.1" r="0.8"/>
</g>
<path class="st34" d="M406.5,1001.9c7.8-2.8,25.2,5.5,25,25.2s-0.5,49,1.5,51.8s-19.5,3.8-19.5,3.8s-12.8-1.2-7.6-20.4
	c3.4-12.6,17.3-12.3,15.3-38.8"/>
<path class="st43" d="M410,1068.8c-0.1-0.7-0.2-1.4-0.2-2.2l0,0c-0.3-3.3-0.2-6.9-0.2-6.9l-0.1-0.2c-2.6,1-5.3,1.7-8,2.2H401
	c-2.7-0.5-5.4-1.3-8-2.2l-0.1,0.2c0,0,0.1,2.9-0.1,5.9c0,1.1-0.1,2.2-0.3,3.2c-0.2,1.2-0.5,2.3-1.1,3.3c0.5,3.2,4.8,6.3,9.7,6.2h0.3
	c4.9,0.1,9.1-3,9.7-6.2C410.5,1071.1,410.1,1070,410,1068.8z"/>
<path class="st44" d="M401.3,1065.6c-2.9,0-5.8-0.9-8.3-2.5c0,0.4,0,0.8,0,1.2c5.1,3.3,11.6,3.3,16.7,0c0-0.4,0-0.8,0-1.2
	C407.2,1064.7,404.3,1065.6,401.3,1065.6z"/>
<circle class="st34" cx="409.9" cy="1049.8" r="0.8"/>
<path class="st34" d="M422.5,1028.4c-0.5,0.8-1.5,1.2-2.4,0.8c-2.1-0.8-4.4-1.1-6.6-1.1c-1.4,0-2.8,0.1-4.2,0.4l0,0
	c-0.2-0.9,0.4-1.8,1.4-2c0,0,0.1,0,0.1,0c0.9-0.1,1.9-0.2,2.8-0.2C416.7,1026.3,419.7,1027,422.5,1028.4L422.5,1028.4z"/>
<path class="st12" d="M400.4,1079.3c0.2-0.2,0.5-0.3,0.8-0.3c0.3,0,0.6,0.1,0.8,0.3c9.2,7.6,18.6,0.4,21.8-6.4l13.1,3l0.1,0.1
	c-14.6,19.8-42.4,24-62.1,9.4c-3.6-2.7-6.8-5.9-9.5-9.5l0,0l13.2-3C381.8,1079.6,391.2,1086.8,400.4,1079.3z"/>
<ellipse class="st44" cx="401.5" cy="1055.1" rx="4" ry="1.4"/>
<path class="st11" d="M391.4,1035.7c0.4-0.5,0.7-1.2,0.6-1.8c0.3-1-0.4-2.1-1.4-2.3c-1-0.3-2.1,0.4-2.3,1.4c-0.1,0.3-0.1,0.6,0,1
	c0,0.5,0.2,1.1,0.5,1.5h0.2C389.7,1035.4,390.6,1035.5,391.4,1035.7z"/>
<path class="st11" d="M415.5,1035.4c0.3-0.5,0.5-1,0.5-1.6c0.3-1-0.4-2.1-1.4-2.3c-1-0.3-2.1,0.4-2.3,1.4c-0.1,0.3-0.1,0.6,0,1
	c0,0.6,0.2,1.2,0.5,1.7c0.6-0.1,1.3-0.2,1.9-0.2C415,1035.4,415.3,1035.4,415.5,1035.4z"/>
<path class="st45" d="M391.4,1035.7c-0.3,0.4-0.7,0.6-1.2,0.6c-0.6,0-1.1-0.3-1.4-0.9c-4.1,0.1-7.4,2.4-7.4,5.2
	c0,2.8,3.4,5.2,7.6,5.2s7.6-2.3,7.6-5.2C396.5,1038.3,394.4,1036.4,391.4,1035.7z"/>
<path class="st46" d="M390.1,1036.3c0.5,0,0.9-0.2,1.2-0.6c-0.8-0.2-1.6-0.3-2.4-0.3h-0.2C389,1035.9,389.5,1036.2,390.1,1036.3z"/>
<path class="st45" d="M415.5,1035.4c-0.3,0.5-0.8,0.8-1.4,0.8c-0.5,0-1-0.3-1.3-0.7c-3.3,0.6-5.7,2.6-5.7,5c0,2.9,3.4,5.2,7.6,5.2
	s7.6-2.3,7.6-5.2C422.4,1037.9,419.4,1035.7,415.5,1035.4z"/>
<path class="st46" d="M414.1,1036.3c0.6,0,1.1-0.3,1.4-0.8c-0.3,0-0.5,0-0.8,0c-0.6,0-1.3,0.1-1.9,0.2
	C413.1,1036,413.6,1036.3,414.1,1036.3z"/>
<path class="st43" d="M417.7,1007.5c-1.2,0.2-2.5,0.3-3.8,0.3c0,0-4.6,5.4-17.5,7.2c-5.7,0.8-7.1,5.9-8,11.4
	c0.7-0.1,1.4-0.1,2.1-0.1c0.9,0,1.9,0.1,2.8,0.2c0.9,0.1,1.6,1,1.5,1.9c0,0,0,0.1,0,0.1c-1.4-0.3-2.8-0.4-4.2-0.4
	c-0.8,0-1.6,0-2.4,0.1c-0.8,5.8-1.4,11.7-6,13.6c-5.4,2.1,2,6.9,6.5,16.9c0.2,0.5,0.5,1.1,0.7,1.7c3.5,3.2,7.6,5.2,11.9,5.2
	c13.8,0,25-20,25-37.5C426.3,1018.5,423,1011.7,417.7,1007.5z"/>
<path class="st32" d="M392.1,1082.5c-0.1,0.4-0.2,0.8-0.3,1.2c3.2,0.1,6.3-1.1,8.7-3.2c0.2-0.2,0.5-0.3,0.8-0.3v-1.2h-0.1
	c-0.3,0-0.5,0.1-0.7,0.3C398.1,1081.3,395.1,1082.5,392.1,1082.5z"/>
<path class="st32" d="M392.5,1069.4l-0.7,0.2c0,0.2,0.1,0.4,0.1,0.7C392.1,1069.9,392.3,1069.6,392.5,1069.4z"/>
<path class="st31" d="M401.1,1079L401.1,1079h0.1v-1.2h-0.1c-3.4,0.1-6.6-1.4-8.7-4c0,0.4,0.1,0.9,0.1,1.3
	C394.6,1077.7,397.8,1079.1,401.1,1079z"/>
<path class="st31" d="M392.5,1068.2l-0.9,0.2c0.1,0.3,0.1,0.6,0.2,0.9C392,1068.9,392.2,1068.5,392.5,1068.2z"/>
<path class="st31" d="M392.5,1075.1c0.2,2.5,0.1,5-0.4,7.4c3.1,0,6-1.2,8.4-3.2c0.2-0.2,0.4-0.3,0.7-0.3h0
	C397.8,1079.1,394.6,1077.6,392.5,1075.1z"/>
<path class="st34" d="M390.5,1028.1c1.4,0,2.8,0.1,4.2,0.4c0.2-0.9-0.4-1.8-1.4-2c0,0-0.1,0-0.1,0c-0.9-0.1-1.9-0.2-2.8-0.2
	c-0.7,0-1.4,0-2.1,0.1c-0.1,0.6-0.2,1.2-0.3,1.8C389,1028.2,389.8,1028.1,390.5,1028.1z"/>
<path class="st32" d="M364.9,1073.4c0.2,0.6,0.5,1.3,0.8,1.9c2.6,5.1,3.4,7.2,9,8.9c2.8,0.9,9.5,1.2,15.7,2.3
	c0.6-0.8,1.1-1.8,1.4-2.8c-5.9-0.2-11-5-13.1-9.6c-0.2-0.5-0.4-1-0.6-1.5l0.5-0.1c-0.2-0.4-0.3-0.8-0.5-1.1"/>
<path class="st41" d="M378,1071.4l13.6-3.1c-0.5-2.7-1.3-5.4-2.2-8c-7.8-7.1-13.1-20.3-13.1-32.3c0-17.5,11.2-25.9,25-25.9
	c6.3,0,12,1.7,16.4,5.3c0.3-0.1,0.6-0.1,0.9-0.2c2.5-0.7,2.1-2.5-14.9-7c-13.4-3.5-22.6,3.6-28.5,13.5c-6.7,11.2-9.1,26-8.5,32.7
	c1.1,11.7-4,19.7-1.8,26.9"/>
<path class="st47" d="M378.6,1072.9c0-0.1-0.1-0.2-0.1-0.3l-0.5,0.1c0.2,0.5,0.4,1,0.6,1.5c2.2,4.6,7.2,9.4,13.1,9.6
	c0.1-0.4,0.2-0.8,0.3-1.2C386,1082.4,380.8,1077.6,378.6,1072.9z"/>
<path class="st48" d="M392.5,1075.1c0-0.4-0.1-0.9-0.1-1.3c-0.1-1.2-0.3-2.3-0.5-3.5c0-0.2-0.1-0.4-0.1-0.7v-0.2
	c-0.1-0.3-0.1-0.6-0.2-0.9l-13.6,3.1c0.1,0.4,0.3,0.7,0.5,1.1c0,0.1,0.1,0.2,0.1,0.3c2.2,4.7,7.4,9.6,13.5,9.6
	C392.5,1080.1,392.7,1077.6,392.5,1075.1z"/>
<path class="st49" d="M382.4,1029.9c1.8-0.9,3.8-1.5,5.8-1.7c0.1-0.6,0.2-1.2,0.3-1.8c-2.4,0.2-4.8,0.8-6.9,1.9L382.4,1029.9z"/>
<path class="st34" d="M409.9,1007.6c0,0,22.2,3.3,13,43.7l2.3,7.7l3-23.3C428.2,1035.6,426.5,997.9,409.9,1007.6z"/>
<path class="st43" d="M426.3,1028.8c2.2-0.2,4,2,2.3,7.8s-3.2,5.6-3.2,5.6L426.3,1028.8z"/>
<path class="st31" d="M407.7,1052.6c0.1,4.2-11.7,4.2-11.8,0H407.7z"/>
<path class="st44" d="M407.1,1044.6c-1.7-2.4-2.6-5.2-2.6-8.1v-4.9c0-0.6-0.4-1.1-1-1.2c-1.1-0.1-2.3-0.1-3.4,0
	c-0.6,0.1-1,0.6-1,1.2v4.9c0,2.9-1,5.7-2.6,8.1l0,0c-0.1,0.1,0,0.2,0.1,0.3c0,0,0,0,0.1,0l5.2,1.9l5.2-1.8c0.1,0,0.2-0.2,0.2-0.3
	C407.2,1044.7,407.1,1044.6,407.1,1044.6z"/>
<path class="st32" d="M401.4,1079c6.6,0.1,12.3-5.9,8.8-9.8l14.2,3.5c-0.2,0.5-0.4,1-0.6,1.5c-3.2,6.8-12.6,14-21.8,6.4
	c-0.2-0.2-0.5-0.3-0.8-0.3v-1.2H401.4z"/>
<circle class="st31" cx="401.2" cy="1084.4" r="1.8"/>
<circle class="st31" cx="401.2" cy="1089.9" r="1.8"/>
<path class="st31" d="M401.4,1077.8c6.6,0.1,12.1-5.7,8.6-9.6l14.5,3.3c-0.2,0.5-0.4,1-0.6,1.5c-3.2,6.8-12.6,14-21.8,6.4
	c-0.2-0.2-0.5-0.3-0.8-0.3v-1.2H401.4z"/>
<path class="st4" d="M409.9,1068.3L409.9,1068.3c0.1,1.2,0.5,2.3,1,3.4C411.1,1070.5,410.8,1069.2,409.9,1068.3z"/>
<path class="st4" d="M392.7,1067.8l-0.2,0.4c0,0-0.7,0.9-0.7,1.2l0.2,1.6C392.4,1069.9,392.6,1068.8,392.7,1067.8z"/>
<circle class="st34" cx="409.5" cy="1049.8" r="0.8"/>
<path class="st34" d="M422.2,1028.4c-0.5,0.8-1.5,1.2-2.4,0.8c-2.1-0.8-4.4-1.1-6.6-1.1c-1.4,0-2.8,0.1-4.2,0.4l0,0
	c-0.2-0.9,0.4-1.8,1.4-2c0,0,0.1,0,0.1,0c0.9-0.1,1.9-0.2,2.8-0.2C416.3,1026.3,419.4,1027,422.2,1028.4L422.2,1028.4z"/>
<path class="st11" d="M391,1035.7c0.4-0.5,0.7-1.2,0.6-1.8c0.3-1-0.4-2.1-1.4-2.3c-1-0.3-2.1,0.4-2.3,1.4c-0.1,0.3-0.1,0.6,0,1
	c0,0.5,0.2,1.1,0.5,1.5h0.2C389.4,1035.4,390.2,1035.5,391,1035.7z"/>
<path class="st11" d="M415.2,1035.4c0.3-0.5,0.5-1,0.5-1.6c0.3-1-0.4-2.1-1.4-2.3c-1-0.3-2.1,0.4-2.3,1.4c-0.1,0.3-0.1,0.6,0,1
	c0,0.6,0.2,1.2,0.5,1.7c0.6-0.1,1.3-0.2,1.9-0.2C414.7,1035.4,414.9,1035.4,415.2,1035.4z"/>
<path class="st45" d="M391,1035.7c-0.3,0.4-0.7,0.6-1.2,0.6c-0.6,0-1.1-0.3-1.4-0.9c-4.1,0.1-7.4,2.4-7.4,5.2c0,2.8,3.4,5.2,7.6,5.2
	s7.6-2.3,7.6-5.2C396.2,1038.3,394,1036.4,391,1035.7z"/>
<path class="st46" d="M389.8,1036.3c0.5,0,0.9-0.2,1.2-0.6c-0.8-0.2-1.6-0.3-2.4-0.3h-0.2C388.7,1035.9,389.2,1036.2,389.8,1036.3z"
	/>
<path class="st45" d="M415.2,1035.4c-0.3,0.5-0.8,0.8-1.4,0.8c-0.5,0-1-0.3-1.3-0.7c-3.3,0.6-5.7,2.6-5.7,5c0,2.9,3.4,5.2,7.6,5.2
	s7.6-2.3,7.6-5.2C422,1037.9,419,1035.7,415.2,1035.4z"/>
<path class="st46" d="M413.8,1036.3c0.6,0,1.1-0.3,1.4-0.8c-0.3,0-0.5,0-0.8,0c-0.6,0-1.3,0.1-1.9,0.2
	C412.8,1036,413.3,1036.3,413.8,1036.3z"/>
<path class="st50" d="M382.2,1041.8c4.6-1.8,5.2-7.7,6-13.6c-2,0.2-4,0.8-5.8,1.7l-0.9-1.6c2.1-1.1,4.5-1.8,6.9-1.9
	c0.9-5.5,2.3-10.6,8-11.4c12.9-1.8,17.5-7.2,17.5-7.2c1.3,0,2.5-0.1,3.8-0.3c-4.4-3.5-10.1-5.3-16.4-5.3c-13.8,0-25,8.4-25,25.9
	c0,12,5.3,25.2,13.1,32.3c-0.2-0.6-0.5-1.2-0.7-1.7C384.2,1048.7,376.8,1043.9,382.2,1041.8z"/>
<path class="st34" d="M402.5,999.2c-13.4-3.5-22.6,3.6-28.5,13.5c-6.7,11.2-9.1,26-8.5,32.7c1.1,11.7-4,19.7-1.8,26.9
	c0.2,0.6,0.5,1.3,0.8,1.8c2.6,5.1,3.4,7.2,9,8.9c2.8,0.9,9.5,1.2,15.7,2.3c4.2-5.3,1.7-20.2-1.7-27.8c-4.5-10-11.9-14.8-6.5-16.9
	c9.5-3.8,2-25,14.2-26.8c12.9-1.8,17.5-7.2,17.5-7.2c1.6,0,3.1-0.2,4.6-0.5C419.9,1005.4,419.5,1003.6,402.5,999.2z"/>
<path class="st34" d="M409.5,1006.4c0,0,3,17.1,17,21.7C426.5,1028.1,429.5,996.8,409.5,1006.4z"/>
<circle class="st39" cx="366.5" cy="1079.6" r="14.6"/>
<path class="st31" d="M364.7,1084.8l-3.7-3.8c-0.2-0.2-0.2-0.5,0-0.7s0.5-0.2,0.7,0c0,0,0,0,0.1,0.1l2.8,2.9l6.6-8.8
	c0.1-0.2,0.4-0.3,0.7-0.2c0.2,0.1,0.3,0.4,0.2,0.7c0,0,0,0.1-0.1,0.1L364.7,1084.8z"/>
<circle class="st33" cx="259" cy="904.2" r="44.7"/>
<path class="st51" d="M258.7,949.2c14.3,0,27.8-6.9,36.2-18.5c-1.3-0.4-2.6-0.8-4-1.2c1.5-1,3-2.1,4.3-3.4c0-4.9-8.6-9.6-8.6-9.6
	c-2,4.2-1.3,9-0.7,11.9c-3.8-0.8-7.7-1.3-11.6-1.7l0,0c-1.4-1.1-3.1-1.9-4.8-2.4l0,0c-0.2-2-0.2-4.2-0.2-5.6c2.4-1,4.7-2.5,6.6-4.3
	c0.7-0.6,1.4-1.4,2.1-2.1c2.7,1.7,5.5,3.1,8.4,4.3c2.1-5.7,2.5-27.2,1.8-28.4c3.4,0.7,5.6,1,5.6,1c-0.8-6.3-2.8-12.5-5.7-18.1
	c-13.1-11.6-31.8-14.4-47.8-7.3c-7.1,7.7-11.8,28.2-11.8,28.2c1.1,0.4,2.3,0.5,3.5,0.3c-0.1,6.8,0.5,20.1,2.1,24.4
	c2.9-1.1,5.6-2.5,8.2-4.1c0.9,1,1.9,1.9,3,2.8c2.2,1.8,4.6,3.2,7.3,4.1c0,1.4-0.1,3.2-0.2,5h0c-1.7,0.5-3.2,1.3-4.6,2.3l0-0.1
	c-4.4,0.4-8.7,1.1-13,2.1c0.7-2.9,1.4-7.8-0.6-12.1c0,0-8.6,4.8-8.6,9.6c1.5,1.3,3,2.6,4.7,3.6c-2.1,0.6-4.2,1.3-6.2,2.1L224,932
	c1.5,2,3.1,4,4.9,5.7C237.1,945.1,247.7,949.2,258.7,949.2z"/>
<path class="st13" d="M231.2,886.2c-0.7,0.8-0.4,22.7,1.8,28.5c2.8-1,15.5-6.5,21.6-17.7S243.5,871.1,231.2,886.2z"/>
<path class="st52" d="M259,918.7c5.8,0,11.4-2.2,15.7-6.2c1-0.9,2-1.9,3-3.1c6.2-6.9,4-39.5,4-39.5c-6.9-3.6-14.6-5.5-22.5-5.5h-0.5
	c-7.8,0-15.6,1.8-22.5,5.5c0,0-2.2,32.6,4,39.5c1.2,1.4,2.6,2.7,4,3.9C248.4,916.8,253.6,918.7,259,918.7z"/>
<path class="st31" d="M272.1,866.3L272.1,866.3C272,866.3,272,866.3,272.1,866.3L272.1,866.3z"/>
<path class="st52" d="M268.4,881.8l-0.2-0.1c-7.4-3.3-14.6-7.9-18.8-14.4c-0.2,0.5-1.1,2.3-2,4.3c-1.2,2.7-2.5,5.4-4,7.9
	c-2,3.4-4.5,7-7.5,9.4c0.2,8.9,1.2,18.5,4.3,21.9c1.2,1.4,2.6,2.7,4,3.9c8.9,7.4,22,7.1,30.5-0.8c1-0.9,1.9-1.9,2.9-3l0.1-0.1
	c3.4-3.7,4.3-14.8,4.4-24.3C277.3,885.3,272.8,883.8,268.4,881.8z"/>
<path class="st13" d="M287.3,887.7c-1.6-0.3-3.3-0.7-5.2-1.2c-0.1,9.5-1,20.6-4.3,24.3l-0.1,0.1c2.4,1.5,5,2.8,7.6,3.8
	C287.1,909.8,287.6,892.9,287.3,887.7z"/>
<path class="st52" d="M281.7,871.4c-6.4-3.3-13.4-5.2-20.6-5.5c7.3,3.8,15.6,8.6,20.9,13.3C281.9,874.6,281.7,871.4,281.7,871.4z"/>
<path class="st53" d="M287,886.2c0.2,0.5,0.2,1,0.2,1.5l0,0c0-0.3,0-0.7-0.1-1c0-0.3,0-0.5-0.1-0.7l0,0c-0.6-2.2-2.5-4.5-5-6.8
	c0,0.8,0,1.7,0,2.6C283.9,883,285.6,884.5,287,886.2z"/>
<path class="st54" d="M236.2,871.4c6.9-3.6,14.6-5.5,22.5-5.5h0.5c0.6,0,1.3,0,1.9,0c-8.3-4.3-15.4-7.2-15.4-7.2
	c0.1,0.6,0.3,1.1,0.5,1.7c-0.9,0.1-1.8,0.4-2.6,0.8c-8.9,3.9-13.5,20.9-13.5,20.9c1.1,0.4,0.9,4.3,1.1,4c-0.2,0.2-0.3,2.3-0.3,5.3
	c1.9-0.3,3.6-1.1,5-2.3C235.6,879.8,236.2,871.4,236.2,871.4z"/>
<path class="st54" d="M282,881.8c0,1.5,0,3.1,0,4.7c1.9,0.5,3.7,0.9,5.2,1.2c0-0.5-0.1-1-0.2-1.5C285.6,884.5,283.9,883,282,881.8z"
	/>
<path class="st55" d="M243.4,879.6c1.5-2.6,2.8-5.2,4-7.9c0.9-2,1.8-3.8,2-4.3c4.2,6.5,11.4,11.2,18.8,14.4l0.2,0.1
	c4.1-2.7,9.5-2.7,13.6-0.1c0-0.9,0-1.7,0-2.6c-5.2-4.8-13.5-9.6-20.9-13.3c-0.6,0-1.3,0-1.9,0h-0.5c-7.8,0-15.6,1.9-22.5,5.5
	c0,0-0.6,8.4-0.3,17.6C238.8,886.6,241.4,883,243.4,879.6z"/>
<path class="st55" d="M282,881.8c-4.2-2.7-9.5-2.6-13.7,0.1c4.4,1.9,9,3.5,13.7,4.7C282,884.9,282,883.3,282,881.8z"/>
<path class="st4" d="M274.9,928.2c-0.1-1.4-0.8-2.6-1.9-3.4l0,0c9,0.8,16.9,2.5,22.6,4.7c-8.5,12.2-22.3,19.5-37.2,19.6
	c-15,0-27.8-7.7-35.9-19.1l0.1-0.1c5.8-2.4,14.4-4.4,23.8-5.3l0,0.1c-1.2,0.8-1.9,2.1-2,3.5c0,3.9,6.8,7,15.2,7
	S274.9,932.1,274.9,928.2z"/>
<path class="st52" d="M268.4,923.7c2.6,0.9,4.3,2.1,4.3,3.5c0,2.6-5.8,4.7-12.9,4.7s-13-2.1-13-4.7c0-1.4,1.7-2.7,4.4-3.5
	c0-0.4,0.1-0.8,0.1-1.2c0.1-1.8,0.2-3.7,0.2-5.1c2.3,0.8,4.7,1.2,7.2,1.2h0.6c3,0,6-0.6,8.7-1.8c0,1.4,0,3.6,0.2,5.7
	C268.2,922.9,268.3,923.3,268.4,923.7L268.4,923.7z"/>
<g class="st56">
	<path class="st55" d="M267.8,918.7c-2.7,1.3-5.7,1.9-8.7,1.8h-0.6c-2.4,0-4.9-0.4-7.2-1.2l0,0c0,0.2,0.6,0.5,0.8,0.6
		c0.4,0.2,0.8,0.4,1.2,0.6c0.8,0.4,1.6,0.6,2.5,0.8C259.6,922.3,264.9,922,267.8,918.7L267.8,918.7z"/>
</g>
<ellipse class="st57" cx="246.6" cy="895.5" rx="7.6" ry="5.2"/>
<ellipse class="st57" cx="271.9" cy="895.5" rx="7.6" ry="5.2"/>
<path class="st58" d="M268.4,923.7l0.2,0.1L268.4,923.7L268.4,923.7z"/>
<path class="st59" d="M259.8,935.2c-7.9,0-14.4-2.8-15.1-6.4c0,0.2-0.1,0.4-0.1,0.6c0,3.9,6.8,7,15.2,7s15.1-3.1,15.1-7
	c0-0.2,0-0.4-0.1-0.6C274.2,932.4,267.7,935.2,259.8,935.2z"/>
<path class="st55" d="M268.6,923.8l-0.2-0.1h-0.1l0,0h-0.1l0,0c0,0.4,0.1,0.9,0.1,1.3h0.1c2.2,0.7,3.8,1.8,4.2,2.9
	c0.1-0.2,0.1-0.4,0.1-0.6C272.7,925.8,271.1,924.6,268.6,923.8z"/>
<path class="st55" d="M246.8,927.2c0,0.2,0,0.4,0.1,0.6c0.4-1.1,2-2.2,4.2-2.9c0-0.4,0.1-0.8,0.1-1.2h0h-0.1l0,0
	C248.5,924.6,246.8,925.8,246.8,927.2z"/>
<path class="st12" d="M259.8,933.1c7.1,0,12.9-2.1,12.9-4.7c0-0.2,0-0.4-0.1-0.6c-0.8,2.3-6.2,4.1-12.8,4.1s-12-1.8-12.8-4.1
	c-0.1,0.2-0.1,0.4-0.1,0.6C246.8,931,252.6,933.1,259.8,933.1z"/>
<path class="st12" d="M246.7,926c1.4-1,2.9-1.8,4.5-2.3c0-0.4,0.1-0.8,0.1-1.2h0c-1.7,0.5-3.2,1.3-4.6,2.3c-1.2,0.8-1.9,2.1-2,3.5
	c0,0.2,0,0.4,0.1,0.6C245,927.7,245.7,926.7,246.7,926z"/>
<path class="st12" d="M268.4,923.7l0.2,0.1c1.6,0.5,3.1,1.3,4.4,2.3c0.9,0.7,1.6,1.7,1.8,2.8c0-0.2,0.1-0.4,0.1-0.6
	c-0.1-1.4-0.8-2.6-1.9-3.4c-1.4-1.1-3.1-1.9-4.8-2.4l0,0C268.3,922.9,268.3,923.3,268.4,923.7L268.4,923.7L268.4,923.7z"/>
<path class="st12" d="M268.4,923.7L268.4,923.7L268.4,923.7L268.4,923.7z"/>
<path class="st12" d="M259.8,935.2c7.9,0,14.4-2.8,15.1-6.4c-0.3-1.1-0.9-2.1-1.8-2.8c-1.3-1-2.8-1.8-4.4-2.3
	c2.5,0.9,4.1,2.1,4.1,3.4c-0.2,0.4-0.2,0.8,0,1.2c0,2.6-5.8,4.7-12.9,4.7s-13-2.1-13-4.7c0-0.2,0-0.4,0.1-0.6
	c-0.1-0.2-0.1-0.4-0.1-0.6c0-1.4,1.7-2.7,4.4-3.5l0,0c-1.6,0.5-3.2,1.2-4.5,2.3c-1,0.7-1.7,1.7-2,2.9
	C245.4,932.4,251.9,935.2,259.8,935.2z"/>
<path class="st52" d="M282.9,889.9c0,0,2.5-1.6,2.9,3.6c0.4,5.2-1.4,7.5-4,7.1C282.8,898.6,282.9,889.9,282.9,889.9z"/>
<path class="st59" d="M284.8,926.5c0.4,2.6,1,4.6,1,5.1c1.7,0.5,4.7-1.6,6.6-3.1C290,927.6,287.4,927,284.8,926.5z"/>
<g class="st38">
	<path class="st11" d="M228.3,928.1c2,1.5,4.5,3.1,6.1,2.7c0-0.4,0.6-2.1,1-4.5C232.8,926.9,230.5,927.5,228.3,928.1z"/>
</g>
<path class="st11" d="M273.8,888.4c-0.3,1-1.3,1.7-2.3,1.4c-1-0.3-1.7-1.3-1.4-2.3c0.2-0.8,1-1.4,1.8-1.4
	C273,886.2,273.9,887.2,273.8,888.4z"/>
<path class="st11" d="M250.2,888.4c-0.3,1-1.3,1.7-2.3,1.4c-1-0.3-1.7-1.3-1.4-2.3c0.2-0.8,1-1.4,1.8-1.4
	C249.5,886.2,250.4,887.2,250.2,888.4z"/>
<path class="st13" d="M241.2,884.5c-0.3,0-0.6-0.2-0.6-0.5c0-0.2,0.1-0.4,0.3-0.5c3.4-3,8.2-3.6,12.2-1.7c0.3,0.1,0.4,0.5,0.2,0.7
	c-0.1,0.3-0.5,0.4-0.7,0.2c-3.6-1.8-8-1.2-11,1.6C241.5,884.5,241.3,884.5,241.2,884.5z"/>
<path class="st13" d="M276.6,883.1c-0.1,0-0.2,0-0.2-0.1c-2.8-1.5-6.1-1.5-9-0.2c-0.3,0.1-0.6,0-0.7-0.2s0-0.6,0.2-0.7
	c3.2-1.6,6.9-1.5,10,0.1c0.3,0.2,0.3,0.5,0.2,0.7C276.9,882.9,276.8,883,276.6,883.1L276.6,883.1z"/>
<path class="st55" d="M260.9,893.6v-8.4h-3.4v8.4c-1.6,0.5-2.7,1.9-2.8,3.6c0,2.1,2,3.9,4.5,3.9s4.5-1.7,4.5-3.9
	C263.6,895.5,262.5,894,260.9,893.6z"/>
<path class="st13" d="M285.3,914.6c0,0,8.6,4.8,8.6,9.6c0,0-5.9,5.6-8.6,4.9C285.2,928.2,282.4,920.7,285.3,914.6z"/>
<path class="st13" d="M233,914.6c0,0-8.6,4.8-8.6,9.6c0,0,5.9,5.6,8.6,4.9C233.1,928.2,235.8,920.7,233,914.6z"/>
<path class="st13" d="M249.1,866.2c0,0-1,2.1-2.1,4.5c-0.8,1.7-9.7,22.9-19.6,19.3c0,0,6-26.6,14.9-30.6S249.1,866.2,249.1,866.2z"
	/>
<path class="st13" d="M244.4,857L244.4,857c0,0,41-17.3,48.3,30.2C292.7,887.2,251.1,882.4,244.4,857"/>
<circle class="st39" cx="224.1" cy="934.6" r="14.6"/>
<path class="st31" d="M222.6,939.6l-3.6-3.8c-0.2-0.2-0.2-0.5,0-0.7s0.5-0.2,0.7,0c0,0,0,0,0.1,0.1l2.8,2.9l6.6-8.8
	c0.1-0.2,0.4-0.3,0.7-0.2c0.2,0.1,0.3,0.4,0.2,0.7c0,0,0,0.1-0.1,0.1L222.6,939.6z"/>
<ellipse class="st55" cx="259" cy="908.5" rx="4" ry="1.4"/>
<path class="st13" d="M251.4,906.5c1.3,1.5,4.3,2.5,7.8,2.5s6.5-1,7.8-2.5H251.4z"/>
<path class="st52" d="M235.2,889.9c0,0-2.5-1.6-2.9,3.6c-0.4,5.2,1.4,7.5,4,7.1C235.4,898.6,235.2,889.9,235.2,889.9z"/>
<circle class="st9" cx="401.3" cy="902.5" r="44.7"/>
<path class="st60" d="M437.6,928.6c-6.3-2-12.8-3.3-19.3-3.9c-0.1-1.2-0.4-2.4-0.9-3.5c-1.8-0.8-3.7-1.4-5.6-1.9c0-1.1,0-2.1,0-2.9
	l0,0c6.5-3,10.1-9.5,12.1-16.7c0.3-1,0.5-2,0.7-3l0,0c0.8-2.9,1.2-6,1.3-9c0.1,0,0.2,0,0.3-0.1c0.3-0.5,0.5-1.1,0.7-1.7
	c0.3,4.8-2,13.8-2,13.8c2.6-0.6,4.4-7.5,4.7-10.5c0.3-2.4-1.2-3.8-2.3-3.8l-0.2,0.1c1-4,0.4-10,0.4-10.3s0.5,0.4,0.8,1
	c0.1,0.2,0.3,0.2,0.5,0.1c0.1,0,0.1-0.1,0.1-0.2c1-3.5,0.3-7.3-2-10.2c-15-10.5-34.9-10.7-50.2-0.6c-1.5,3.1-2.2,6.5-1.9,9.9
	c0,0.2,0.2,0.3,0.4,0.3c0.1,0,0.2-0.1,0.2-0.1l0.4-0.8c0.1-0.2,0.3-0.2,0.4-0.1c0.1,0.1,0.2,0.2,0.2,0.3c-0.5,3.2,0.1,4.4,0.3,4.6
	c0,0,0,0.1,0,0.1c0,2.1,0.3,4.1,0.7,6.2c-1.3,0.7-2,2.2-1.7,3.7c0.4,3,2.1,10,4.7,10.5l0.2-0.1c-0.9-3.2-1.5-6.5-1.8-9.8
	c0.1,0.3,0.2,0.5,0.3,0.7c0.1,0.1,0.3,0.2,0.5,0.1c0,0,0,0,0.1-0.1l0,0c0.3,3.1,0.9,6.2,1.7,9.2c2.1,7.7,6.2,14.6,13.6,17.3l0,0
	c0,0.6,0,1.4,0,2.2c-1.9,0.5-3.8,1.2-5.5,2.1c-0.5,1-0.8,2-0.9,3.1c-8.8,1-16.8,2.9-22.3,5.2l-0.1,0.1c1.5,2.1,3.3,4.2,5.2,6
	c18.3,16.5,46.6,15,63.1-3.3C435.6,931.3,436.6,930,437.6,928.6L437.6,928.6z"/>
<path class="st61" d="M424.3,865.7c-20.5-13-46.5,0.2-46.5,0.2l0.2,13.8c0,1.5,0,3,0.1,4.6c0.2,4.8,0.9,9.6,2.1,14.3
	c2.1,7.7,6.2,14.6,13.6,17.3c2.3,0.8,4.7,1.2,7.1,1.2h0.6c3,0,6-0.6,8.7-1.8c6.5-3,10.1-9.5,12.1-16.7c0.3-1,0.5-2,0.7-3l0,0
	C425.8,887.7,424.3,865.7,424.3,865.7z"/>
<g class="st42">
	<circle class="st62" cx="395.3" cy="898.4" r="0.8"/>
</g>
<g class="st42">
	<circle class="st62" cx="394.6" cy="901.5" r="0.8"/>
</g>
<g class="st42">
	<circle class="st62" cx="393" cy="899.3" r="0.8"/>
</g>
<g class="st42">
	<circle class="st62" cx="408.9" cy="898.1" r="0.8"/>
</g>
<g class="st42">
	<circle class="st62" cx="409.6" cy="901.2" r="0.8"/>
</g>
<g class="st42">
	<circle class="st62" cx="411.2" cy="899.1" r="0.8"/>
</g>
<path class="st11" d="M425.5,869.5L425.5,869.5c0,0.1,0,0.1,0,0.2C425.6,869.6,425.5,869.5,425.5,869.5z"/>
<path class="st11" d="M413.8,859.8h-0.2C413.7,859.9,413.7,859.9,413.8,859.8L413.8,859.8z"/>
<path class="st31" d="M424.1,869c0-0.1,0-0.2,0-0.2l0,0C424.1,868.8,424.1,868.8,424.1,869z"/>
<path class="st27" d="M415.4,923.2L415.4,923.2c9,0.8,16.9,2.5,22.7,4.7c-14.1,20.3-41.9,25.4-62.2,11.3c-4.2-2.9-7.9-6.6-10.9-10.7
	l0.1-0.1c5.8-2.4,14.4-4.4,23.9-5.3l0,0.1C387.7,924.1,416.6,924.2,415.4,923.2z"/>
<path class="st13" d="M414.4,859.7L414.4,859.7C414.5,859.7,414.4,859.7,414.4,859.7z"/>
<path class="st13" d="M412.4,859.1L412.4,859.1c-0.1,0-0.2,0-0.2,0L412.4,859.1z"/>
<path class="st13" d="M411,858.8c-0.1,0-0.1,0-0.2,0H411z"/>
<path class="st55" d="M398.5,913.5l7.4-0.3C405.9,913.2,401,915.4,398.5,913.5z"/>
<path class="st61" d="M410.8,922.1c2.6,0.9,4.3,2.1,4.3,3.5c0,2.6-5.8,4.7-13,4.7s-13-2.1-13-4.7c0-1.4,1.7-2.6,4.4-3.5
	c0-0.4,0.1-0.8,0.1-1.2c0.1-1.8,0.2-3.7,0.2-5.1c2.3,0.8,4.7,1.2,7.2,1.2h0.6c3,0,6-0.6,8.7-1.8c0,1.4,0,3.6,0.2,5.7
	c0,0.4,0.1,0.9,0.1,1.3L410.8,922.1z"/>
<path class="st61" d="M377.2,884.2c0.2,4.8,0.9,9.6,2.1,14.3l-0.2,0.1c-2.6-0.6-4.4-7.6-4.7-10.6c-0.3-2.6,1.5-4.1,2.7-3.8
	L377.2,884.2z"/>
<path class="st61" d="M425.9,884.1c1.2,0,2.6,1.5,2.3,3.8c-0.4,3-2.1,10-4.7,10.5c0,0,2.5-9.5,2-14.2L425.9,884.1z"/>
<path class="st63" d="M410.4,915.1c-2.7,1.3-5.7,1.9-8.7,1.8H401c-2.4,0-4.9-0.4-7.2-1.2l0,0c0,0.2,0.6,0.5,0.8,0.6
	c0.4,0.2,0.8,0.4,1.2,0.6c0.8,0.4,1.6,0.6,2.5,0.8C402.2,918.7,407.5,918.3,410.4,915.1L410.4,915.1z"/>
<path class="st11" d="M411.9,863.3c0-0.2-0.2-0.3-0.4-0.3c0,0-0.1,0-0.1,0c-3.7,1.9-7.7,3.5-11.8,4.5c-5.2,1.3-11.5,4.8-13.6,6.1
	c-0.2,0.2-0.6-0.1-0.5-0.3c0.3-0.9,0.8-1.7,1.6-2.2c0,0-7.5,3.4-8,17.1c0,0.1,0,0.1-0.1,0.2l-0.7,0.8c-0.1,0.1-0.3,0.2-0.5,0.1
	c0,0,0,0-0.1-0.1c-0.6-1.1-2.3-4.8-2.5-11.1c0,0,0-0.1,0-0.1c-0.2-0.2-0.8-1.4-0.3-4.6c0-0.2-0.1-0.3-0.3-0.3
	c-0.1,0-0.2,0.1-0.3,0.2l-0.4,0.8c-0.1,0.2-0.3,0.2-0.5,0.1c-0.1,0-0.1-0.1-0.1-0.2c-0.2-3-0.2-11.9,8.4-16c0.1-0.1,0.2-0.3,0.1-0.4
	c-0.1-0.1-0.1-0.1-0.3-0.1h-2.1c-0.2,0-0.3-0.1-0.3-0.3c0-0.1,0.1-0.2,0.2-0.3c2.1-1,6.9-3,9.8-2.4c0.1,0,0.2,0,0.3-0.1
	c1.2-0.9,10.8-8.1,25.2,3.4c0.1,0.1,0.2,0.1,0.3,0.1c1.1-0.4,6.9-2,10.6,5.2c0.1,0.1,0,0.3-0.1,0.4c-0.1,0-0.2,0-0.3,0l0,0
	c-0.3-0.1-0.6,0.2-0.4,0.4c1.5,1.7,4.3,5.8,2.7,11.1c-0.1,0.2-0.2,0.3-0.4,0.2c-0.1,0-0.1-0.1-0.2-0.1c-0.4-0.5-0.8-1.3-0.8-1
	c0,0.5,0.8,9.2-1.2,12.5c-0.1,0.1-0.2,0.2-0.3,0.1l-0.5-0.1c-0.2,0-0.3-0.1-0.3-0.3c0.1-1-0.1-5.1-6-12.9
	C412.9,866.8,412,864.2,411.9,863.3z"/>
<circle class="st4" cx="366.5" cy="934.6" r="14.6"/>
<path class="st31" d="M371.3,940.9c-0.1,0-0.3-0.1-0.4-0.2l-9.6-9.6c-0.2-0.2-0.2-0.5,0-0.7c0.2-0.2,0.5-0.2,0.7,0l9.6,9.6
	c0.2,0.2,0.2,0.5,0,0.7C371.5,940.8,371.4,940.9,371.3,940.9L371.3,940.9z"/>
<path class="st31" d="M361.7,940.9c-0.3,0-0.5-0.2-0.5-0.5c0-0.1,0.1-0.3,0.1-0.3l9.6-9.6c0.2-0.2,0.5-0.2,0.7,0
	c0.2,0.2,0.2,0.5,0,0.7l0,0l-9.6,9.6C362,940.8,361.8,940.9,361.7,940.9z"/>
<path class="st55" d="M399.1,885.4v6.3c0,0.4-0.1,0.8-0.2,1.1l-1.2,2.7c-0.5,1.2-0.2,2.6,0.9,3.3l1.3,1c0.5,0.4,1.1,0.6,1.7,0.6h1
	c0.6,0,1.3-0.2,1.8-0.6l1.1-0.9c1-0.8,1.3-2.1,0.8-3.3l-1.2-2.8c-0.2-0.4-0.2-0.7-0.2-1.1v-6.3c0-1.5-1.2-2.8-2.8-2.8l0,0
	C400.4,882.6,399.1,883.9,399.1,885.4C399.1,885.4,399.1,885.4,399.1,885.4z"/>
<path class="st36" d="M410.4,918c1.9,0.5,3.8,1.1,5.6,1.9l-5.2,4l-0.3,0.2L410.4,918z"/>
<path class="st36" d="M388.2,920.1c1.8-0.9,3.6-1.6,5.5-2.1l0,0v6.2l-0.3-0.2C393.5,924,388.3,920.1,388.2,920.1z"/>
<path class="st64" d="M388.2,921.8l5.3,3.9l0.3,0.2l5.1,3.8v0.4v6.5l-7.6-4.8c-1.4-0.8-2.6-2-3.4-3.5
	C387.1,926.2,387.1,923.8,388.2,921.8z"/>
<path class="st64" d="M416.3,927.9c-0.8,1.4-2,2.6-3.4,3.5l-7.5,4.9v-5.7v-1.2l0,0l0,0l5-3.8l0.3-0.2c0,0,5.2-4,5.2-4
	C417.2,923.4,417.3,925.8,416.3,927.9z"/>
<path class="st35" d="M402.4,908.9c-1.7,0-3.3-0.5-4.8-1.4c-0.2-0.1-0.3-0.4-0.2-0.6s0.4-0.3,0.6-0.2c5.1,3,8.3,0,8.5-0.1
	c0.2-0.2,0.4-0.2,0.6,0c0.2,0.2,0.2,0.4,0,0.6l0,0C405.8,908.3,404.1,908.9,402.4,908.9z"/>
<path class="st65" d="M404,883.3c-1.4-0.4-3-0.4-4.4,0l-0.3-1c1.6-0.5,3.4-0.5,5,0L404,883.3z"/>
<circle class="st66" cx="413.2" cy="887" r="9.8"/>
<circle class="st66" cx="390.2" cy="887" r="9.8"/>
<path class="st31" d="M416.3,926.4c-0.8,1.4-2,2.6-3.4,3.5l-7.5,4.9v-5.7v-1.2l0,0l0,0l5-3.8l0.3-0.2c0,0,5.2-4,5.2-4
	C417.2,921.9,417.3,924.3,416.3,926.4z"/>
<circle class="st4" cx="407.4" cy="930.9" r="0.9"/>
<path class="st31" d="M388.2,920.1l5.3,3.9l0.3,0.2l5.1,3.8v0.4v6.5l-7.5-4.9c-1.4-0.8-2.6-2-3.4-3.5
	C387.1,924.5,387.2,922.1,388.2,920.1z"/>
<circle class="st4" cx="397.1" cy="931" r="0.9"/>
<path class="st46" d="M407.7,883.3v1.2c0,0,7.2-2.1,11.3,1l-0.1-0.7C414,881,407.7,883.3,407.7,883.3z"/>
<path class="st46" d="M390.6,885.9c-1.8,0-3.2,1.5-3.2,3.2l0,0h6.5C393.8,887.4,392.4,885.9,390.6,885.9z"/>
<path class="st46" d="M413.7,885.9c-1.8,0-3.2,1.5-3.2,3.2l0,0h6.5C416.9,887.4,415.5,885.9,413.7,885.9z"/>
<path class="st46" d="M394.6,882.8l-0.5-0.1l0,0c-3.1-0.6-6.4,0.2-8.9,2.1l-0.1,0.7c1.9-1.3,4.1-1.9,6.4-1.7c1.6,0,3.2,0.2,4.7,0.6
	C395.7,883.9,395.2,883.3,394.6,882.8z"/>
<path class="st67" d="M423.2,886.8c-0.1-5.4-4.5-9.8-9.9-9.7c-4,0-7.6,2.5-9.1,6.3c3.9-3.8,10.1-3.6,13.9,0.3
	c2.6,2.7,3.4,6.7,2.1,10.2C422.2,892,423.2,889.5,423.2,886.8z"/>
<path class="st67" d="M390.7,877c-4.1,0-7.8,2.6-9.2,6.4c3.6-3.5,9.2-3.7,13.1-0.5c0.6,0.1,1.2,0.3,1.8,0.5v1.2l-0.2-0.1
	c2.1,2.7,2.6,6.3,1.4,9.4c3.9-3.8,4-10,0.2-13.9C395.9,878.1,393.4,877,390.7,877z"/>
<path class="st68" d="M396.3,883.3c-0.6-0.2-1.2-0.3-1.8-0.4c0.6,0.5,1.1,1,1.5,1.6l0.2,0V883.3z"/>
<path class="st65" d="M413.1,897.2c-5.7,0-10.3-4.6-10.3-10.3c0-5.7,4.6-10.3,10.3-10.3s10.3,4.6,10.3,10.3c0,0,0,0,0,0
	C423.5,892.5,418.9,897.1,413.1,897.2z M413.1,877.5c-5.2,0-9.3,4.2-9.3,9.3s4.2,9.3,9.3,9.3c5.2,0,9.3-4.2,9.3-9.3l0,0
	C422.5,881.7,418.3,877.5,413.1,877.5z"/>
<path class="st65" d="M390.5,897.2c-5.7,0-10.3-4.6-10.3-10.3c0-5.7,4.6-10.3,10.3-10.3s10.3,4.6,10.3,10.3c0,0,0,0,0,0
	C400.8,892.5,396.2,897.1,390.5,897.2z M390.5,877.5c-5.2,0-9.3,4.2-9.3,9.3s4.2,9.3,9.3,9.3c5.2,0,9.3-4.2,9.3-9.3l0,0
	C399.8,881.7,395.6,877.5,390.5,877.5z"/>
<polygon class="st9" points="51.4,940.9 4.2,940.9 4.2,957.4 4.2,1010.7 90.4,1010.7 "/>
<path class="st69" d="M36.1,974.2c6.1,7.9,19.7,3,33.4-1.1l-6.4-11.4c-11.9,5.1-21.4,8.9-27,1.5c-9.9-13.2-30.2-6.6-32-6v12.2
	C5.9,968.5,24.5,959.2,36.1,974.2z"/>
<path class="st11" d="M36.9,1010.6l-0.3-0.3c-2.4-2.2-4.6-4.5-6.7-7c-4.7-5.6-8.8-11.6-12.3-18.1c-1.2-2.2-3.9-3-6.1-1.9
	c0,0,0,0-0.1,0c2.2,6.9,5.1,13.6,8.7,19.9c1.3,2.3,2.7,4.7,4.4,7l0.2,0.3c0.8,1.1,1.5,2.2,2.4,3.3c3.5-0.6,7-1.6,10.3-2.9
	L36.9,1010.6z"/>
<path class="st12" d="M40.8,1008.9c-0.6,0.5-1.3,1-2.1,1.4l-0.6,0.3l-0.8,0.4c-3.3,1.3-6.8,2.3-10.3,2.9c-1,0.2-2,0.4-3,0.5
	c-11.1,1.9-21.6,6.2-15,18.6s15.3,21.2,11.8,23.9c-2.4,1.9-11.8-4.6-16.5-16.5v26.4c2.8,1.9,5.8,4.6,6.1,6.5h12l15.6-47.7l3.6-11.1
	l1.3-3.9l0.1-0.3l0.2-0.7c-0.2-0.8-1-1.3-1.7-1.1C41.2,1008.6,41,1008.7,40.8,1008.9z M25.7,1039.2c-2,1.9-8.5-4.7-6.4-7.9
	c2.1-3.2,2.8,0.4,5,3.4C24.3,1034.6,27.6,1037.2,25.7,1039.2z"/>
<path class="st14" d="M32.4,1073.3c-0.4-0.4-0.5-0.9-0.4-1.4c1.1-5.4,24-3.5,32.1-19.2c3.2-6.3-3.8-15.8-7-19.7
	c-0.5-0.6-1.4-0.7-2-0.2c-0.2,0.1-0.3,0.3-0.4,0.5c-7.5,15.9-19,20.2-19.7,17c-0.7-3.2,3.9-8,9.8-11.8c5.8-3.8,9.4-10.9,3.6-18.4
	c-2.5-3.1-4.3-6.7-5.3-10.6l-20.8,63.7L32.4,1073.3z"/>
<path class="st31" d="M162.8,970.6c0,0,3.6,8.4-4.1,19.3c0,0-0.6,8-1.7,11.2l0,0c-4.7,5.3-16.6,6.6-29,2.6c-2.2-0.7-4.4-1.6-6.5-2.6
	c2.3-2.8,4.3-5.9,5.9-9.2c1.8-3.5,1.7-7.6-0.1-11.1c-1.9-4.1,2.3-8.1,2.5-8.3l0,0c4.3,1.6,8.9,2.3,13.5,2.3c3.9-0.1,7.6-1.8,10-4.9
	c1.2,1.1,2.6,1.9,4.2,2.2C159.3,972.4,161.3,971.9,162.8,970.6L162.8,970.6z"/>
<path class="st24" d="M127.7,981.3c-0.1-0.2-0.2-0.5-0.4-0.7c-0.8-1.4-2.1-2.6-3.5-3.3c-2.2-1.1-4.8-1.2-7.2-0.3
	c-2.9,1.1-5.2,3.2-6.6,6l-1.2,2.4l-8.6,17.8l-2.9,5.9l-0.5,1.1l-0.1,0.3l-2.9,6l-4.4,9l-1.7,3.6l-0.5,1c0,0,0.6-0.4,1.6-1
	c1.2-0.8,3-2,5.3-3.6l0.4-0.3l2.9-2.3l12.7-10.1l0.1-0.1l0,0c0.9-0.8,1.8-1.7,2.8-2.6l1.1-1.1c1.1-1,2.1-2.1,3.1-3.2
	c0.8-0.9,1.7-1.8,2.5-2.8c0.7-0.8,1.3-1.5,1.9-2.3c2.3-2.8,4.3-5.9,5.9-9.2C129.1,988.5,129.2,984.6,127.7,981.3z"/>
<path class="st24" d="M120.3,1018.3c-1.1-1.5-2.6-2.7-4.1-3.6c-1.8-1.1-3.9-1.7-6-1.8c0,0-4.6,10.4-11.5,12.4l0.2,0.4l2,3.6l4.4,7.8
	c2.2-2.4,4.5-5,6.8-7.8l1.3-1.6l0.2-0.1c0.7,0.2,1.5,0.3,2.3,0.3h0.5c1,0,2-0.1,2.9-0.4l0,0c0.3-0.1,0.6-0.2,1-0.3
	c0.9-0.4,1.8-0.8,2.6-1.4c0.2-0.2,0.4-0.3,0.6-0.5C122.9,1022.6,121.9,1020.3,120.3,1018.3z"/>
<path class="st27" d="M93.8,1016.5l-4.4,9l-1.7,3.6l-0.5,1c0,0,0.6-0.4,1.6-1c1.2-0.8,3-2,5.3-3.6l0.4-0.3l2.9-2.3L93.8,1016.5z"/>
<path class="st70" d="M97.5,1023.1l-0.1-0.2l-2.9,2.3c1.4,0.3,2.8,0.3,4.2-0.1L97.5,1023.1z"/>
<path class="st71" d="M128.7,960.1c11.7,2.3,11.1-3.5,11.1-3.5c-4.3-4-7.3,1.2-7.3,1.2l-5,1l0,0C128,959.1,128.4,959.6,128.7,960.1z
	 M136.1,956.5c0.7,0,1.3,0.6,1.3,1.3c0,0.7-0.6,1.3-1.3,1.3c-0.7,0-1.3-0.6-1.3-1.3C134.8,957.1,135.3,956.5,136.1,956.5
	L136.1,956.5z"/>
<circle class="st7" cx="136.1" cy="957.9" r="1.3"/>
<path class="st7" d="M125.4,961.5l4,0c-0.1-0.5-0.3-1-0.6-1.4c-0.3-0.5-0.7-1-1.2-1.3c-0.8-0.5-1.7-0.7-2.6-0.6h-0.5
	c-0.3,0.8-0.5,1.7-0.3,2.5C124.2,961.2,124.8,961.6,125.4,961.5z"/>
</svg>
