<?xml version="1.0" encoding="utf-8"?>
<!-- Generator: Adobe Illustrator 16.0.0, SVG Export Plug-In . SVG Version: 6.00 Build 0)  -->
<!DOCTYPE svg PUBLIC "-//W3C//DTD SVG 1.1//EN" "http://www.w3.org/Graphics/SVG/1.1/DTD/svg11.dtd">
<svg version="1.1" id="artwork" xmlns="http://www.w3.org/2000/svg" xmlns:xlink="http://www.w3.org/1999/xlink" x="0px" y="0px"
	 width="168.75px" height="50px" viewBox="0 0 168.75 50" enable-background="new 0 0 168.75 50" xml:space="preserve">
<g>
	<g>
		<path d="M162.5,50H6.25C2.812,50,0,47.188,0,43.75V6.25C0,2.812,2.812,0,6.25,0H162.5c3.438,0,6.25,2.812,6.25,6.25v37.5
			C168.75,47.188,165.938,50,162.5,50z"/>
	</g>
	<g>
		<path fill="#FFFFFF" stroke="#FFFFFF" stroke-width="0.2" stroke-miterlimit="10" d="M59.273,12.804
			c0,1.048-0.31,1.882-0.931,2.504c-0.706,0.74-1.625,1.109-2.755,1.109c-1.083,0-2.003-0.375-2.76-1.125
			c-0.758-0.751-1.137-1.682-1.137-2.792c0-1.111,0.378-2.041,1.137-2.792c0.757-0.75,1.677-1.126,2.76-1.126
			c0.537,0,1.051,0.105,1.54,0.314c0.488,0.21,0.88,0.489,1.173,0.838l-0.659,0.66c-0.497-0.594-1.18-0.89-2.053-0.89
			c-0.79,0-1.472,0.277-2.048,0.833s-0.864,1.276-0.864,2.163s0.288,1.607,0.864,2.163s1.259,0.833,2.048,0.833
			c0.837,0,1.536-0.279,2.095-0.837c0.363-0.364,0.573-0.87,0.629-1.519h-2.724v-0.901h3.634
			C59.256,12.434,59.273,12.622,59.273,12.804z"/>
		<path fill="#FFFFFF" stroke="#FFFFFF" stroke-width="0.2" stroke-miterlimit="10" d="M65.035,9.672h-3.416v2.378h3.08v0.9h-3.08
			v2.378h3.416v0.922h-4.378v-7.5h4.378V9.672z"/>
		<path fill="#FFFFFF" stroke="#FFFFFF" stroke-width="0.2" stroke-miterlimit="10" d="M69.099,16.25h-0.965V9.672H66.04V8.75h5.154
			v0.922h-2.095V16.25z"/>
		<path fill="#FFFFFF" stroke="#FFFFFF" stroke-width="0.2" stroke-miterlimit="10" d="M74.923,16.25v-7.5h0.963v7.5H74.923z"/>
		<path fill="#FFFFFF" stroke="#FFFFFF" stroke-width="0.2" stroke-miterlimit="10" d="M80.16,16.25h-0.964V9.672h-2.095V8.75h5.153
			v0.922H80.16V16.25z"/>
		<path fill="#FFFFFF" stroke="#FFFFFF" stroke-width="0.2" stroke-miterlimit="10" d="M92.012,15.281
			c-0.737,0.758-1.654,1.136-2.75,1.136c-1.097,0-2.014-0.378-2.749-1.136c-0.737-0.757-1.104-1.685-1.104-2.781
			s0.367-2.023,1.104-2.781c0.735-0.758,1.652-1.137,2.749-1.137c1.09,0,2.004,0.381,2.745,1.142
			c0.739,0.761,1.109,1.687,1.109,2.776C93.116,13.596,92.748,14.523,92.012,15.281z M87.225,14.653
			c0.555,0.562,1.233,0.843,2.037,0.843c0.803,0,1.482-0.281,2.037-0.843c0.556-0.562,0.834-1.28,0.834-2.153
			s-0.278-1.591-0.834-2.153c-0.555-0.562-1.234-0.843-2.037-0.843c-0.804,0-1.482,0.281-2.037,0.843s-0.833,1.28-0.833,2.153
			S86.67,14.091,87.225,14.653z"/>
		<path fill="#FFFFFF" stroke="#FFFFFF" stroke-width="0.2" stroke-miterlimit="10" d="M94.469,16.25v-7.5h1.174l3.645,5.834h0.041
			l-0.041-1.445V8.75h0.965v7.5h-1.006l-3.814-6.117h-0.041l0.041,1.445v4.672H94.469z"/>
	</g>
	<path fill="#FFFFFF" d="M85.17,27.189c-2.94,0-5.337,2.235-5.337,5.316c0,3.061,2.396,5.316,5.337,5.316s5.337-2.255,5.337-5.316
		C90.507,29.425,88.11,27.189,85.17,27.189z M85.17,35.728c-1.611,0-3.001-1.329-3.001-3.222c0-1.913,1.39-3.222,3.001-3.222
		s3,1.309,3,3.222C88.17,34.399,86.781,35.728,85.17,35.728z M73.527,27.189c-2.939,0-5.336,2.235-5.336,5.316
		c0,3.061,2.396,5.316,5.336,5.316c2.941,0,5.338-2.255,5.338-5.316C78.865,29.425,76.469,27.189,73.527,27.189z M73.527,35.728
		c-1.61,0-3-1.329-3-3.222c0-1.913,1.39-3.222,3-3.222c1.611,0,3.001,1.309,3.001,3.222C76.528,34.399,75.139,35.728,73.527,35.728z
		 M59.68,28.821v2.255h5.397c-0.161,1.269-0.584,2.195-1.229,2.839c-0.786,0.786-2.014,1.651-4.168,1.651
		c-3.323,0-5.92-2.678-5.92-6.001s2.598-6.001,5.92-6.001c1.792,0,3.101,0.705,4.068,1.611l1.591-1.591
		c-1.35-1.289-3.142-2.275-5.659-2.275c-4.552,0-8.378,3.706-8.378,8.257c0,4.551,3.826,8.256,8.378,8.256
		c2.457,0,4.31-0.806,5.759-2.315c1.49-1.491,1.954-3.585,1.954-5.277c0-0.523-0.04-1.006-0.121-1.409H59.68z M116.314,30.572
		c-0.443-1.188-1.792-3.383-4.551-3.383c-2.739,0-5.015,2.155-5.015,5.316c0,2.98,2.256,5.316,5.276,5.316
		c2.437,0,3.846-1.49,4.431-2.356l-1.812-1.208c-0.604,0.886-1.43,1.47-2.618,1.47c-1.188,0-2.034-0.543-2.577-1.611l7.108-2.94
		L116.314,30.572z M109.064,32.345c-0.06-2.054,1.592-3.101,2.78-3.101c0.927,0,1.711,0.463,1.974,1.127L109.064,32.345z
		 M103.286,37.5h2.335V21.873h-2.335V37.5z M99.459,28.378h-0.08c-0.523-0.625-1.531-1.188-2.799-1.188
		c-2.659,0-5.096,2.336-5.096,5.337c0,2.98,2.437,5.296,5.096,5.296c1.268,0,2.275-0.564,2.799-1.208h0.08v0.765
		c0,2.035-1.088,3.122-2.839,3.122c-1.43,0-2.315-1.027-2.679-1.893l-2.033,0.846c0.583,1.41,2.134,3.142,4.712,3.142
		c2.739,0,5.055-1.611,5.055-5.539v-9.545h-2.216V28.378z M96.781,35.728c-1.611,0-2.961-1.349-2.961-3.202
		c0-1.873,1.35-3.242,2.961-3.242c1.59,0,2.839,1.369,2.839,3.242C99.62,34.379,98.371,35.728,96.781,35.728z M127.257,21.873
		h-5.588V37.5H124v-5.92h3.257c2.586,0,5.127-1.872,5.127-4.853S129.843,21.873,127.257,21.873z M127.318,29.405H124v-5.356h3.318
		c1.743,0,2.732,1.444,2.732,2.678C130.051,27.938,129.062,29.405,127.318,29.405z M141.732,27.161
		c-1.688,0-3.438,0.744-4.162,2.393l2.07,0.864c0.442-0.864,1.268-1.146,2.132-1.146c1.206,0,2.433,0.723,2.452,2.01v0.161
		c-0.422-0.241-1.326-0.603-2.433-0.603c-2.231,0-4.503,1.226-4.503,3.518c0,2.091,1.83,3.438,3.881,3.438
		c1.566,0,2.433-0.704,2.975-1.528h0.08v1.207h2.252v-5.991C146.477,28.708,144.405,27.161,141.732,27.161z M141.45,35.725
		c-0.763,0-1.829-0.382-1.829-1.327c0-1.206,1.327-1.669,2.474-1.669c1.024,0,1.508,0.221,2.13,0.522
		C144.044,34.7,142.798,35.725,141.45,35.725z M154.679,27.502l-2.673,6.775h-0.081l-2.774-6.775h-2.512l4.161,9.469l-2.373,5.267
		h2.433l6.414-14.736H154.679z M133.671,37.5h2.331V21.873h-2.331V37.5z"/>
	<g>
		
			<linearGradient id="SVGID_1_" gradientUnits="userSpaceOnUse" x1="27.2505" y1="171.1133" x2="6.2725" y2="150.1353" gradientTransform="matrix(1 0 0 -1 0 182)">
			<stop  offset="0" style="stop-color:#00A0FF"/>
			<stop  offset="0.0066" style="stop-color:#00A1FF"/>
			<stop  offset="0.2601" style="stop-color:#00BEFF"/>
			<stop  offset="0.5122" style="stop-color:#00D2FF"/>
			<stop  offset="0.7604" style="stop-color:#00DFFF"/>
			<stop  offset="1" style="stop-color:#00E3FF"/>
		</linearGradient>
		<path fill="url(#SVGID_1_)" d="M13.044,9.423c-0.364,0.384-0.579,0.982-0.579,1.756v27.645c0,0.775,0.215,1.372,0.579,1.756
			l0.092,0.09l15.486-15.486v-0.183v-0.182L13.137,9.332L13.044,9.423z"/>
		
			<linearGradient id="SVGID_2_" gradientUnits="userSpaceOnUse" x1="42.292" y1="156.999" x2="12.0472" y2="156.999" gradientTransform="matrix(1 0 0 -1 0 182)">
			<stop  offset="0" style="stop-color:#FFE000"/>
			<stop  offset="0.4087" style="stop-color:#FFBD00"/>
			<stop  offset="0.7754" style="stop-color:#FFA500"/>
			<stop  offset="1" style="stop-color:#FF9C00"/>
		</linearGradient>
		<path fill="url(#SVGID_2_)" d="M33.785,30.348l-5.162-5.164v-0.183v-0.182l5.163-5.163l0.116,0.066l6.116,3.476
			c1.747,0.992,1.747,2.616,0,3.609l-6.116,3.476L33.785,30.348z"/>
		
			<linearGradient id="SVGID_3_" gradientUnits="userSpaceOnUse" x1="31.0342" y1="154.1299" x2="2.5864" y2="125.6821" gradientTransform="matrix(1 0 0 -1 0 182)">
			<stop  offset="0" style="stop-color:#FF3A44"/>
			<stop  offset="1" style="stop-color:#C31162"/>
		</linearGradient>
		<path fill="url(#SVGID_3_)" d="M33.902,30.281l-5.279-5.28L13.044,40.58c0.576,0.609,1.526,0.685,2.598,0.077L33.902,30.281"/>
		
			<linearGradient id="SVGID_4_" gradientUnits="userSpaceOnUse" x1="9.1226" y1="181.7793" x2="21.8255" y2="169.0764" gradientTransform="matrix(1 0 0 -1 0 182)">
			<stop  offset="0" style="stop-color:#32A071"/>
			<stop  offset="0.0685" style="stop-color:#2DA771"/>
			<stop  offset="0.4762" style="stop-color:#15CF74"/>
			<stop  offset="0.8009" style="stop-color:#06E775"/>
			<stop  offset="1" style="stop-color:#00F076"/>
		</linearGradient>
		<path fill="url(#SVGID_4_)" d="M33.902,19.721L15.642,9.346c-1.071-0.608-2.022-0.533-2.598,0.077l15.579,15.578L33.902,19.721z"
			/>
		<g>
			<path opacity="0.2" enable-background="new    " d="M33.786,30.165L15.642,40.474c-1.015,0.576-1.922,0.538-2.505,0.014l0,0
				l-0.093,0.093l0,0l0.092,0.09l0-0.001c0.583,0.525,1.49,0.564,2.505-0.013l18.26-10.375L33.786,30.165z"/>
			<path opacity="0.12" enable-background="new    " d="M13.044,40.398c-0.364-0.385-0.579-0.982-0.579-1.756v0.182
				c0,0.774,0.215,1.372,0.579,1.756l0.093-0.093L13.044,40.398z"/>
		</g>
		<path opacity="0.12" enable-background="new    " d="M40.019,26.624l-6.232,3.542l0.116,0.116l6.116-3.475
			c0.873-0.497,1.31-1.151,1.31-1.804l0,0C41.255,25.593,40.811,26.173,40.019,26.624z"/>
		<path opacity="0.25" fill="#FFFFFF" enable-background="new    " d="M15.642,9.529l24.376,13.85c0.792,0.45,1.236,1.03,1.31,1.622
			l0,0c0-0.653-0.436-1.309-1.31-1.805L15.642,9.346c-1.748-0.992-3.176-0.167-3.176,1.833v0.183
			C12.466,9.361,13.895,8.536,15.642,9.529z"/>
	</g>
</g>
</svg>
