<?xml version="1.0" encoding="UTF-8" standalone="no"?>
<svg width="18px" height="18px" viewBox="0 0 18 18" version="1.1" xmlns="http://www.w3.org/2000/svg" xmlns:xlink="http://www.w3.org/1999/xlink">
    <!-- Generator: Sketch 39.1 (31720) - http://www.bohemiancoding.com/sketch -->
    <title>Fill 1</title>
    <desc>Created with Sketch.</desc>
    <defs></defs>
    <g id="Page-1" stroke="none" stroke-width="1" fill="none" fill-rule="evenodd">
        <g id="Teachers-Copy-5" transform="translate(-750.000000, -2742.000000)" fill="#5FC4BB">
            <g id="Learn-More-Section" transform="translate(118.000000, 2585.000000)">
                <g id="Parents" transform="translate(527.000000, 105.000000)">
                    <g id="Rollover">
                        <path d="M117.463,52 C115.908,52 114.509,52.919 113.634,54.435 C112.765,52.919 111.364,52 109.799,52 C107.325,52 105.272,53.964 105.024,56.569 C105.008,56.739 105,56.912 105,57.085 C105,60.742 107.597,63.159 109.888,65.292 C111.199,66.512 112.438,67.665 113.056,68.905 C113.165,69.124 113.388,69.263 113.631,69.263 C113.874,69.263 114.097,69.124 114.206,68.905 C114.824,67.665 116.062,66.512 117.374,65.292 C119.665,63.159 122.262,60.742 122.262,57.085 C122.262,56.912 122.254,56.738 122.238,56.569 L122.238,56.569 C121.99,53.964 119.937,52 117.463,52 M117.463,53.5 C119.159,53.5 120.57,54.881 120.745,56.712 C120.756,56.834 120.762,56.96 120.762,57.085 C120.762,60.089 118.52,62.176 116.352,64.194 C115.342,65.134 114.372,66.036 113.631,67.016 C112.89,66.036 111.92,65.134 110.91,64.193 C108.742,62.175 106.5,60.089 106.5,57.085 C106.5,56.96 106.505,56.835 106.517,56.711 C106.691,54.88 108.102,53.5 109.799,53.5 C110.797,53.5 111.72,54.113 112.333,55.181 L113.188,56.672 C113.384,57.014 113.877,57.015 114.074,56.673 L114.933,55.185 C115.551,54.114 116.473,53.5 117.463,53.5" id="Fill-1"></path>
                    </g>
                </g>
            </g>
        </g>
    </g>
</svg>