<?xml version="1.0" encoding="UTF-8" standalone="no"?>
<svg width="17px" height="21px" viewBox="0 0 17 21" version="1.1" xmlns="http://www.w3.org/2000/svg" xmlns:xlink="http://www.w3.org/1999/xlink">
    <!-- Generator: Sketch 39.1 (31720) - http://www.bohemiancoding.com/sketch -->
    <title>Fill 1</title>
    <desc>Created with Sketch.</desc>
    <defs></defs>
    <g id="Page-1" stroke="none" stroke-width="1" fill="none" fill-rule="evenodd">
        <g id="Teachers-Copy-5" transform="translate(-223.000000, -2739.000000)" fill="#5D60A5">
            <g id="Learn-More-Section" transform="translate(118.000000, 2585.000000)">
                <g id="Teachers" transform="translate(0.000000, 105.000000)">
                    <g id="Rollover">
                        <path d="M120.185,61.8568408 C119.693,65.7368408 116.358,68.1118408 114.706,68.1118408 C114.205,68.1118408 114.017,67.9868408 113.788,67.8338408 L113.341,67.5928408 L112.934,67.8648408 C112.752,67.9868408 112.565,68.1118408 112.063,68.1118408 C110.412,68.1118408 107.078,65.7368408 106.584,61.8568408 C106.529,61.4188408 106.5,60.9638408 106.5,60.5078408 C106.5,58.0948408 108.272,56.2058408 110.534,56.2058408 C111.228,56.2058408 111.866,56.4418408 112.527,56.9398408 L113.385,57.6168408 L114.23,56.9508408 C114.905,56.4418408 115.542,56.2058408 116.236,56.2058408 C118.498,56.2058408 120.269,58.0948408 120.269,60.5078408 C120.269,60.9638408 120.241,61.4188408 120.185,61.8568408 M116.549,50.5538408 C116.536,51.1468408 116.334,51.7178408 115.965,52.1958408 C115.553,52.7288408 114.976,53.0888408 114.325,53.2248408 C114.357,51.9388408 115.275,50.8208408 116.549,50.5538408 M116.236,54.7058408 C115.508,54.7058408 114.816,54.8838408 114.135,55.2418408 L114.135,54.7588408 C114.189,54.7548408 114.242,54.7568408 114.296,54.7498408 C115.435,54.6028408 116.45,54.0218408 117.152,53.1138408 C117.854,52.2048408 118.161,51.0768408 118.014,49.9338408 C117.999,49.8198408 117.977,49.7078408 117.955,49.5958408 L117.832,49.0168408 L117.241,49.0008408 C117.019,48.9978408 116.801,49.0018408 116.578,49.0298408 C115.439,49.1758408 114.424,49.7558408 113.722,50.6658408 C113.382,51.1058408 113.139,51.5988408 112.991,52.1178408 C112.439,51.6548408 111.738,51.3648408 110.962,51.3648408 L110.962,52.8648408 C111.885,52.8648408 112.635,53.6148408 112.635,54.5378408 L112.635,55.2408408 C111.958,54.8848408 111.264,54.7058408 110.534,54.7058408 C107.431,54.7058408 105,57.2538408 105,60.5078408 C105,61.0278408 105.033,61.5448408 105.096,62.0458408 C105.684,66.6648408 109.615,69.6118408 112.063,69.6118408 C112.651,69.6118408 113.06,69.4948408 113.384,69.3358408 C113.71,69.4948408 114.12,69.6118408 114.706,69.6118408 C117.156,69.6118408 121.087,66.6648408 121.673,62.0458408 C121.737,61.5448408 121.769,61.0278408 121.769,60.5078408 C121.769,57.2538408 119.338,54.7058408 116.236,54.7058408" id="Fill-1"></path>
                    </g>
                </g>
            </g>
        </g>
    </g>
</svg>