<?xml version="1.0" encoding="UTF-8" standalone="no"?>
<svg width="110px" height="16px" viewBox="0 0 110 16" version="1.1" xmlns="http://www.w3.org/2000/svg" xmlns:xlink="http://www.w3.org/1999/xlink">
    <!-- Generator: Sketch 39.1 (31720) - http://www.bohemiancoding.com/sketch -->
    <title>Page 1</title>
    <desc>Created with Sketch.</desc>
    <defs>
        <polygon id="path-1" points="0 15.0841165 109.897888 15.0841165 109.897888 0.0490973204 0 0.0490973204"></polygon>
    </defs>
    <g id="Page-1" stroke="none" stroke-width="1" fill="none" fill-rule="evenodd">
        <g id="Teachers-Copy-10" transform="translate(-209.000000, -434.000000)">
            <g id="Group-2" transform="translate(118.000000, 434.000000)">
                <g id="Group-3">
                    <g id="Page-1" transform="translate(91.000000, 0.000000)">
                        <polygon id="Fill-1" fill="#FFFFFF" points="0.0476140808 14.8868399 2.62910039 14.8868399 2.62910039 10.1053229 0.0476140808 10.1053229"></polygon>
                        <polygon id="Fill-2" fill="#FFFFFF" points="4.15877445 14.8868399 6.74026076 14.8868399 6.74026076 5.07728404 4.15877445 5.07728404"></polygon>
                        <polygon id="Fill-3" fill="#FFFFFF" points="8.1265189 14.8868399 10.7080052 14.8868399 10.7080052 7.59130346 8.1265189 7.59130346"></polygon>
                        <g id="Group-21" transform="translate(0.000000, 0.098786)">
                            <path d="M2.72490222,6.58057892 C2.72490222,7.35652362 2.11495437,7.98547212 1.36245111,7.98547212 C0.609947849,7.98547212 0,7.35652362 0,6.58057892 C0,5.80463422 0.609947849,5.17568572 1.36245111,5.17568572 C2.11495437,5.17568572 2.72490222,5.80463422 2.72490222,6.58057892 L2.72490222,6.58057892 Z" id="Fill-4" fill="#FFFFFF"></path>
                            <path d="M6.81202608,1.45394616 C6.81202608,2.22989086 6.20207823,2.85883936 5.44957497,2.85883936 C4.69707171,2.85883936 4.08712386,2.22989086 4.08712386,1.45394616 C4.08712386,0.67800146 4.69707171,0.0490529553 5.44957497,0.0490529553 C6.20207823,0.0490529553 6.81202608,0.67800146 6.81202608,1.45394616" id="Fill-6" fill="#FFFFFF"></path>
                            <path d="M10.7797562,3.96796558 C10.7797562,4.74391028 10.1698083,5.37285878 9.41730508,5.37285878 C8.66480183,5.37285878 8.05485398,4.74391028 8.05485398,3.96796558 C8.05485398,3.19202088 8.66480183,2.56307237 9.41730508,2.56307237 C10.1698083,2.56307237 10.7797562,3.19202088 10.7797562,3.96796558" id="Fill-9" fill="#FFFFFF"></path>
                            <mask id="mask-2" fill="white">
                                <use xlink:href="#path-1"></use>
                            </mask>
                            <g id="Clip-12"></g>
                            <path d="M15.1452934,14.9102055 L17.1846675,14.9102055 L17.1846675,5.73373887 L15.1452934,5.73373887 L15.1452934,14.9102055 Z M15.0609648,4.32603588 L17.252073,4.32603588 L17.252073,2.32739045 L15.0609648,2.32739045 L15.0609648,4.32603588 Z" id="Fill-11" fill="#FFFFFF" mask="url(#mask-2)"></path>
                            <polygon id="Fill-13" fill="#FFFFFF" mask="url(#mask-2)" points="20.0833038 2.74451063 22.1563807 2.74451063 22.1563807 8.86215506 27.7691056 2.74451063 30.3309439 2.74451063 25.4094837 7.97588927 30.54994 14.9102942 28.0219478 14.9102942 23.9936819 9.43564725 22.1563807 11.3822377 22.1563807 14.9102942 20.0833038 14.9102942"></polygon>
                            <polygon id="Fill-14" fill="#FFFFFF" mask="url(#mask-2)" points="32.319176 2.74451063 41.0666858 2.74451063 41.0666858 4.65620057 34.3922529 4.65620057 34.3922529 7.81928065 40.3083025 7.81928065 40.3083025 9.73111848 34.3922529 9.73111848 34.3922529 12.9984564 41.1510143 12.9984564 41.1510143 14.9102942 32.319176 14.9102942"></polygon>
                            <polygon id="Fill-15" fill="#FFFFFF" mask="url(#mask-2)" points="43.6113572 2.74451063 52.358867 2.74451063 52.358867 4.65620057 45.6844342 4.65620057 45.6844342 7.81928065 51.6004837 7.81928065 51.6004837 9.73111848 45.6844342 9.73111848 45.6844342 12.9984564 52.4431956 12.9984564 52.4431956 14.9102942 43.6113572 14.9102942"></polygon>
                            <path d="M59.386691,9.07071515 C60.9542269,9.07071515 61.9317497,8.16699911 61.9317497,6.89830661 L61.9317497,6.86355399 C61.9317497,5.43840075 60.9374472,4.69099756 59.386691,4.69099756 L56.9764433,4.69099756 L56.9764433,9.07071515 L59.386691,9.07071515 Z M54.9033664,2.744555 L59.5553481,2.744555 C62.3194029,2.744555 64.0386728,4.36077372 64.0386728,6.81135111 L64.0386728,6.84610374 C64.0386728,9.5747021 61.91497,10.9998553 59.3192855,10.9998553 L56.9764433,10.9998553 L56.9764433,14.9103386 L54.9033664,14.9103386 L54.9033664,2.744555 Z" id="Fill-16" fill="#FFFFFF" mask="url(#mask-2)"></path>
                            <path d="M65.3696871,13.1375852 L66.6168318,11.6081741 C67.7460887,12.616148 68.8922686,13.1897881 70.3417731,13.1897881 C71.622764,13.1897881 72.4317731,12.564093 72.4317731,11.6602291 L72.4317731,11.6254765 C72.4317731,10.7565131 71.9597914,10.2872787 69.7688266,9.76598941 C67.2573272,9.14029434 65.8415254,8.3754409 65.8415254,6.13352711 L65.8415254,6.09877449 C65.8415254,4.01317356 67.5270926,2.57071795 69.8699348,2.57071795 C71.5890613,2.57071795 72.9542373,3.10945752 74.1508996,4.10012906 L73.0385658,5.71634777 C71.9767145,4.89958723 70.9148631,4.46510552 69.8362321,4.46510552 C68.6226467,4.46510552 67.9147458,5.10810296 67.9147458,5.90756113 L67.9147458,5.94231376 C67.9147458,6.88078242 68.454133,7.29796176 70.7294263,7.85415158 C73.2240026,8.47984665 74.5048501,9.40086506 74.5048501,11.4169607 L74.5048501,11.4517134 C74.5048501,13.7285277 72.7689439,15.0841757 70.2911473,15.0841757 C68.4876923,15.0841757 66.7854889,14.4410303 65.3696871,13.1375852" id="Fill-17" fill="#FFFFFF" mask="url(#mask-2)"></path>
                            <path d="M83.8418996,10.0787482 L81.802382,5.21234603 L79.7799309,10.0787482 L83.8418996,10.0787482 Z M80.8753416,2.65751077 L82.7968279,2.65751077 L87.9880535,14.9102499 L85.7970887,14.9102499 L84.6002829,11.9731358 L79.0214042,11.9731358 L77.8079622,14.9102499 L75.684116,14.9102499 L80.8753416,2.65751077 Z" id="Fill-18" fill="#FFFFFF" mask="url(#mask-2)"></path>
                            <polygon id="Fill-19" fill="#FFFFFF" mask="url(#mask-2)" points="90.0100456 2.74451063 98.7912581 2.74451063 98.7912581 4.69110108 92.0831226 4.69110108 92.0831226 8.01049401 98.0328748 8.01049401 98.0328748 9.95708446 92.0831226 9.95708446 92.0831226 14.9102942 90.0100456 14.9102942"></polygon>
                            <polygon id="Fill-20" fill="#FFFFFF" mask="url(#mask-2)" points="101.066093 2.74451063 109.813602 2.74451063 109.813602 4.65620057 103.139169 4.65620057 103.139169 7.81928065 109.055219 7.81928065 109.055219 9.73111848 103.139169 9.73111848 103.139169 12.9984564 109.897931 12.9984564 109.897931 14.9102942 101.066093 14.9102942"></polygon>
                        </g>
                    </g>
                </g>
            </g>
        </g>
    </g>
</svg>