<svg width="128" height="110" viewBox="0 0 128 110" xmlns="http://www.w3.org/2000/svg" xmlns:sketch="http://www.bohemiancoding.com/sketch/ns"><title>Fill 7</title><desc>Created with Sketch.</desc><path d="M128 44.413c0-12.808-9.535-23.577-22.522-26.875-7.753-10.467-22.46-17.538-39.342-17.538-20.723 0-38.173 10.651-43.493 25.165-13.197 4.995-22.643 18.362-22.643 34.076 0 19.979 15.268 36.175 34.104 36.175 6.661 0 12.87-2.033 18.122-5.535l1.615 15.764c.372 3.627 4.736 4.899 6.803 1.986l14.77-20.818c1.126.189 2.27.315 3.447.315 9.316 0 17.255-6.179 20.424-14.874 16.039-1.005 28.716-13.069 28.716-27.841" sketch:type="MSShapeGroup" fill="#000"/></svg>