<?xml version="1.0" encoding="UTF-8" standalone="no"?>
<svg width="38px" height="37px" viewBox="0 0 38 37" version="1.1" xmlns="http://www.w3.org/2000/svg" xmlns:xlink="http://www.w3.org/1999/xlink">
    <!-- Generator: Sketch 3.8.3 (29802) - http://www.bohemiancoding.com/sketch -->
    <title>Page 1</title>
    <desc>Created with Sketch.</desc>
    <defs></defs>
    <g id="Page-1" stroke="none" stroke-width="1" fill="none" fill-rule="evenodd">
        <g id="Teachers-Copy-5" transform="translate(-118.000000, -2049.000000)" fill="#5D60A5">
            <g id="Section-3" transform="translate(118.000000, 1937.000000)">
                <g id="Copy" transform="translate(0.000000, 112.000000)">
                    <path d="M18.9778941,32.3544996 C18.5458026,33.4682935 17.7232214,34.3145121 16.6623753,34.7380941 C15.6005837,35.1635671 14.4224961,35.1162923 13.3408491,34.6085612 C12.5806707,34.2502183 11.9443521,33.6838665 11.4602583,32.9879817 L19.2227774,29.8839196 C19.3523103,30.7216287 19.2813982,31.5706837 18.9778941,32.3544996 L18.9778941,32.3544996 Z M6.15508239,33.0721308 C5.38261247,33.3803624 4.53733938,33.3680709 3.77526991,33.0437659 C3.01130944,32.715679 2.42132017,32.1105618 2.1130886,31.3380918 C1.73583584,30.3954327 1.84362234,29.3241861 2.40241026,28.4741856 L17.0481375,6.20587263 C17.1228316,6.68429341 17.2249452,7.18918807 17.3875704,7.74419401 C17.3970254,7.77728635 17.4093168,7.8094332 17.4216083,7.84063456 L17.5265583,8.16493956 C17.6154349,8.43440581 17.7109299,8.70859954 17.8158799,8.98184778 L17.9293394,9.26171448 C18.8436337,11.5488684 20.3006424,14.0383584 22.0327904,16.2706736 C23.4472519,18.0945346 24.9014241,19.6432564 26.3565419,20.8724008 C27.8872993,22.1658388 29.2573225,22.9250718 30.437301,23.3618907 L6.15508239,33.0721308 Z M21.3189412,1.90954051 C23.8793434,2.17427928 27.3408029,4.82355802 30.5772344,8.99697571 C35.727349,15.6371915 35.9476495,20.4100534 34.4566029,21.679854 C34.3696173,21.7536027 34.2542669,21.8254603 34.1691723,21.8698986 L34.1559353,21.8755716 C33.9866916,21.9360833 31.5236755,22.7605555 27.5771768,19.4286289 C26.2222815,18.2836337 24.8607678,16.832298 23.527619,15.1124414 C21.900421,13.0153321 20.5351253,10.6875219 19.6832338,8.55637475 L19.5839568,8.30865489 C19.4875162,8.06093504 19.4024216,7.81605167 19.323,7.57400479 C19.321109,7.56927732 19.2917986,7.48134622 19.2899076,7.47661874 L19.2038675,7.20053402 C19.1944126,7.17122366 19.1859031,7.14285879 19.1745571,7.11543942 C18.5817314,5.03913102 18.8256693,3.76460292 19.099863,3.08573706 L19.6113761,2.30948516 C20.0179392,1.97005223 20.5909096,1.83484635 21.3189412,1.90954051 L21.3189412,1.90954051 Z M35.6914202,23.1113344 C38.0740692,21.0719003 37.9568277,15.426346 32.0711175,7.83685258 C28.4716156,3.19636005 24.6234484,0.349472726 21.5127678,0.0289497089 C20.2675501,-0.0977467048 19.1773936,0.192520452 18.3718314,0.87800478 C18.3037557,0.935680013 18.2404075,0.999973715 18.1761138,1.06615841 L18.1685498,1.06048544 L18.1430214,1.09925076 C18.0692728,1.17772689 17.9955241,1.2628215 17.9161025,1.35831656 C17.7808966,1.53512424 17.6069254,1.80459049 17.4424092,2.16482433 L0.821541574,27.4360314 C-0.0757337739,28.8022726 -0.249704969,30.5240201 0.357303222,32.0405951 C0.85274293,33.2810853 1.80202054,34.2549458 3.03021935,34.7806414 C3.66370142,35.0529441 4.33122133,35.18815 4.99968674,35.18815 C5.62844133,35.18815 6.25719592,35.0680721 6.85758564,34.8279162 L9.66759864,33.7046674 C10.3559195,34.8430441 11.3401804,35.7563929 12.5362324,36.3189628 C13.3843419,36.7179619 14.2778353,36.9193525 15.1675467,36.9193525 C15.9135427,36.9193525 16.6557568,36.7784737 17.363933,36.494825 C18.9173823,35.8736343 20.1162708,34.646381 20.7402979,33.0390385 C21.2187187,31.8070577 21.3085408,30.4644539 21.0211101,29.1643974 L35.7557139,23.2730141 L35.6914202,23.1113344 Z" id="Page-1"></path>
                </g>
            </g>
        </g>
    </g>
</svg>