<?xml version="1.0" encoding="utf-8"?>
<!-- Generator: Adobe Illustrator 16.0.0, SVG Export Plug-In . SVG Version: 6.00 Build 0)  -->
<!DOCTYPE svg PUBLIC "-//W3C//DTD SVG 1.1//EN" "http://www.w3.org/Graphics/SVG/1.1/DTD/svg11.dtd">
<svg version="1.1" id="Layer_1" xmlns="http://www.w3.org/2000/svg" xmlns:xlink="http://www.w3.org/1999/xlink" x="0px" y="0px"
	 width="174.234px" height="50px" viewBox="0 0 174.234 50" enable-background="new 0 0 174.234 50" xml:space="preserve">
<g>
	<path fill="#010101" d="M174.234,44.987c0,2.77-2.242,5.013-5.02,5.013H5.024C2.251,50,0,47.757,0,44.987V5.018
		C0,2.25,2.251,0,5.024,0h164.191c2.777,0,5.018,2.251,5.018,5.018L174.234,44.987L174.234,44.987z"/>
	<g>
		<g>
			<path fill="#FFFFFF" d="M38.262,24.725c-0.038-4.218,3.453-6.27,3.613-6.365c-1.978-2.883-5.043-3.276-6.12-3.308
				c-2.574-0.271-5.071,1.54-6.382,1.54c-1.337,0-3.356-1.514-5.533-1.47c-2.8,0.043-5.421,1.665-6.857,4.183
				c-2.966,5.134-0.754,12.678,2.087,16.828c1.42,2.033,3.082,4.302,5.255,4.222c2.126-0.088,2.921-1.355,5.487-1.355
				c2.542,0,3.289,1.355,5.505,1.304c2.283-0.036,3.72-2.041,5.091-4.091c1.643-2.329,2.302-4.625,2.328-4.742
				C42.684,31.452,38.305,29.78,38.262,24.725z"/>
			<path fill="#FFFFFF" d="M34.074,12.322c1.144-1.431,1.926-3.376,1.708-5.351c-1.655,0.073-3.725,1.145-4.917,2.543
				c-1.055,1.233-1.997,3.254-1.753,5.154C30.971,14.807,32.88,13.73,34.074,12.322z"/>
		</g>
	</g>
	<g>
		<path fill="#FFFFFF" d="M69.037,40.062h-2.972l-1.628-5.115h-5.659l-1.55,5.115h-2.894l5.605-17.416h3.462L69.037,40.062z
			 M63.946,32.801l-1.472-4.547c-0.155-0.465-0.447-1.558-0.878-3.28h-0.053c-0.171,0.741-0.447,1.835-0.826,3.28l-1.446,4.547
			H63.946z"/>
		<path fill="#FFFFFF" d="M83.455,33.628c0,2.138-0.577,3.824-1.732,5.064c-1.034,1.103-2.317,1.653-3.85,1.653
			c-1.655,0-2.842-0.593-3.566-1.781h-0.052v6.615h-2.791V31.638c0-1.342-0.035-2.719-0.103-4.133h2.454l0.155,1.991h0.052
			c0.931-1.5,2.343-2.249,4.237-2.249c1.481,0,2.718,0.585,3.708,1.756C82.96,30.176,83.455,31.717,83.455,33.628z M80.612,33.731
			c0-1.221-0.276-2.229-0.828-3.023c-0.603-0.826-1.414-1.24-2.429-1.24c-0.688,0-1.313,0.231-1.873,0.685
			c-0.56,0.457-0.926,1.056-1.098,1.797c-0.086,0.345-0.13,0.626-0.13,0.85v2.095c0,0.912,0.281,1.682,0.84,2.312
			c0.561,0.63,1.288,0.944,2.183,0.944c1.051,0,1.869-0.405,2.454-1.213C80.319,36.126,80.612,35.059,80.612,33.731z"/>
		<path fill="#FFFFFF" d="M97.899,33.628c0,2.138-0.58,3.824-1.734,5.064c-1.032,1.103-2.314,1.653-3.848,1.653
			c-1.655,0-2.842-0.593-3.564-1.781h-0.053v6.615h-2.79V31.638c0-1.342-0.036-2.719-0.103-4.133h2.454l0.156,1.991h0.052
			c0.929-1.5,2.341-2.249,4.237-2.249c1.479,0,2.716,0.585,3.708,1.756C97.401,30.176,97.899,31.717,97.899,33.628z M95.055,33.731
			c0-1.221-0.276-2.229-0.828-3.023c-0.603-0.826-1.41-1.24-2.429-1.24c-0.689,0-1.312,0.231-1.873,0.685
			C89.365,30.61,89,31.209,88.828,31.95c-0.086,0.345-0.13,0.626-0.13,0.85v2.095c0,0.912,0.279,1.682,0.838,2.312
			c0.56,0.627,1.287,0.944,2.185,0.944c1.049,0,1.868-0.405,2.454-1.213C94.762,36.126,95.055,35.059,95.055,33.731z"/>
		<path fill="#FFFFFF" d="M114.046,35.179c0,1.482-0.513,2.686-1.546,3.617c-1.134,1.017-2.715,1.525-4.744,1.525
			c-1.875,0-3.375-0.362-4.514-1.086l0.648-2.324c1.223,0.74,2.568,1.112,4.032,1.112c1.051,0,1.869-0.237,2.457-0.713
			c0.586-0.473,0.877-1.108,0.877-1.902c0-0.706-0.24-1.302-0.724-1.786c-0.48-0.482-1.282-0.931-2.402-1.345
			c-3.048-1.137-4.572-2.804-4.572-4.995c0-1.431,0.534-2.606,1.603-3.519c1.065-0.914,2.486-1.371,4.263-1.371
			c1.585,0,2.9,0.276,3.95,0.827l-0.695,2.274c-0.981-0.533-2.092-0.8-3.334-0.8c-0.981,0-1.748,0.242-2.297,0.724
			c-0.464,0.431-0.697,0.956-0.697,1.578c0,0.687,0.265,1.257,0.798,1.705c0.466,0.412,1.309,0.86,2.535,1.344
			c1.5,0.604,2.598,1.309,3.306,2.116C113.694,32.966,114.046,33.975,114.046,35.179z"/>
		<path fill="#FFFFFF" d="M123.27,29.599h-3.074v6.096c0,1.551,0.542,2.326,1.628,2.326c0.498,0,0.913-0.043,1.239-0.129
			l0.077,2.118c-0.549,0.205-1.273,0.308-2.17,0.308c-1.101,0-1.962-0.334-2.583-1.007s-0.93-1.799-0.93-3.385v-6.329h-1.833v-2.094
			h1.833v-2.301l2.74-0.827v3.128h3.074V29.599z"/>
		<path fill="#FFFFFF" d="M137.146,33.68c0,1.931-0.553,3.515-1.654,4.754c-1.156,1.276-2.689,1.912-4.602,1.912
			c-1.843,0-3.311-0.61-4.405-1.832c-1.093-1.224-1.64-2.766-1.64-4.626c0-1.945,0.563-3.539,1.691-4.779
			c1.125-1.24,2.647-1.861,4.559-1.861c1.843,0,3.325,0.612,4.444,1.834C136.611,30.271,137.146,31.802,137.146,33.68z
			 M134.25,33.77c0-1.157-0.247-2.152-0.747-2.98c-0.586-1.002-1.422-1.5-2.505-1.5c-1.12,0-1.975,0.501-2.56,1.5
			c-0.501,0.831-0.747,1.84-0.747,3.033c0,1.158,0.247,2.15,0.747,2.978c0.604,1.003,1.445,1.503,2.536,1.503
			c1.063,0,1.9-0.511,2.505-1.528C133.992,35.932,134.25,34.927,134.25,33.77z"/>
		<path fill="#FFFFFF" d="M146.215,29.958c-0.275-0.051-0.568-0.076-0.88-0.076c-0.98,0-1.74,0.37-2.274,1.112
			c-0.465,0.655-0.697,1.481-0.697,2.479v6.589h-2.789l0.026-8.603c0-1.447-0.035-2.766-0.105-3.953h2.431l0.102,2.402h0.077
			c0.296-0.826,0.76-1.491,1.395-1.989c0.622-0.448,1.294-0.672,2.017-0.672c0.259,0,0.491,0.018,0.699,0.051V29.958L146.215,29.958
			z"/>
		<path fill="#FFFFFF" d="M158.692,33.189c0,0.5-0.033,0.921-0.102,1.265h-8.371c0.034,1.24,0.438,2.19,1.214,2.843
			c0.705,0.585,1.617,0.878,2.739,0.878c1.237,0,2.37-0.196,3.387-0.593l0.437,1.935c-1.188,0.519-2.59,0.775-4.209,0.775
			c-1.947,0-3.476-0.572-4.59-1.718c-1.108-1.145-1.663-2.683-1.663-4.61c0-1.894,0.516-3.471,1.551-4.728
			c1.084-1.344,2.55-2.014,4.391-2.014c1.81,0,3.182,0.67,4.111,2.014C158.322,30.304,158.692,31.623,158.692,33.189z
			 M156.032,32.466c0.018-0.828-0.163-1.541-0.541-2.143c-0.483-0.777-1.226-1.166-2.225-1.166c-0.913,0-1.654,0.379-2.222,1.138
			c-0.464,0.603-0.739,1.328-0.827,2.169h5.814V32.466L156.032,32.466z"/>
	</g>
	<g>
		<g>
			<path fill="#FFFFFF" d="M63.023,11.933c0,1.541-0.462,2.7-1.384,3.479c-0.854,0.717-2.069,1.078-3.642,1.078
				c-0.78,0-1.448-0.035-2.007-0.102V7.972c0.729-0.117,1.514-0.178,2.363-0.178c1.498,0,2.627,0.326,3.389,0.977
				C62.596,9.509,63.023,10.562,63.023,11.933z M61.577,11.972c0-0.999-0.264-1.765-0.793-2.299c-0.529-0.532-1.301-0.8-2.318-0.8
				c-0.432,0-0.799,0.029-1.104,0.088v6.398c0.169,0.026,0.478,0.038,0.927,0.038c1.049,0,1.859-0.292,2.43-0.876
				C61.29,13.94,61.577,13.088,61.577,11.972z"/>
			<path fill="#FFFFFF" d="M70.691,13.279c0,0.949-0.271,1.726-0.813,2.335c-0.568,0.627-1.321,0.94-2.26,0.94
				c-0.906,0-1.627-0.3-2.165-0.902c-0.537-0.601-0.805-1.358-0.805-2.271c0-0.956,0.276-1.74,0.831-2.348
				c0.555-0.609,1.301-0.913,2.24-0.913c0.906,0,1.633,0.299,2.184,0.9C70.428,11.603,70.691,12.357,70.691,13.279z M69.268,13.323
				c0-0.569-0.123-1.057-0.367-1.463c-0.289-0.492-0.698-0.738-1.23-0.738c-0.551,0-0.97,0.246-1.258,0.738
				c-0.246,0.407-0.368,0.902-0.368,1.489c0,0.569,0.124,1.058,0.368,1.465c0.297,0.492,0.71,0.738,1.244,0.738
				c0.524,0,0.936-0.25,1.23-0.751C69.142,14.384,69.268,13.893,69.268,13.323z"/>
			<path fill="#FFFFFF" d="M80.972,10.245l-1.931,6.169h-1.256l-0.799-2.679c-0.204-0.668-0.368-1.333-0.497-1.993h-0.025
				c-0.119,0.678-0.284,1.341-0.496,1.993l-0.85,2.679h-1.271l-1.814-6.169h1.41l0.697,2.933c0.168,0.694,0.307,1.355,0.418,1.98
				h0.025c0.102-0.516,0.271-1.173,0.51-1.967l0.875-2.943h1.118l0.838,2.881c0.203,0.703,0.368,1.38,0.495,2.031h0.039
				c0.092-0.635,0.232-1.311,0.419-2.031l0.748-2.881h1.347L80.972,10.245L80.972,10.245z"/>
			<path fill="#FFFFFF" d="M88.081,16.414H86.71v-3.533c0-1.089-0.414-1.633-1.243-1.633c-0.407,0-0.736,0.149-0.991,0.45
				c-0.252,0.3-0.38,0.653-0.38,1.057v3.659h-1.371v-4.405c0-0.542-0.017-1.129-0.05-1.765h1.205l0.064,0.964h0.039
				c0.16-0.299,0.397-0.547,0.71-0.745c0.371-0.229,0.788-0.346,1.243-0.346c0.576,0,1.055,0.186,1.436,0.559
				c0.475,0.457,0.709,1.139,0.709,2.044L88.081,16.414L88.081,16.414z"/>
			<path fill="#FFFFFF" d="M91.863,16.414h-1.37V7.415h1.37V16.414z"/>
			<path fill="#FFFFFF" d="M99.937,13.279c0,0.949-0.27,1.726-0.812,2.335c-0.567,0.627-1.322,0.94-2.259,0.94
				c-0.907,0-1.629-0.3-2.165-0.902c-0.538-0.601-0.806-1.358-0.806-2.271c0-0.956,0.277-1.74,0.83-2.348
				c0.556-0.609,1.302-0.913,2.24-0.913c0.907,0,1.633,0.299,2.187,0.9C99.673,11.603,99.937,12.357,99.937,13.279z M98.514,13.323
				c0-0.569-0.123-1.057-0.368-1.463c-0.286-0.492-0.698-0.738-1.228-0.738c-0.553,0-0.971,0.246-1.259,0.738
				c-0.246,0.407-0.367,0.902-0.367,1.489c0,0.569,0.124,1.058,0.367,1.465c0.297,0.492,0.711,0.738,1.245,0.738
				c0.524,0,0.934-0.25,1.229-0.751C98.39,14.384,98.514,13.893,98.514,13.323z"/>
			<path fill="#FFFFFF" d="M106.575,16.414h-1.232l-0.102-0.71h-0.037c-0.422,0.567-1.022,0.85-1.804,0.85
				c-0.581,0-1.052-0.187-1.407-0.559c-0.322-0.337-0.484-0.756-0.484-1.256c0-0.753,0.315-1.328,0.947-1.726
				c0.63-0.397,1.517-0.593,2.66-0.583v-0.115c0-0.812-0.426-1.219-1.283-1.219c-0.608,0-1.145,0.153-1.607,0.456l-0.277-0.9
				c0.572-0.355,1.28-0.532,2.116-0.532c1.613,0,2.42,0.85,2.42,2.553v2.271C106.486,15.559,106.517,16.05,106.575,16.414z
				 M105.151,14.294v-0.951c-1.513-0.027-2.27,0.388-2.27,1.243c0,0.322,0.087,0.562,0.264,0.724
				c0.176,0.161,0.401,0.241,0.668,0.241c0.302,0,0.583-0.096,0.838-0.285c0.259-0.19,0.417-0.433,0.477-0.73
				C105.143,14.468,105.151,14.387,105.151,14.294z"/>
			<path fill="#FFFFFF" d="M114.368,16.414h-1.216l-0.065-0.991h-0.038c-0.389,0.753-1.05,1.13-1.98,1.13
				c-0.744,0-1.362-0.292-1.853-0.875s-0.736-1.34-0.736-2.272c0-0.998,0.266-1.807,0.799-2.424
				c0.515-0.576,1.149-0.864,1.904-0.864c0.829,0,1.41,0.279,1.738,0.838h0.026V7.414h1.373v7.338
				C114.319,15.353,114.334,15.906,114.368,16.414z M112.947,13.812v-1.028c0-0.179-0.014-0.322-0.039-0.433
				c-0.077-0.33-0.242-0.606-0.496-0.831c-0.255-0.224-0.563-0.336-0.917-0.336c-0.511,0-0.914,0.203-1.207,0.61
				c-0.292,0.407-0.439,0.926-0.439,1.562c0,0.609,0.139,1.104,0.421,1.484c0.297,0.406,0.697,0.609,1.198,0.609
				c0.45,0,0.81-0.169,1.084-0.507C112.817,14.629,112.947,14.252,112.947,13.812z"/>
			<path fill="#FFFFFF" d="M126.097,13.279c0,0.949-0.272,1.726-0.814,2.335c-0.567,0.627-1.319,0.94-2.259,0.94
				c-0.904,0-1.626-0.3-2.165-0.902c-0.537-0.601-0.804-1.358-0.804-2.271c0-0.956,0.276-1.74,0.829-2.348
				c0.554-0.609,1.3-0.913,2.241-0.913c0.906,0,1.634,0.299,2.184,0.9C125.833,11.603,126.097,12.357,126.097,13.279z
				 M124.677,13.323c0-0.569-0.124-1.057-0.368-1.463c-0.289-0.492-0.698-0.738-1.234-0.738c-0.548,0-0.966,0.246-1.257,0.738
				c-0.246,0.407-0.365,0.902-0.365,1.489c0,0.569,0.123,1.058,0.365,1.465c0.299,0.492,0.712,0.738,1.245,0.738
				c0.523,0,0.936-0.25,1.232-0.751C124.548,14.384,124.677,13.893,124.677,13.323z"/>
			<path fill="#FFFFFF" d="M133.471,16.414h-1.37v-3.533c0-1.089-0.413-1.633-1.245-1.633c-0.405,0-0.733,0.149-0.988,0.45
				c-0.253,0.3-0.382,0.653-0.382,1.057v3.659h-1.372v-4.405c0-0.542-0.015-1.129-0.049-1.765h1.205l0.063,0.964h0.039
				c0.161-0.299,0.398-0.547,0.711-0.745c0.373-0.229,0.788-0.346,1.244-0.346c0.575,0,1.053,0.186,1.435,0.559
				c0.476,0.457,0.711,1.139,0.711,2.044v3.694H133.471z"/>
			<path fill="#FFFFFF" d="M142.7,11.272h-1.51v2.996c0,0.762,0.267,1.144,0.798,1.144c0.248,0,0.451-0.021,0.612-0.064l0.036,1.041
				c-0.271,0.102-0.626,0.153-1.066,0.153c-0.538,0-0.962-0.166-1.268-0.495c-0.305-0.33-0.456-0.884-0.456-1.664v-3.11h-0.903
				v-1.027h0.903V9.114l1.344-0.405v1.535h1.511L142.7,11.272L142.7,11.272z"/>
			<path fill="#FFFFFF" d="M149.962,16.414h-1.373v-3.507c0-1.105-0.414-1.66-1.242-1.66c-0.636,0-1.07,0.32-1.309,0.961
				c-0.042,0.135-0.063,0.3-0.063,0.494v3.71h-1.37V7.415h1.37v3.718H146c0.433-0.677,1.05-1.015,1.854-1.015
				c0.566,0,1.036,0.187,1.41,0.558c0.465,0.465,0.697,1.157,0.697,2.069L149.962,16.414L149.962,16.414z"/>
			<path fill="#FFFFFF" d="M157.451,13.038c0,0.247-0.018,0.453-0.052,0.622h-4.113c0.019,0.609,0.215,1.074,0.596,1.396
				c0.348,0.288,0.797,0.432,1.346,0.432c0.61,0,1.164-0.097,1.663-0.292l0.216,0.953c-0.585,0.253-1.274,0.38-2.072,0.38
				c-0.954,0-1.707-0.281-2.251-0.844c-0.547-0.562-0.819-1.318-0.819-2.265c0-0.931,0.254-1.705,0.763-2.323
				c0.532-0.66,1.25-0.99,2.157-0.99c0.887,0,1.562,0.33,2.018,0.99C157.27,11.621,157.451,12.269,157.451,13.038z M156.143,12.683
				c0.01-0.407-0.079-0.757-0.267-1.054c-0.238-0.381-0.601-0.571-1.091-0.571c-0.448,0-0.814,0.186-1.092,0.559
				c-0.227,0.297-0.363,0.652-0.407,1.066H156.143z"/>
		</g>
	</g>
</g>
</svg>
