<?xml version="1.0" encoding="UTF-8" standalone="no"?>
<svg width="37px" height="37px" viewBox="0 0 37 37" version="1.1" xmlns="http://www.w3.org/2000/svg" xmlns:xlink="http://www.w3.org/1999/xlink">
    <!-- Generator: Sketch 3.8.3 (29802) - http://www.bohemiancoding.com/sketch -->
    <title>Fill 1</title>
    <desc>Created with Sketch.</desc>
    <defs></defs>
    <g id="Page-1" stroke="none" stroke-width="1" fill="none" fill-rule="evenodd">
        <g id="Teachers-Copy-5" transform="translate(-820.000000, -1403.000000)" fill="#5D60A5">
            <g id="Section-2" transform="translate(119.000000, 1315.000000)">
                <g id="Copy" transform="translate(701.000000, 88.000000)">
                    <path d="M25.7963353,33.2831479 C25.7868804,33.2878754 25.7764799,33.2916573 25.767025,33.2973303 L27.3431662,26.9199623 C27.5710306,26.0085045 27.4206968,25.0677364 26.9176931,24.2735201 C26.415635,23.4783583 25.6299281,22.9375348 24.7090154,22.7522176 C24.2513955,22.6605045 23.8552328,22.3560549 23.6491148,21.9390914 L21.6664104,17.9358629 C21.4527284,17.4905345 21.6106262,17.0934263 21.7250312,16.8967632 C21.9491136,16.5062735 22.3462218,16.2519352 22.7991142,16.2141154 L34.6414469,15.095594 C36.127766,22.2889248 32.6795435,29.8736907 25.7963353,33.2831479 M16.3063957,34.8640166 L17.43059,27.8976048 C17.6329261,26.6400956 16.9030035,25.4336432 15.6927691,25.0289711 C15.4384308,24.9457675 15.1708555,24.8682368 14.8985528,24.7916517 C14.3388193,24.6337539 13.762067,24.4711287 13.3488854,24.2262453 C12.5300862,23.741206 12.0847578,22.567846 11.9410424,21.6308598 C11.7992181,20.7042741 11.3018874,19.975297 10.5019981,19.5195681 C8.34437709,18.2894783 4.22107067,19.3767982 1.9887555,20.1209033 C1.81100232,18.3774094 1.9027154,16.6112235 2.2903686,14.8734026 L8.19782526,14.7107773 C10.2637332,14.6398652 11.4040009,12.8122221 11.7774717,12.2127779 L12.0545019,11.766504 C12.6426002,10.8181718 13.1976061,9.92184199 13.9549481,9.10777025 C14.5543923,8.46199674 15.5244709,8.27478861 16.3196327,8.65865983 L16.9947166,8.98485582 C19.2402687,10.0712303 21.3146861,6.78846949 22.0011159,5.70682249 L23.8268679,2.787132 C27.8877716,4.1713376 31.3010109,7.09859205 33.2827697,11.1018205 C33.6307121,11.8033783 33.9039603,12.5210095 34.1441162,13.2443136 L22.634598,14.3306881 C21.5718609,14.4176737 20.6197468,15.0237364 20.0845963,15.9541041 C19.5778106,16.8362515 19.5314813,17.8564413 19.9815372,18.7953184 L21.9538411,22.777746 C22.4180795,23.7156777 23.3077908,24.399271 24.3355446,24.6063345 C24.7468352,24.6885927 25.0957231,24.929694 25.31886,25.2833094 C25.543888,25.6369248 25.6110182,26.0557793 25.5089047,26.4642334 L23.6008945,34.1785322 C21.9453316,34.7250287 20.2264206,35.0067864 18.4630713,35.0067864 C17.7340941,35.0067864 17.014572,34.9547841 16.3063957,34.8640166 M3.61500797,25.7967135 C3.01178176,24.5779697 2.58441774,23.3062781 2.29698707,22.0118945 C4.74676623,21.1666215 8.19971626,20.3846966 9.56595743,21.1628395 C9.86567955,21.3330287 10.0169588,21.5580566 10.0717976,21.9163995 C10.3431548,23.6854218 11.2082833,25.1556675 12.3854254,25.8524978 C13.0094525,26.2231321 13.7393751,26.4292501 14.3832576,26.6117308 C14.628141,26.6807519 14.8692424,26.7488276 15.0952158,26.8235218 C15.4214118,26.9322538 15.6180749,27.2575043 15.5632362,27.5959917 L14.4475513,34.5122922 C9.78531242,33.3625695 5.81801278,30.2433794 3.61500797,25.7967135 M11.1014423,3.61444067 C13.4112881,2.47133646 15.8790317,1.89080215 18.4347064,1.89080215 C19.6279219,1.89080215 20.7965545,2.01560757 21.9283127,2.25576346 L20.4003918,4.69986965 C18.8734164,7.10710151 18.0167973,7.37562227 17.8163523,7.2820182 L17.1412684,6.95582221 C15.6076745,6.21360815 13.7280292,6.57195099 12.569797,7.82000521 C11.6867041,8.76928282 11.0853689,9.74125232 10.4471594,10.7708971 L10.1739111,11.2105525 C9.49504526,12.2997635 8.86439968,12.7961487 8.16473292,12.8207316 C8.14960499,12.8207316 8.13825904,12.8216771 2.83875606,12.9663379 C4.2778004,8.86572337 7.20032738,5.54703373 11.1014423,3.61444067 M34.9780433,10.2622204 C31.7595762,3.76477448 25.2262015,-0.000189099125 18.4347064,-0.000189099125 C15.6852051,-0.000189099125 12.8931565,0.617219544 10.2627877,1.92011251 C1.13402745,6.44147259 -2.60068027,17.5066079 1.92067981,26.6353681 C5.13820142,33.1328141 11.6725217,36.8977777 18.4630713,36.8977777 C21.2125725,36.8977777 24.0046211,36.280369 26.6359354,34.977476 C35.7637502,30.456116 39.4994034,19.3909807 34.9780433,10.2622204" id="Fill-1"></path>
                </g>
            </g>
        </g>
    </g>
</svg>