<?xml version="1.0" encoding="UTF-8" standalone="no"?>
<svg width="15px" height="20px" viewBox="0 0 15 20" version="1.1" xmlns="http://www.w3.org/2000/svg" xmlns:xlink="http://www.w3.org/1999/xlink">
    <!-- Generator: Sketch 39 (31667) - http://www.bohemiancoding.com/sketch -->
    <title>Fill 1</title>
    <desc>Created with Sketch.</desc>
    <defs></defs>
    <g id="Page-1" stroke="none" stroke-width="1" fill="none" fill-rule="evenodd">
        <g id="Teachers-Copy-5" transform="translate(-1015.000000, -2739.000000)" fill="#17A687">
            <g id="Learn-More-Section" transform="translate(118.000000, 2585.000000)">
                <g id="Students" transform="translate(790.000000, 105.000000)">
                    <g id="Rollover">
                        <path d="M118.9836,54.3418 C118.0866,53.1338 116.8096,52.2588 115.3416,51.8428 L116.1476,50.6048 C116.1606,50.5948 116.2176,50.5628 116.3246,50.5388 C116.4346,50.5128 116.5596,50.4998 116.6956,50.4998 C117.2496,50.4998 117.9126,50.7118 118.5146,51.0818 C119.5846,51.7388 119.9726,52.5958 119.9536,52.8448 L118.9836,54.3418 Z M113.0496,63.5018 C112.7316,63.0808 112.3746,62.6958 111.9706,62.3618 L117.1056,54.4828 C117.4946,54.8378 117.8266,55.2508 118.0956,55.7118 L113.0496,63.5018 Z M109.7176,65.7078 C109.3746,65.3648 108.9636,65.0948 108.5156,64.8968 L108.4996,63.1278 C108.4976,62.8738 108.5346,62.6218 108.6086,62.3778 C110.0246,62.6628 111.2606,63.4728 112.0406,64.6468 C111.8696,64.7678 111.6976,64.8898 111.4986,64.9718 L109.7176,65.7078 Z M109.3636,61.0228 L114.4766,53.1708 C114.9656,53.2658 115.4316,53.4238 115.8666,53.6378 L110.7156,61.5418 C110.2886,61.3228 109.8356,61.1508 109.3636,61.0228 L109.3636,61.0228 Z M119.3006,49.8038 C118.4496,49.2808 117.5206,48.9998 116.6956,48.9998 C116.4486,48.9998 116.2106,49.0248 115.9866,49.0768 C115.6506,49.1548 115.1926,49.3348 114.9226,49.7488 L113.7336,51.5718 C113.7266,51.5718 113.7206,51.5698 113.7126,51.5698 L113.7116,51.6068 L107.6686,60.8778 C107.2256,61.5578 106.9926,62.3448 107.0006,63.1418 L107.0456,68.2218 C107.0836,68.2738 107.1856,68.3368 107.2496,68.3488 L112.0716,66.3578 C112.8836,66.0228 113.5746,65.4508 114.0466,64.7218 L121.2296,53.6338 C121.8966,52.6098 121.0136,50.8558 119.3006,49.8038 L119.3006,49.8038 Z" id="Fill-1"></path>
                    </g>
                </g>
            </g>
        </g>
    </g>
</svg>