<?xml version="1.0" encoding="UTF-8" standalone="no"?>
<svg width="23px" height="19px" viewBox="0 0 23 19" version="1.1" xmlns="http://www.w3.org/2000/svg" xmlns:xlink="http://www.w3.org/1999/xlink">
    <!-- Generator: Sketch 39.1 (31720) - http://www.bohemiancoding.com/sketch -->
    <title>Icon</title>
    <desc>Created with Sketch.</desc>
    <defs></defs>
    <g id="Page-1" stroke="none" stroke-width="1" fill="none" fill-rule="evenodd">
        <g id="Teachers-Copy-5" transform="translate(-480.000000, -2740.000000)" fill="#F5BF28">
            <g id="Learn-More-Section" transform="translate(118.000000, 2585.000000)">
                <g id="School-Leaders" transform="translate(264.000000, 105.000000)">
                    <g id="Rollover">
                        <g id="Icon" transform="translate(98.000000, 50.000000)">
                            <path d="M17.686,16.9219 L20.745,16.9219 L20.745,11.7009 L17.686,11.7009 L17.686,16.9219 Z M9.705,16.9219 L12.54,16.9219 L12.54,11.7009 L9.705,11.7009 L9.705,16.9219 Z M1.5,16.9219 L4.559,16.9219 L4.559,11.7009 L1.5,11.7009 L1.5,16.9219 Z M8.157,7.8979 L8.157,4.0589 L11.123,1.8649 L14.088,4.0589 L14.088,7.8979 L16.187,9.4309 L16.187,16.9219 L14.04,16.9219 L14.04,11.5759 C14.04,10.8179 13.439,10.2009 12.701,10.2009 L9.545,10.2009 C8.806,10.2009 8.205,10.8179 8.205,11.5759 L8.205,16.9219 L6.059,16.9219 L6.059,9.4309 L8.157,7.8979 Z M20.906,10.2009 L17.687,10.2009 L17.687,9.3789 C17.687,8.9369 17.478,8.5179 17.124,8.2579 L15.588,7.1359 L15.588,5.1689 L16.125,5.5669 L17.018,4.3609 L11.123,-0.0001 L5.228,4.3609 L6.12,5.5669 L6.657,5.1689 L6.657,7.1359 L5.121,8.2579 C4.77,8.5159 4.559,8.9349 4.559,9.3789 L4.559,10.2009 L1.339,10.2009 C0.601,10.2009 0,10.8179 0,11.5759 L0,18.4219 L22.245,18.4219 L22.245,11.5759 C22.245,10.8179 21.645,10.2009 20.906,10.2009 L20.906,10.2009 Z" id="Fill-1"></path>
                            <path d="M11.1228,6.4463 C11.6878,6.4463 12.1458,5.9883 12.1458,5.4233 C12.1458,4.8583 11.6878,4.4003 11.1228,4.4003 C10.5578,4.4003 10.0998,4.8583 10.0998,5.4233 C10.0998,5.9883 10.5578,6.4463 11.1228,6.4463" id="Fill-3"></path>
                        </g>
                    </g>
                </g>
            </g>
        </g>
    </g>
</svg>