<svg id="Layer_1" data-name="Layer 1" xmlns="http://www.w3.org/2000/svg" viewBox="0 0 585 455"><defs><style>.cls-1{fill:#bdc2cb;}.cls-2{fill:#a6c644;}.cls-3{fill:#1c2a47;}.cls-4{fill:#c5c7cb;}.cls-5{fill:#fff;}.cls-6{fill:#3c5b87;}.cls-7{fill:#4683c6;}.cls-8{fill:#4a89dc;}.cls-9{fill:#e8ecef;}.cls-10{fill:#f5f6f8;}.cls-11{fill:#5c60a5;}.cls-12{fill:#d9dce2;}.cls-13{fill:#fcfcfd;}.cls-14{fill:#6499dc;}.cls-15{fill:#b0cb64;}.cls-16{fill:#3daf96;}.cls-17{fill:#99a1ad;}.cls-18{fill:#caced5;}.cls-19{fill:#c3c8d0;}.cls-20{fill:#dbdee4;}</style></defs><title>COM001-illos-vector</title><path class="cls-1" d="M70.57,225.46H126A1.44,1.44,0,0,0,127.4,224v-6.28A1.44,1.44,0,0,0,126,216.3H70.57a1.44,1.44,0,0,0-1.44,1.44V224A1.44,1.44,0,0,0,70.57,225.46Z"/><path class="cls-1" d="M147.63,163.82H70.57a1.44,1.44,0,0,0-1.44,1.44v6.28A1.44,1.44,0,0,0,70.57,173h77.06a1.44,1.44,0,0,0,1.44-1.44v-6.28A1.44,1.44,0,0,0,147.63,163.82Z"/><path class="cls-1" d="M147.54,268.79h-77a1.44,1.44,0,0,0-1.44,1.44v6.28A1.44,1.44,0,0,0,70.57,278h77a1.44,1.44,0,0,0,1.44-1.44v-6.28A1.44,1.44,0,0,0,147.54,268.79Z"/><circle class="cls-2" cx="49.02" cy="121.26" r="12.68"/><circle class="cls-2" cx="264.46" cy="140.22" r="12.68"/><path class="cls-3" d="M212.83,97.07V62.35a37.2,37.2,0,0,0-37.2-37.2H54.78a37.2,37.2,0,0,0-37.2,37.2v9.94a4,4,0,0,0-2.31,3.63v5.84a4,4,0,0,0,2.31,3.63v16.17a4,4,0,0,0-2.31,3.63v17.36a4,4,0,0,0,2.31,3.63v2.57a4,4,0,0,0-2.31,3.63v17.36a4,4,0,0,0,2.31,3.63V385.67a37.2,37.2,0,0,0,37.2,37.2H175.63a37.2,37.2,0,0,0,37.2-37.2V121.62a4,4,0,0,0,2.24-3.6V100.67A4,4,0,0,0,212.83,97.07ZM202.26,382.9a4,4,0,0,1-4,4H32.14a4,4,0,0,1-4-4V73.07a4,4,0,0,1,4-4H198.27a4,4,0,0,1,4,4Z"/><ellipse class="cls-4" cx="296.05" cy="426.52" rx="285" ry="5.91"/><rect class="cls-3" x="446.68" y="122.94" width="123.05" height="301.42" rx="4.06" ry="4.06"/><rect class="cls-5" x="458.33" y="152.71" width="99.74" height="111.21" rx="3" ry="3"/><path class="cls-6" d="M529.08,140H487.32a1.5,1.5,0,0,1,0-3h41.77a1.5,1.5,0,0,1,0,3Z"/><polygon class="cls-6" points="492.77 375.03 492.77 345.98 461.9 345.98 464.28 375.03 492.77 375.03"/><polygon class="cls-6" points="492.77 315.93 459.43 315.93 461.82 344.98 492.77 344.98 492.77 315.93"/><polygon class="cls-6" points="523.63 375.03 552.12 375.03 554.5 345.98 523.63 345.98 523.63 375.03"/><path class="cls-6" d="M557,314.93l1.19-14.49c0-8.33-5.67-15.09-12.67-15.09H470.84c-7,0-12.67,6.76-12.67,15.09l1.19,14.49Z"/><polygon class="cls-6" points="523.63 315.93 523.63 344.98 554.58 344.98 556.97 315.93 523.63 315.93"/><path class="cls-6" d="M492.77,376h-28.4L465.59,391c0,8,5.53,14.63,12.29,14.63h14.89Z"/><path class="cls-6" d="M523.63,376v29.58h14.89c6.76,0,12.29-6.58,12.29-14.63L552,376Z"/><rect class="cls-6" x="493.77" y="376.03" width="28.86" height="29.58"/><rect class="cls-6" x="493.77" y="345.98" width="28.86" height="29.05"/><rect class="cls-6" x="493.77" y="315.93" width="28.86" height="29.05"/><path class="cls-7" d="M521.44,323.38H495.5a7.59,7.59,0,0,1-7.56-7.56l-2.16-29.72a7.59,7.59,0,0,1,7.56-7.56h29.72a7.59,7.59,0,0,1,7.56,7.56L529,315.82A7.59,7.59,0,0,1,521.44,323.38Z"/><path class="cls-5" d="M198.32,386.67H32.09a3.94,3.94,0,0,1-3.94-3.94v.17a4,4,0,0,0,4,4H198.27a4,4,0,0,0,4-4v-.17A3.94,3.94,0,0,1,198.32,386.67Z"/><rect class="cls-5" x="202.24" y="355.38" width="0.03" height="0.19"/><path class="cls-5" d="M35.81,147.32a1.5,1.5,0,0,1,1.5-1.5H69.9L60,128a12.68,12.68,0,1,1-10.83-19.42l-4.69-8.4H28.15v48.57h8.71A1.5,1.5,0,0,1,35.81,147.32Z"/><polygon class="cls-5" points="186.83 355.38 28.15 355.38 28.15 355.58 186.93 355.58 186.83 355.38"/><rect class="cls-5" x="202.24" y="100.18" width="0.03" height="48.57"/><path class="cls-8" d="M201.55,70.78a4.07,4.07,0,0,1,.37.7,4,4,0,0,1,.34,1.6v0A3.92,3.92,0,0,0,201.55,70.78Z"/><path class="cls-9" d="M202.24,377.53a1.42,1.42,0,0,1-2.67.69l-12.63-22.64H28.15v27.15a3.94,3.94,0,0,0,3.94,3.94H198.32a3.94,3.94,0,0,0,3.94-3.94V355.58h0Z"/><path class="cls-10" d="M158.81,305.18H37.31a1.5,1.5,0,1,1,0-3H157.14L143.62,278H70.57a1.44,1.44,0,0,1-1.44-1.44v-6.28a1.44,1.44,0,0,1,1.44-1.44h67.94l-8.78-15.73H37.31a1.5,1.5,0,0,1,0-3h90.75L119.64,235H70.57a1.44,1.44,0,0,1-1.44-1.44v-3a1.44,1.44,0,0,1,1.44-1.44h45.82l-2.06-3.68H70.57A1.44,1.44,0,0,1,69.13,224v-6.28a1.44,1.44,0,0,1,1.44-1.44h38.65l-8.57-15.36H37.31a1.5,1.5,0,0,1,0-3H99l-8.62-15.45H70.57a1.44,1.44,0,0,1-1.44-1.44v-3a1.44,1.44,0,0,1,1.44-1.44H87.1L85,173H70.57a1.44,1.44,0,0,1-1.44-1.44v-6.28a1.44,1.44,0,0,1,1.44-1.44h9.37l-8.37-15H37.31a1.48,1.48,0,0,1-.45-.08H28.15V355.38H186.83ZM69.13,283.08a1.44,1.44,0,0,1,1.44-1.44h54.75a1.44,1.44,0,0,1,1.44,1.44v3a1.44,1.44,0,0,1-1.44,1.44H70.57A1.44,1.44,0,0,1,69.13,286ZM49.22,264.94a12.68,12.68,0,1,1-12.68,12.68A12.68,12.68,0,0,1,49.22,264.94Zm0-52.12A12.68,12.68,0,1,1,36.54,225.5,12.68,12.68,0,0,1,49.22,212.82Zm0-52.12a12.68,12.68,0,1,1-12.68,12.68A12.68,12.68,0,0,1,49.22,160.7Zm19.91,162a1.44,1.44,0,0,1,1.44-1.44h41.55a1.44,1.44,0,0,1,1.44,1.44V329a1.44,1.44,0,0,1-1.44,1.44H70.57A1.44,1.44,0,0,1,69.13,329ZM49.22,342.43a12.68,12.68,0,1,1,12.68-12.68A12.68,12.68,0,0,1,49.22,342.43ZM163.84,340H70.57a1.44,1.44,0,0,1-1.44-1.44v-3a1.44,1.44,0,0,1,1.44-1.44h93.27a1.44,1.44,0,0,1,1.44,1.44v3A1.44,1.44,0,0,1,163.84,340Z"/><rect class="cls-9" x="202.24" y="148.74" width="0.03" height="206.64"/><path class="cls-9" d="M69.9,145.82H37.31a1.5,1.5,0,0,0-.45,2.92H71.53Z"/><path class="cls-9" d="M36.86,148.74a1.48,1.48,0,0,0,.45.08H71.57l0-.08Z"/><path class="cls-9" d="M37.31,197.94a1.5,1.5,0,0,0,0,3h63.34l-1.67-3Z"/><path class="cls-9" d="M37.31,250.06a1.5,1.5,0,0,0,0,3h92.42l-1.67-3Z"/><path class="cls-9" d="M37.31,302.18a1.5,1.5,0,1,0,0,3H158.81l-1.67-3Z"/><circle class="cls-11" cx="49.22" cy="173.38" r="12.68"/><circle class="cls-11" cx="49.22" cy="225.5" r="12.68"/><circle class="cls-11" cx="49.22" cy="277.62" r="12.68"/><circle class="cls-11" cx="49.22" cy="329.74" r="12.68"/><path class="cls-12" d="M70.57,176.66a1.44,1.44,0,0,0-1.44,1.44v3a1.44,1.44,0,0,0,1.44,1.44H90.36l-3.25-5.83Z"/><path class="cls-12" d="M70.57,229.15a1.44,1.44,0,0,0-1.44,1.44v3A1.44,1.44,0,0,0,70.57,235h49.07l-3.25-5.83Z"/><rect class="cls-12" x="69.13" y="281.64" width="57.62" height="5.83" rx="1.44" ry="1.44"/><rect class="cls-1" x="69.13" y="321.28" width="44.43" height="9.16" rx="1.44" ry="1.44"/><rect class="cls-12" x="69.13" y="334.12" width="96.15" height="5.83" rx="1.44" ry="1.44"/><polygon class="cls-9" points="186.93 355.58 202.24 355.58 202.24 355.38 186.83 355.38 186.93 355.58"/><path class="cls-13" d="M49.12,108.58h.1A12.67,12.67,0,0,1,60,128l9.94,17.82H192.35a1.5,1.5,0,0,1,.45,2.92h9.44V100.18H44.43Zm140.29,14.48a4.47,4.47,0,1,1-4.47,4.47A4.47,4.47,0,0,1,189.41,123.06ZM69.13,112.77a1.44,1.44,0,0,1,1.44-1.44h41.06a1.44,1.44,0,0,1,1.44,1.44v6.28a1.44,1.44,0,0,1-1.44,1.44H70.57a1.44,1.44,0,0,1-1.44-1.44Zm0,12.84a1.44,1.44,0,0,1,1.44-1.44H176.81a1.44,1.44,0,0,1,1.44,1.44v3a1.44,1.44,0,0,1-1.44,1.44H70.57a1.44,1.44,0,0,1-1.44-1.44Z"/><path class="cls-9" d="M198.32,69.08h0a4,4,0,0,1,3.65,2.39,4.07,4.07,0,0,0-.37-.7A3.94,3.94,0,0,0,198.32,69.08Z"/><path class="cls-14" d="M30.15,69.48h0Z"/><path class="cls-9" d="M199.57,378.22a1.42,1.42,0,0,0,2.67-.69V355.58h-15.3Z"/><path class="cls-10" d="M192.35,148.82H71.57l8.37,15h67.69a1.44,1.44,0,0,1,1.44,1.44v6.28a1.44,1.44,0,0,1-1.44,1.44H85l2.06,3.68h78.63a1.44,1.44,0,0,1,1.44,1.44v3a1.44,1.44,0,0,1-1.44,1.44H90.36L99,197.94h93.37a1.5,1.5,0,0,1,0,3h-91.7l8.57,15.36H126a1.44,1.44,0,0,1,1.44,1.44V224a1.44,1.44,0,0,1-1.44,1.44H114.34l2.06,3.68h54.9a1.44,1.44,0,0,1,1.44,1.44v3a1.44,1.44,0,0,1-1.44,1.44H119.64l8.41,15.08h64.29a1.5,1.5,0,0,1,0,3H129.73l8.78,15.73h9a1.44,1.44,0,0,1,1.44,1.44v6.28a1.44,1.44,0,0,1-1.44,1.44h-3.92l13.52,24.23h35.21a1.5,1.5,0,0,1,0,3H158.81l28,50.2h15.41V148.74H192.8A1.48,1.48,0,0,1,192.35,148.82Zm-2.95,192a4.47,4.47,0,1,1,4.47-4.47A4.47,4.47,0,0,1,189.41,340.8Zm0-52.2a4.47,4.47,0,1,1,4.47-4.47A4.47,4.47,0,0,1,189.41,288.6Zm0-52.2a4.47,4.47,0,1,1,4.47-4.47A4.47,4.47,0,0,1,189.41,236.39Zm0-52.2a4.47,4.47,0,1,1,4.47-4.47A4.47,4.47,0,0,1,189.41,184.19Z"/><path class="cls-9" d="M192.8,148.74a1.5,1.5,0,0,0-.45-2.92H69.9l1.63,2.92Z"/><path class="cls-9" d="M192.8,148.74H71.53l0,.08H192.35A1.48,1.48,0,0,0,192.8,148.74Z"/><path class="cls-9" d="M193.85,199.44a1.5,1.5,0,0,0-1.5-1.5H99l1.67,3h91.7A1.5,1.5,0,0,0,193.85,199.44Z"/><path class="cls-9" d="M193.85,251.56a1.5,1.5,0,0,0-1.5-1.5H128.06l1.67,3h62.62A1.5,1.5,0,0,0,193.85,251.56Z"/><path class="cls-9" d="M193.85,303.68a1.5,1.5,0,0,0-1.5-1.5H157.14l1.67,3h33.54A1.5,1.5,0,0,0,193.85,303.68Z"/><path class="cls-15" d="M49.22,108.58h-.1L60,128a12.67,12.67,0,0,0-10.73-19.42Z"/><path class="cls-16" d="M189.41,132a4.47,4.47,0,1,0-4.47-4.47A4.47,4.47,0,0,0,189.41,132Zm-1.69-4.38a.66.66,0,0,1,.91,0l.35.36c.17-.19.89-1.17,1.36-1.8a.62.62,0,0,1,.42-.25.59.59,0,0,1,.45.13l0,0,0,0-2.16,2.91-1.38-1.43Z"/><path class="cls-9" d="M191.22,126.17l0,0,0,0a.59.59,0,0,0-.45-.13.62.62,0,0,0-.42.25c-.47.64-1.19,1.62-1.36,1.8l-.35-.36a.66.66,0,0,0-.91,0l0,0,1.38,1.43Z"/><path class="cls-16" d="M189.41,175.26a4.47,4.47,0,1,0,4.47,4.47A4.47,4.47,0,0,0,189.41,175.26Zm1.81,3.11-2.16,2.91-1.38-1.43,0,0a.66.66,0,0,1,.91,0l.35.36c.17-.19.89-1.17,1.36-1.8a.62.62,0,0,1,.42-.25.59.59,0,0,1,.45.13l0,0Z"/><path class="cls-9" d="M190.75,178.17a.62.62,0,0,0-.42.25c-.47.64-1.19,1.62-1.36,1.8l-.35-.36a.66.66,0,0,0-.91,0l0,0,1.38,1.43,2.16-2.91,0,0,0,0A.59.59,0,0,0,190.75,178.17Z"/><path class="cls-16" d="M189.41,227.46a4.47,4.47,0,1,0,4.47,4.47A4.47,4.47,0,0,0,189.41,227.46Zm1.81,3.11-2.16,2.91-1.38-1.43,0,0a.66.66,0,0,1,.91,0l.35.36c.17-.19.89-1.17,1.36-1.8a.62.62,0,0,1,.42-.25.59.59,0,0,1,.45.13l0,0Z"/><path class="cls-9" d="M190.75,230.37a.62.62,0,0,0-.42.25c-.47.64-1.19,1.62-1.36,1.8l-.35-.36a.66.66,0,0,0-.91,0l0,0,1.38,1.43,2.16-2.91,0,0,0,0A.59.59,0,0,0,190.75,230.37Z"/><rect class="cls-17" x="69.13" y="111.33" width="43.94" height="9.16" rx="1.44" ry="1.44"/><rect class="cls-18" x="69.13" y="124.17" width="109.12" height="5.83" rx="1.44" ry="1.44"/><path class="cls-16" d="M189.41,279.67a4.47,4.47,0,1,0,4.47,4.47A4.47,4.47,0,0,0,189.41,279.67Zm1.81,3.11-2.16,2.91-1.38-1.43,0,0a.66.66,0,0,1,.91,0l.35.36c.17-.19.89-1.17,1.36-1.81a.62.62,0,0,1,.42-.25.6.6,0,0,1,.45.13l0,0Z"/><path class="cls-9" d="M190.75,282.57a.62.62,0,0,0-.42.25c-.47.64-1.19,1.62-1.36,1.81l-.35-.36a.66.66,0,0,0-.91,0l0,0,1.38,1.43,2.16-2.91,0,0,0,0A.6.6,0,0,0,190.75,282.57Z"/><path class="cls-19" d="M149.07,171.54v-6.28a1.44,1.44,0,0,0-1.44-1.44H79.94L85,173h62.58A1.44,1.44,0,0,0,149.07,171.54Z"/><path class="cls-20" d="M167.17,181.05v-3a1.44,1.44,0,0,0-1.44-1.44H87.1l3.25,5.83h75.38A1.44,1.44,0,0,0,167.17,181.05Z"/><path class="cls-19" d="M127.4,224v-6.28A1.44,1.44,0,0,0,126,216.3H109.22l5.11,9.16H126A1.44,1.44,0,0,0,127.4,224Z"/><path class="cls-20" d="M172.73,233.54v-3a1.44,1.44,0,0,0-1.44-1.44h-54.9l3.25,5.83h51.64A1.44,1.44,0,0,0,172.73,233.54Z"/><path class="cls-19" d="M149,276.51v-6.28a1.44,1.44,0,0,0-1.44-1.44h-9l5.11,9.16h3.92A1.44,1.44,0,0,0,149,276.51Z"/><path class="cls-16" d="M189.41,331.87a4.47,4.47,0,1,0,4.47,4.47A4.47,4.47,0,0,0,189.41,331.87Zm1.81,3.11-2.16,2.91-1.38-1.43,0,0a.66.66,0,0,1,.91,0l.35.36c.17-.19.89-1.17,1.36-1.8a.62.62,0,0,1,.42-.25.6.6,0,0,1,.45.13l0,0Z"/><path class="cls-9" d="M190.75,334.78a.62.62,0,0,0-.42.25c-.47.64-1.19,1.62-1.36,1.8l-.35-.36a.66.66,0,0,0-.91,0l0,0,1.38,1.43,2.16-2.91,0,0,0,0A.6.6,0,0,0,190.75,334.78Z"/><path class="cls-5" d="M251,162.31a1.5,1.5,0,0,1,1.5-1.5h33.54l-9.87-15.88a12.68,12.68,0,1,1-11.76-17.41c.33,0,.65,0,1,0L260.75,120H243.26v43.44h8.35A1.49,1.49,0,0,1,251,162.31Z"/><polygon class="cls-5" points="399.88 343.95 243.26 343.95 243.26 344.19 400.02 344.19 399.88 343.95"/><rect class="cls-9" x="242.81" y="163.47" width="0.45" height="180.48"/><path class="cls-10" d="M370.36,296.45H252.55a1.5,1.5,0,0,1,0-3h116l-12.6-20.28h-70.1a1.44,1.44,0,0,1-1.44-1.44v-6.28a1.44,1.44,0,0,1,1.44-1.44h64.4l-7.32-11.78H252.55a1.5,1.5,0,0,1,0-3H341l-6.91-11.13H285.81a1.44,1.44,0,0,1-1.44-1.44v-3a1.44,1.44,0,0,1,1.44-1.44h44.68l-2.29-3.68h-42.4a1.44,1.44,0,0,1-1.44-1.44v-6.28a1.44,1.44,0,0,1,1.44-1.44h36.7L315.42,208H252.55a1.5,1.5,0,0,1,0-3h61l-7.14-11.5H285.81a1.44,1.44,0,0,1-1.44-1.44v-3a1.44,1.44,0,0,1,1.44-1.44h17L300.5,184h-14.7a1.44,1.44,0,0,1-1.44-1.44v-6.28a1.44,1.44,0,0,1,1.44-1.44h9l-6.86-11h-35.4a1.49,1.49,0,0,1-.94-.34h-8.35V343.95H399.87Zm-86-18.15a1.44,1.44,0,0,1,1.44-1.44h54.75A1.44,1.44,0,0,1,342,278.3v3a1.44,1.44,0,0,1-1.44,1.44H285.81a1.44,1.44,0,0,1-1.44-1.44Zm-19.91-18.14a12.68,12.68,0,1,1-12.68,12.68A12.68,12.68,0,0,1,264.46,260.16Zm0-44.22a12.68,12.68,0,1,1-12.68,12.68A12.68,12.68,0,0,1,264.46,215.95Zm0-44.21a12.68,12.68,0,1,1-12.68,12.68A12.68,12.68,0,0,1,264.46,171.73ZM284.37,310a1.44,1.44,0,0,1,1.44-1.44h41.55A1.44,1.44,0,0,1,328.8,310v6.28a1.44,1.44,0,0,1-1.44,1.44H285.81a1.44,1.44,0,0,1-1.44-1.44Zm-19.91,19.71a12.68,12.68,0,1,1,12.68-12.68A12.68,12.68,0,0,1,264.46,329.74Zm114.62-2.47H285.81a1.44,1.44,0,0,1-1.44-1.44v-3a1.44,1.44,0,0,1,1.44-1.44h93.27a1.44,1.44,0,0,1,1.44,1.44v3A1.44,1.44,0,0,1,379.08,327.27Z"/><rect class="cls-8" x="418.49" y="91.76" width="0.07" height="0.39"/><path class="cls-9" d="M286.08,160.81H252.55a1.49,1.49,0,0,0-.94,2.66h36.13Z"/><path class="cls-9" d="M251.61,163.47a1.49,1.49,0,0,0,.94.34h35.4l-.21-.34Z"/><path class="cls-9" d="M252.55,205a1.5,1.5,0,0,0,0,3h62.88l-1.86-3Z"/><path class="cls-9" d="M252.55,249.24a1.5,1.5,0,0,0,0,3h90.35l-1.86-3Z"/><path class="cls-9" d="M252.55,293.45a1.5,1.5,0,0,0,0,3H370.36l-1.86-3Z"/><polygon class="cls-9" points="243.26 344.19 243.26 373.78 418.41 373.78 400.02 344.19 243.26 344.19"/><circle class="cls-11" cx="264.46" cy="184.41" r="12.68"/><circle class="cls-11" cx="264.46" cy="228.63" r="12.68"/><circle class="cls-11" cx="264.46" cy="272.84" r="12.68"/><circle class="cls-11" cx="264.46" cy="317.06" r="12.68"/><path class="cls-1" d="M285.81,264a1.44,1.44,0,0,0-1.44,1.44v6.28a1.44,1.44,0,0,0,1.44,1.44h70.1L350.21,264Z"/><rect class="cls-12" x="284.37" y="276.86" width="57.62" height="5.83" rx="1.44" ry="1.44"/><path class="cls-1" d="M285.81,174.85a1.44,1.44,0,0,0-1.44,1.44v6.28a1.44,1.44,0,0,0,1.44,1.44h14.7l-5.69-9.16Z"/><path class="cls-12" d="M285.81,187.7a1.44,1.44,0,0,0-1.44,1.44v3a1.44,1.44,0,0,0,1.44,1.44h20.61l-3.62-5.83Z"/><path class="cls-1" d="M285.81,219.43a1.44,1.44,0,0,0-1.44,1.44v6.28a1.44,1.44,0,0,0,1.44,1.44h42.4l-5.69-9.16Z"/><path class="cls-12" d="M285.81,232.28a1.44,1.44,0,0,0-1.44,1.44v3a1.44,1.44,0,0,0,1.44,1.44h48.31l-3.62-5.83Z"/><rect class="cls-1" x="284.37" y="308.6" width="44.43" height="9.16" rx="1.44" ry="1.44"/><rect class="cls-12" x="284.37" y="321.44" width="96.15" height="5.83" rx="1.44" ry="1.44"/><polygon class="cls-9" points="418.65 92.15 418.55 92.15 418.55 120.03 418.49 120.03 418.49 344.19 418.49 373.78 418.41 373.78 418.65 374.17 418.65 92.15"/><path class="cls-13" d="M265.43,127.56a12.66,12.66,0,0,1,10.79,17.36l9.87,15.88h121.5a1.49,1.49,0,0,1,.94,2.66h9.71V343.95H399.87l.15.24h18.46V120H260.75ZM404.64,142a4.47,4.47,0,1,1-4.47,4.47A4.47,4.47,0,0,1,404.64,142ZM284.37,131.71a1.44,1.44,0,0,1,1.44-1.44h41.06a1.44,1.44,0,0,1,1.44,1.44V138a1.44,1.44,0,0,1-1.44,1.44H285.81a1.44,1.44,0,0,1-1.44-1.44Zm0,12.84a1.44,1.44,0,0,1,1.44-1.44H392a1.44,1.44,0,0,1,1.44,1.44v3a1.44,1.44,0,0,1-1.44,1.44H285.81a1.44,1.44,0,0,1-1.44-1.44Z"/><path class="cls-10" d="M418.24,163.47h-9.71a1.49,1.49,0,0,1-.94.34H287.95l6.86,11h68.06a1.44,1.44,0,0,1,1.44,1.44v6.28a1.44,1.44,0,0,1-1.44,1.44H300.5l2.29,3.68H381a1.44,1.44,0,0,1,1.44,1.44v3a1.44,1.44,0,0,1-1.44,1.44H306.41l7.14,11.5h94a1.5,1.5,0,0,1,0,3H315.42l7.09,11.41H341.2a1.44,1.44,0,0,1,1.44,1.44v6.28a1.44,1.44,0,0,1-1.44,1.44h-13l2.29,3.68h56a1.44,1.44,0,0,1,1.44,1.44v3a1.44,1.44,0,0,1-1.44,1.44H334.11L341,249.24h66.56a1.5,1.5,0,0,1,0,3H342.89L350.21,264h12.57a1.44,1.44,0,0,1,1.44,1.44v6.28a1.44,1.44,0,0,1-1.44,1.44H355.9l12.6,20.28h39.09a1.5,1.5,0,0,1,0,3H370.36l29.51,47.5h18.36ZM404.64,328.12a4.47,4.47,0,1,1,4.47-4.47A4.47,4.47,0,0,1,404.64,328.12Zm0-44.3a4.47,4.47,0,1,1,4.47-4.47A4.47,4.47,0,0,1,404.64,283.82Zm0-44.3a4.47,4.47,0,1,1,4.47-4.47A4.47,4.47,0,0,1,404.64,239.52Zm0-44.3a4.47,4.47,0,1,1,4.47-4.47A4.47,4.47,0,0,1,404.64,195.22Z"/><rect class="cls-9" x="418.49" y="92.15" width="0.07" height="27.88"/><rect class="cls-8" x="243.01" y="91.62" width="175.48" height="28.09"/><path class="cls-9" d="M408.52,163.47a1.49,1.49,0,0,0-.94-2.66H286.08l1.65,2.66Z"/><path class="cls-9" d="M408.52,163.47H287.74l.21.34H407.59A1.49,1.49,0,0,0,408.52,163.47Z"/><path class="cls-9" d="M409.09,206.52a1.5,1.5,0,0,0-1.5-1.5h-94l1.86,3h92.17A1.5,1.5,0,0,0,409.09,206.52Z"/><path class="cls-9" d="M409.09,250.74a1.5,1.5,0,0,0-1.5-1.5H341l1.86,3h64.69A1.5,1.5,0,0,0,409.09,250.74Z"/><path class="cls-9" d="M409.09,295a1.5,1.5,0,0,0-1.5-1.5H368.5l1.86,3h37.22A1.5,1.5,0,0,0,409.09,295Z"/><polygon class="cls-9" points="418.49 344.19 400.02 344.19 418.41 373.78 418.49 373.78 418.49 344.19"/><path class="cls-15" d="M265.43,127.56l10.79,17.36a12.66,12.66,0,0,0-10.79-17.36Z"/><rect class="cls-17" x="284.37" y="130.27" width="43.94" height="9.16" rx="1.44" ry="1.44"/><rect class="cls-18" x="284.37" y="143.11" width="109.12" height="5.83" rx="1.44" ry="1.44"/><path class="cls-19" d="M364.22,271.74v-6.28a1.44,1.44,0,0,0-1.44-1.44H350.21l5.69,9.16h6.88A1.44,1.44,0,0,0,364.22,271.74Z"/><path class="cls-19" d="M364.31,182.57v-6.28a1.44,1.44,0,0,0-1.44-1.44H294.81L300.5,184h62.36A1.44,1.44,0,0,0,364.31,182.57Z"/><path class="cls-20" d="M382.41,192.09v-3A1.44,1.44,0,0,0,381,187.7H302.79l3.62,5.83H381A1.44,1.44,0,0,0,382.41,192.09Z"/><path class="cls-19" d="M342.64,227.15v-6.28a1.44,1.44,0,0,0-1.44-1.44H322.51l5.69,9.16h13A1.44,1.44,0,0,0,342.64,227.15Z"/><path class="cls-20" d="M388,236.67v-3a1.44,1.44,0,0,0-1.44-1.44h-56l3.62,5.83h52.41A1.44,1.44,0,0,0,388,236.67Z"/><path class="cls-16" d="M404.64,150.93a4.47,4.47,0,1,0-4.47-4.47A4.47,4.47,0,0,0,404.64,150.93ZM403,146.55a.66.66,0,0,1,.91,0l.35.36c.17-.19.89-1.17,1.36-1.8a.62.62,0,0,1,.42-.25.6.6,0,0,1,.45.13l0,0,0,0L404.29,148l-1.38-1.43Z"/><path class="cls-9" d="M406.45,145.11l0,0,0,0a.6.6,0,0,0-.45-.13.62.62,0,0,0-.42.25c-.47.64-1.19,1.62-1.36,1.8l-.35-.36a.66.66,0,0,0-.91,0l0,0,1.38,1.43Z"/><path class="cls-16" d="M404.64,186.29a4.47,4.47,0,1,0,4.47,4.47A4.47,4.47,0,0,0,404.64,186.29Zm1.81,3.11-2.16,2.91-1.38-1.43,0,0a.66.66,0,0,1,.91,0l.35.36c.17-.19.89-1.17,1.36-1.8a.62.62,0,0,1,.42-.25.6.6,0,0,1,.45.13l0,0Z"/><path class="cls-9" d="M406,189.2a.62.62,0,0,0-.42.25c-.47.64-1.19,1.62-1.36,1.8l-.35-.36a.66.66,0,0,0-.91,0l0,0,1.38,1.43,2.16-2.91,0,0,0,0A.6.6,0,0,0,406,189.2Z"/><path class="cls-16" d="M404.64,230.59a4.47,4.47,0,1,0,4.47,4.47A4.47,4.47,0,0,0,404.64,230.59Zm1.81,3.11-2.16,2.91-1.38-1.43,0,0a.66.66,0,0,1,.91,0l.35.36c.17-.19.89-1.17,1.36-1.8a.62.62,0,0,1,.42-.25.6.6,0,0,1,.45.13l0,0Z"/><path class="cls-9" d="M406,233.5a.62.62,0,0,0-.42.25c-.47.64-1.19,1.62-1.36,1.8l-.35-.36a.66.66,0,0,0-.91,0l0,0,1.38,1.43,2.16-2.91,0,0,0,0A.6.6,0,0,0,406,233.5Z"/><path class="cls-16" d="M404.64,274.89a4.47,4.47,0,1,0,4.47,4.47A4.47,4.47,0,0,0,404.64,274.89Zm1.81,3.11-2.16,2.91-1.38-1.43,0,0a.66.66,0,0,1,.91,0l.35.36c.17-.19.89-1.17,1.36-1.8a.62.62,0,0,1,.42-.25.59.59,0,0,1,.45.13l0,0Z"/><path class="cls-9" d="M406,277.8a.62.62,0,0,0-.42.25c-.47.64-1.19,1.62-1.36,1.8l-.35-.36a.66.66,0,0,0-.91,0l0,0,1.38,1.43,2.16-2.91,0,0,0,0A.59.59,0,0,0,406,277.8Z"/><path class="cls-16" d="M404.64,319.19a4.47,4.47,0,1,0,4.47,4.47A4.47,4.47,0,0,0,404.64,319.19Zm1.81,3.11-2.16,2.91-1.38-1.43,0,0a.66.66,0,0,1,.91,0l.35.36c.17-.19.89-1.17,1.36-1.8a.62.62,0,0,1,.42-.25.59.59,0,0,1,.45.13l0,0Z"/><path class="cls-9" d="M406,322.09a.62.62,0,0,0-.42.25c-.47.64-1.19,1.62-1.36,1.8l-.35-.36a.66.66,0,0,0-.91,0l0,0,1.38,1.43,2.16-2.91,0,0,0,0A.59.59,0,0,0,406,322.09Z"/><path class="cls-3" d="M405.78,54.38a358.81,358.81,0,0,0-149.81,0,32.16,32.16,0,0,0-25.08,31.4V386.87A32.16,32.16,0,0,0,256,418.27a358.81,358.81,0,0,0,149.81,0,32.17,32.17,0,0,0,25.08-31.4V85.78A32.16,32.16,0,0,0,405.78,54.38Zm-.29,13.71a4.43,4.43,0,1,1-4.43,4.43A4.43,4.43,0,0,1,405.49,68.09ZM418,374H243V91.54H418Z"/><path class="cls-15" d="M549.68,156.79H465.32a3.11,3.11,0,0,0-3.08,3.08v42.29a4.1,4.1,0,0,0,4.1,4.1h63.47a1,1,0,0,1,.72.3l9.86,9.86a2.53,2.53,0,0,0,4.32-1.79v-7.35a1,1,0,0,1,1-1h4a4.1,4.1,0,0,0,4.1-4.1V160.89A4.1,4.1,0,0,0,549.68,156.79Z"/><path class="cls-13" d="M554.17,152.73H462.76A2,2,0,0,0,461.3,156l1,1.18a1,1,0,0,0,1.33.23,3,3,0,0,1,1.65-.49h84.36a4.1,4.1,0,0,1,4.1,4.1v41.28a4.1,4.1,0,0,1-4.1,4.1h-4a1,1,0,0,0-1,1v7.35a2.53,2.53,0,0,1-4.32,1.79l-9.86-9.86a1,1,0,0,0-.72-.3H508a1,1,0,0,0-.76,1.69l47.58,54a2,2,0,0,0,3.41-1.29v-104A4,4,0,0,0,554.17,152.73Z"/><path class="cls-2" d="M540.38,216.51a2.53,2.53,0,0,0,4.32-1.79v-7.35a1,1,0,0,1,1-1h4a4.1,4.1,0,0,0,4.1-4.1V161a4.1,4.1,0,0,0-4.1-4.1H465.32a3,3,0,0,0-1.3.29,1,1,0,0,0-.27,1.56L505.41,206a1,1,0,0,0,.76.34h23.63a1,1,0,0,1,.72.3Z"/><path class="cls-14" d="M32.09,69.08H198.32A3.94,3.94,0,0,1,202.26,73v27.15a0,0,0,0,1,0,0H28.15a0,0,0,0,1,0,0V73A3.94,3.94,0,0,1,32.09,69.08Z"/><path class="cls-8" d="M28.57,71.28A3.9,3.9,0,0,0,28.15,73v27.15H44.7Z"/><polygon class="cls-14" points="243 91.62 260.46 119.72 418.23 119.72 418.23 91.62 243 91.62"/></svg>