<?xml version="1.0" encoding="UTF-8" standalone="no"?>
<svg width="37px" height="38px" viewBox="0 0 37 38" version="1.1" xmlns="http://www.w3.org/2000/svg" xmlns:xlink="http://www.w3.org/1999/xlink">
    <!-- Generator: Sketch 3.8.3 (29802) - http://www.bohemiancoding.com/sketch -->
    <title>Speech Icon</title>
    <desc>Created with Sketch.</desc>
    <defs>
        <polygon id="path-1" points="36.8979668 37.8196359 36.8979668 0.921858234 0 0.921858234 0 37.8196359 36.8979668 37.8196359"></polygon>
    </defs>
    <g id="Page-1" stroke="none" stroke-width="1" fill="none" fill-rule="evenodd">
        <g id="Teachers-Copy-5" transform="translate(-118.000000, -816.000000)">
            <g id="Section-1" transform="translate(118.000000, 684.000000)">
                <g id="Copy" transform="translate(0.000000, 132.000000)">
                    <g id="Speech-Icon">
                        <path d="M13.3755484,19.3945736 C13.3755484,20.6681562 12.3430672,21.7006374 11.0694846,21.7006374 C9.79590197,21.7006374 8.76342075,20.6681562 8.76342075,19.3945736 C8.76342075,18.1209909 9.79590197,17.0885097 11.0694846,17.0885097 C12.3430672,17.0885097 13.3755484,18.1209909 13.3755484,19.3945736" id="Fill-1" fill="#5D60A5"></path>
                        <g id="Group-5" transform="translate(0.000000, 0.023826)">
                            <mask id="mask-2" fill="white">
                                <use xlink:href="#path-1"></use>
                            </mask>
                            <g id="Clip-4"></g>
                            <path d="M18.4490779,0.921669135 C8.2764905,0.921669135 -0.00037819825,9.19853783 -0.00037819825,19.3711253 C-0.00037819825,22.9242978 1.00657464,26.3517195 2.9183668,29.3253032 C2.43332754,30.881589 1.59467292,32.2270293 0.520589891,33.157397 C-0.0230700932,33.6282538 -0.113837673,34.4338161 0.310689862,35.0134049 C0.376874556,35.105118 1.97476216,37.2447745 4.84528688,37.6617381 C5.17337386,37.7090129 5.50240634,37.7326503 5.83332981,37.7326503 C7.41987146,37.7326503 9.04423295,37.1870993 10.6780494,36.1026158 C13.1013547,37.2287011 15.7704888,37.8196359 18.4490779,37.8196359 C28.6216654,37.8196359 36.8985341,29.5437127 36.8985341,19.3711253 C36.8985341,9.19853783 28.6216654,0.921669135 18.4490779,0.921669135 M18.4490779,2.81266038 C27.5787837,2.81266038 35.0075428,10.240474 35.0075428,19.3711253 C35.0075428,28.500831 27.5787837,35.9286446 18.4490779,35.9286446 C16.056974,35.9286446 13.6450147,35.3963306 11.4751022,34.3874868 L10.5144786,33.9412128 L9.63233123,34.5274201 C8.3190378,35.3991671 7.04072772,35.841659 5.83332981,35.841659 C5.59411941,35.841659 5.35301803,35.8246401 5.11664412,35.7896568 C3.65585338,35.5778658 2.62148117,34.7203012 2.1402239,34.235262 C3.29845604,33.1035037 4.18627643,31.6115116 4.72331794,29.8878731 L4.98616573,29.0454365 L4.50869044,28.3032224 C2.79639786,25.6378703 1.89061305,22.5498816 1.89061305,19.3711253 C1.89061305,10.240474 9.31937217,2.81266038 18.4490779,2.81266038" id="Fill-3" fill="#5D60A5" mask="url(#mask-2)"></path>
                        </g>
                        <path d="M20.7551418,19.3945736 C20.7551418,20.6681562 19.7226605,21.7006374 18.4490779,21.7006374 C17.1754953,21.7006374 16.1430141,20.6681562 16.1430141,19.3945736 C16.1430141,18.1209909 17.1754953,17.0885097 18.4490779,17.0885097 C19.7226605,17.0885097 20.7551418,18.1209909 20.7551418,19.3945736" id="Fill-6" fill="#5D60A5"></path>
                        <path d="M28.1347351,19.3945736 C28.1347351,20.6681562 27.1022539,21.7006374 25.8286713,21.7006374 C24.5550887,21.7006374 23.5226074,20.6681562 23.5226074,19.3945736 C23.5226074,18.1209909 24.5550887,17.0885097 25.8286713,17.0885097 C27.1022539,17.0885097 28.1347351,18.1209909 28.1347351,19.3945736" id="Fill-8" fill="#5D60A5"></path>
                    </g>
                </g>
            </g>
        </g>
    </g>
</svg>